<?xml version="1.0" encoding="UTF-8" standalone="no"?>
<svg xmlns:rdf="http://www.w3.org/1999/02/22-rdf-syntax-ns#" xmlns="http://www.w3.org/2000/svg" xml:space="preserve" height="163.31" viewBox="0 0 239.715 163.30972" width="239.72" version="1.1" xmlns:cc="http://creativecommons.org/ns#" xmlns:dc="http://purl.org/dc/elements/1.1/"><metadata><rdf:RDF><cc:Work rdf:about=""><dc:format>image/svg+xml</dc:format><dc:type rdf:resource="http://purl.org/dc/dcmitype/StillImage"/><dc:title/><dc:creator><cc:Agent><dc:title>https://github.com/pgonzal</dc:title></cc:Agent></dc:creator><dc:rights><cc:Agent><dc:title>Copyright (c) Microsoft Corporation</dc:title></cc:Agent></dc:rights></cc:Work></rdf:RDF></metadata><defs><clipPath id="a" clipPathUnits="userSpaceOnUse"><path d="m0 792h612v-792h-612v792z"/></clipPath></defs><g transform="matrix(1.25 0 0 -1.25 -306.97 619.15)"><g clip-path="url(#a)"><g transform="translate(387.63 383.03)"><path d="m0 0c11.083 3.61 8.336 25.171 5.059 52.073-3.316 27.205-6.232 49.131-17.848 49.371-0.632 0.013-1.112-0.604-1.028-1.29l0.246-2.024c0.822-0.523 1.419-1.375 1.544-2.407 0.126-1.032-0.248-2.003-0.921-2.708l0.205-1.678c0.822-0.523 1.418-1.375 1.544-2.407s-0.248-2.003-0.921-2.708l0.204-1.678c0.822-0.523 1.419-1.376 1.545-2.407 0.125-1.032-0.249-2.003-0.921-2.708l0.204-1.678c0.822-0.523 1.419-1.376 1.544-2.407 0.126-1.032-0.248-2.003-0.921-2.709l0.204-1.677c0.823-0.523 1.419-1.375 1.545-2.407s-0.249-2.003-0.921-2.709l0.204-1.676c0.823-0.524 1.419-1.376 1.545-2.408 0.125-1.032-0.249-2.003-0.922-2.709l0.206-1.676c0.822-0.524 1.417-1.376 1.543-2.409 0.126-1.031-0.248-2.002-0.92-2.708l0.204-1.677c0.822-0.523 1.419-1.375 1.545-2.408 0.126-1.031-0.249-2.002-0.921-2.708l0.204-1.677c0.822-0.523 1.419-1.375 1.544-2.408 0.126-1.031-0.248-2.002-0.921-2.708l0.205-1.677c0.822-0.523 1.418-1.376 1.544-2.408 0.126-1.031-0.249-2.002-0.921-2.708l0.204-1.673c0.822-0.523 1.419-1.376 1.545-2.408 0.125-1.032-0.249-2.002-0.921-2.708l0.204-1.677c0.822-0.523 1.418-1.376 1.544-2.407 0.126-1.033-0.248-2.003-0.921-2.709l0.204-1.677c0.823-0.524 1.419-1.376 1.545-2.407 0.126-1.033-0.249-2.003-0.921-2.709l0.204-1.677c0.823-0.523 1.419-1.376 1.544-2.408 0.126-1.032-0.248-2.002-0.921-2.708l0.421-3.447c0.112-0.921 0.96-1.521 1.767-1.258" fill="#b2b3b3"/></g><g transform="translate(387.63 383.03)"><path d="m0 0c11.083 3.61 8.336 25.171 5.059 52.073-3.316 27.205-6.232 49.131-17.848 49.371-0.632 0.013-1.112-0.604-1.028-1.29l0.246-2.024c0.822-0.523 1.419-1.375 1.544-2.407 0.126-1.032-0.248-2.003-0.921-2.708l0.205-1.678c0.822-0.523 1.418-1.375 1.544-2.407s-0.248-2.003-0.921-2.708l0.204-1.678c0.822-0.523 1.419-1.376 1.545-2.407 0.125-1.032-0.249-2.003-0.921-2.708l0.204-1.678c0.822-0.523 1.419-1.376 1.544-2.407 0.126-1.032-0.248-2.003-0.921-2.709l0.204-1.677c0.823-0.523 1.419-1.375 1.545-2.407s-0.249-2.003-0.921-2.709l0.204-1.676c0.823-0.524 1.419-1.376 1.545-2.408 0.125-1.032-0.249-2.003-0.922-2.709l0.206-1.676c0.822-0.524 1.417-1.376 1.543-2.409 0.126-1.031-0.248-2.002-0.92-2.708l0.204-1.677c0.822-0.523 1.419-1.375 1.545-2.408 0.126-1.031-0.249-2.002-0.921-2.708l0.204-1.677c0.822-0.523 1.419-1.375 1.544-2.408 0.126-1.031-0.248-2.002-0.921-2.708l0.205-1.677c0.822-0.523 1.418-1.376 1.544-2.408 0.126-1.031-0.249-2.002-0.921-2.708l0.204-1.673c0.822-0.523 1.419-1.376 1.545-2.408 0.125-1.032-0.249-2.002-0.921-2.708l0.204-1.677c0.822-0.523 1.418-1.376 1.544-2.407 0.126-1.033-0.248-2.003-0.921-2.709l0.204-1.677c0.823-0.524 1.419-1.376 1.545-2.407 0.126-1.033-0.249-2.003-0.921-2.709l0.204-1.677c0.823-0.523 1.419-1.376 1.544-2.408 0.126-1.032-0.248-2.002-0.921-2.708l0.421-3.447c0.112-0.921 0.96-1.521 1.767-1.258z" stroke="#808080" stroke-miterlimit="10" stroke-width="3" fill="none"/></g><g transform="translate(300.2 392.13)"><path d="m0 0s-6.119 17.561-6.106 18.413c0.009 0.621 0.307 2.412 0.941 2.708l5.528 3.501c1.522 0.77 2.431 1.994 2.565 3.444 0.167 1.834-0.911 3.851-2.96 5.541l-6.681 5.849c-1.141 1.099-1.112 2.228-0.585 2.527l0.097 0.059 5.221 3.274c2.615 1.823 2.418 5.485-0.45 8.538l-5.019 5.785c-1.013 1.324-0.851 2.761-0.505 3.046l0.117 0.102 3.574 3.367c1.85 2.032 1.005 5.486-0.571 7.864l-3.372 5.72c-0.766 1.562-0.559 4.153-0.25 4.596l2.842 6.732s-6.035-3.644-7.408-6.625c-0.758-1.645-1.718-4.119-0.764-6.008l0.067-0.121 3.515-5.955c1.009-1.5 1.101-3.029 0.87-3.451l-3.295-3.096c-2.18-1.856-2.146-5.371 0.089-8.219l0.08-0.096 5.183-5.968c1.242-1.308 1.229-2.559 0.998-2.794l-4.984-3.123c-3.178-1.853-3.185-5.776-0.005-8.774l0.079-0.072 6.84-5.985c1.001-0.819 1.312-1.597 1.274-2.014-0.018-0.207-0.113-0.291-0.205-0.342l-6.69-3.125c-1.832-0.807-3.034-2.12-3.095-3.724-0.26-6.899 9.236-24.769 9.236-24.769l3.829 3.195z" fill="#b2b3b3"/></g><g transform="translate(300.2 392.13)"><path stroke-linejoin="round" d="m0 0s-6.119 17.561-6.106 18.413c0.009 0.621 0.307 2.412 0.941 2.708l5.528 3.501c1.522 0.77 2.431 1.994 2.565 3.444 0.167 1.834-0.911 3.851-2.96 5.541l-6.681 5.849c-1.141 1.099-1.112 2.228-0.585 2.527l0.097 0.059 5.221 3.274c2.615 1.823 2.418 5.485-0.45 8.538l-5.019 5.785c-1.013 1.324-0.851 2.761-0.505 3.046l0.117 0.102 3.574 3.367c1.85 2.032 1.005 5.486-0.571 7.864l-3.372 5.72c-0.766 1.562-0.559 4.153-0.25 4.596l2.842 6.732s-6.035-3.644-7.408-6.625c-0.758-1.645-1.718-4.119-0.764-6.008l0.067-0.121 3.515-5.955c1.009-1.5 1.101-3.029 0.87-3.451l-3.295-3.096c-2.18-1.856-2.146-5.371 0.089-8.219l0.08-0.096 5.183-5.968c1.242-1.308 1.229-2.559 0.998-2.794l-4.984-3.123c-3.178-1.853-3.185-5.776-0.005-8.774l0.079-0.072 6.84-5.985c1.001-0.819 1.312-1.597 1.274-2.014-0.018-0.207-0.113-0.291-0.205-0.342l-6.69-3.125c-1.832-0.807-3.034-2.12-3.095-3.724-0.26-6.899 9.236-24.769 9.236-24.769l3.829 3.195z" stroke="#808080" stroke-miterlimit="10" stroke-width="3" fill="none"/></g><g transform="translate(399.62 392.35)"><path d="m0 0 30.842 53.876c2.579 4.506 9.811 11.644 1.561 26.451 0 0-6.15-3.222-11.938-13.334l-27.027-47.911c0.482-0.659 0.651-1.346 0.362-1.852-0.287-0.501-0.958-0.704-1.761-0.627l-5.136-9.105c-2.579-4.506-1.969-9.75 1.355-11.653l1.008-0.577c3.324-1.903 8.155 0.226 10.734 4.732" fill="#b2b3b3"/></g><g transform="translate(399.62 392.35)"><path d="m0 0 30.842 53.876c2.579 4.506 9.811 11.644 1.561 26.451 0 0-6.15-3.222-11.938-13.334l-27.027-47.911c0.482-0.659 0.651-1.346 0.362-1.852-0.287-0.501-0.958-0.704-1.761-0.627l-5.136-9.105c-2.579-4.506-1.969-9.75 1.355-11.653l1.008-0.577c3.324-1.903 8.155 0.226 10.734 4.732z" stroke="#808080" stroke-miterlimit="10" stroke-width="3" fill="none"/></g><g transform="translate(427.14 446.8)"><path d="m0 0c1.535 2.683 4.992 7.818 3.299 6.648-1.388-1.05-3.072-3.093-4.541-5.659-1.533-2.678-2.459-5.274-2.605-7.007-0.022-1.794 2.394 3.48 3.847 6.018" fill="#808080"/></g><g transform="translate(284.71 379.78)"><path d="m0 0-28.559 36.795c-2.389 3.077-14.147 15.328-6.635 29.47l41.137-49.021c-0.441-0.657-0.592-1.262-0.324-1.607 0.266-0.343 0.882-0.347 1.619-0.091l4.757-6.236c2.388-3.078 1.851-7.53-1.194-9.892l-0.922-0.717c-3.045-2.363-7.49-1.778-9.879 1.299" fill="#b2b3b3"/></g><g transform="translate(284.71 379.78)"><path d="m0 0-28.559 36.795c-2.389 3.077-14.147 15.328-6.635 29.47l41.137-49.021c-0.441-0.657-0.592-1.262-0.324-1.607 0.266-0.343 0.882-0.347 1.619-0.091l4.757-6.236c2.388-3.078 1.851-7.53-1.194-9.892l-0.922-0.717c-3.045-2.363-7.49-1.778-9.879 1.299z" stroke="#808080" stroke-miterlimit="10" stroke-width="3" fill="none"/></g><g transform="translate(259.19 417.85)"><path d="m0 0c-1.422 1.833-4.619 5.215-3.059 4.663 1.279-0.528 2.835-1.8 4.195-3.552 1.42-1.829 2.281-3.737 2.423-5.124 0.028-1.467-2.214 2.28-3.559 4.013" fill="#808080"/></g><g transform="translate(333.46 450.84)"><path d="m0 0c2.775 5.168 6.4 11.356 10.271 18.052 9.849 17.033 12.862 22.478 12.87 18.585 0.018-9.335-9.623-35.865-22.736-47.128l-27.531-46.973c-1.213-2.098-3.446-3.097-4.962-2.22l-0.9 0.52c-1.517 0.876-1.765 3.311-0.553 5.409l29.626 51.24c0.956 1.653 2.541 2.607 3.915 2.515" fill="#b2b3b3"/></g><g transform="translate(333.46 450.84)"><path d="m0 0c2.775 5.168 6.4 11.356 10.271 18.052 9.849 17.033 12.862 22.478 12.87 18.585 0.018-9.335-9.623-35.865-22.736-47.128l-27.531-46.973c-1.213-2.098-3.446-3.097-4.962-2.22l-0.9 0.52c-1.517 0.876-1.765 3.311-0.553 5.409l29.626 51.24c0.956 1.653 2.541 2.607 3.915 2.515z" stroke="#808080" stroke-miterlimit="10" stroke-width="3" fill="none"/></g><g transform="translate(334.13 449.73)"><path d="m0 0c0.674 5.828 1.223 12.979 1.861 20.686 1.623 19.608 2.258 25.799-0.042 22.612-5.516-7.643-12.912-34.919-8.347-51.667l-2.331-29.975c-0.201-2.415 1.119-4.514 2.931-4.664l1.075-0.089c1.812-0.151 3.458 1.703 3.659 4.118l3.056 34.674c0.158 1.903-0.635 3.594-1.862 4.305" fill="#b2b3b3"/></g><g transform="translate(334.13 449.73)"><path d="m0 0c0.674 5.828 1.223 12.979 1.861 20.686 1.623 19.608 2.258 25.799-0.042 22.612-5.516-7.643-12.912-34.919-8.347-51.667l-2.331-29.975c-0.201-2.415 1.119-4.514 2.931-4.664l1.075-0.089c1.812-0.151 3.458 1.703 3.659 4.118l3.056 34.674c0.158 1.903-0.635 3.594-1.862 4.305z" stroke="#808080" stroke-miterlimit="10" stroke-width="3" fill="none"/></g><g transform="translate(333.94 445.18)"><path d="m0 0c0.028-1.38-1.069-2.522-2.449-2.549-1.381-0.028-2.522 1.069-2.55 2.449-0.027 1.381 1.07 2.522 2.45 2.55 1.381 0.027 2.522-1.07 2.549-2.45" fill="#808080"/></g><g transform="translate(390.9 372.66)"><path d="m0 0-94.3-6.458c-8.179-0.561-15.33 5.674-15.89 13.853l-0.208 3.042c-0.56 8.179 5.673 15.33 13.853 15.89l94.299 6.459c8.18 0.56 15.33-5.674 15.891-13.853l0.208-3.042c0.562-8.18-5.672-15.33-13.851-15.891" fill="#cb5c3a"/></g><g transform="translate(390.9 372.66)"><path d="m0 0-94.3-6.458c-8.179-0.561-15.33 5.674-15.89 13.853l-0.208 3.042c-0.56 8.179 5.673 15.33 13.853 15.89l94.299 6.459c8.18 0.56 15.33-5.674 15.891-13.853l0.208-3.042c0.562-8.18-5.672-15.33-13.851-15.891z" stroke="#8b4f34" stroke-miterlimit="10" stroke-width="3" fill="none"/></g><g transform="translate(354.68 386.66)"><path d="m0 0c-0.761 0.486-1.415 0.711-1.968 0.673-0.787-0.054-1.483-0.446-2.09-1.176-0.606-0.731-0.963-1.545-1.074-2.441l-0.871-7.46-3.057-0.209 1.542 13.206 3.057 0.209-0.131-1.147c1.018 0.991 2.18 1.532 3.487 1.621 0.333 0.023 0.934-0.013 1.804-0.108l-0.699-3.168z" fill="#8b4f34"/></g><g transform="translate(367.21 377.51)"><path d="m0 0-3.043-0.209 0.118 0.962c-1.034-0.861-2.371-1.349-4.011-1.461-1.12-0.076-2.019 0.184-2.701 0.78-0.68 0.599-1.059 1.465-1.137 2.602-0.025 0.356-0.01 0.778 0.046 1.264l0.996 8.507 3.092 0.212-0.979-8.385c-0.041-0.353-0.053-0.651-0.036-0.894 0.072-1.056 0.701-1.543 1.886-1.462 0.965 0.066 1.753 0.437 2.365 1.11 0.609 0.673 0.965 1.458 1.066 2.354l0.824 7.628 3.055 0.21-1.541-13.218z" fill="#8b4f34"/></g><g transform="translate(378.79 387.84)"><path d="m0 0c-1.032 0.786-1.955 1.15-2.767 1.095-0.503-0.034-0.93-0.181-1.284-0.437-0.353-0.256-0.516-0.579-0.49-0.969 0.033-0.479 0.505-0.912 1.416-1.297 0.911-0.386 1.611-0.695 2.101-0.927 0.489-0.232 0.899-0.561 1.229-0.991 0.331-0.43 0.517-0.938 0.557-1.523 0.098-1.435-0.363-2.605-1.381-3.506-1.019-0.901-2.363-1.41-4.035-1.524-1.43-0.098-2.853 0.208-4.271 0.918l1.417 2.874c1.08-0.889 2.108-1.299 3.082-1.233 0.616 0.042 1.115 0.231 1.495 0.567 0.382 0.338 0.554 0.769 0.518 1.296-0.029 0.438-0.441 0.83-1.232 1.175-0.789 0.345-1.487 0.664-2.094 0.953-0.607 0.288-1.078 0.658-1.417 1.113-0.336 0.454-0.525 0.968-0.564 1.545-0.087 1.267 0.349 2.309 1.31 3.129 0.958 0.82 2.172 1.28 3.641 1.381 1.006 0.069 2.336-0.183 3.991-0.754l-1.222-2.885z" fill="#8b4f34"/></g><g transform="translate(393.85 387.36)"><path d="m0 0-0.951-8.078-3.13-0.214 0.98 8.202c0.031 0.262 0.038 0.527 0.019 0.796-0.083 1.218-0.733 1.783-1.951 1.7-1.096-0.075-2.051-0.604-2.863-1.59l-1.091-9.444-3.105-0.213 2.053 18.611 3.031 0.208-0.578-6.205c1.032 0.764 2.149 1.187 3.351 1.269 1.25 0.086 2.254-0.196 3.011-0.846 0.758-0.649 1.18-1.598 1.266-2.848 0.028-0.413 0.014-0.864-0.042-1.348" fill="#8b4f34"/></g></g></g></svg>
