<?xml version="1.0" encoding="UTF-8" standalone="no"?>
<svg xmlns:rdf="http://www.w3.org/1999/02/22-rdf-syntax-ns#" xmlns="http://www.w3.org/2000/svg" xml:space="preserve" height="99.076" viewBox="0 0 198.81773 99.07589" width="198.82" version="1.1" xmlns:cc="http://creativecommons.org/ns#" xmlns:dc="http://purl.org/dc/elements/1.1/"><metadata><rdf:RDF><cc:Work rdf:about=""><dc:format>image/svg+xml</dc:format><dc:type rdf:resource="http://purl.org/dc/dcmitype/StillImage"/><dc:title/><dc:creator><cc:Agent><dc:title>https://github.com/pgonzal</dc:title></cc:Agent></dc:creator><dc:rights><cc:Agent><dc:title>Copyright (c) Microsoft Corporation</dc:title></cc:Agent></dc:rights></cc:Work></rdf:RDF></metadata><defs><clipPath id="a" clipPathUnits="userSpaceOnUse"><path d="m0 792h612v-792h-612v792z"/></clipPath></defs><g transform="matrix(1.25 0 0 -1.25 -410.79 510.34)"><g clip-path="url(#a)"><g transform="translate(387.73 386.06)"><path d="m0 0c-2.609 0-4.896-1.671-5.69-4.158-0.486-1.52-0.351-3.138 0.38-4.556 0.733-1.418 1.972-2.467 3.493-2.951 0.59-0.189 1.202-0.285 1.818-0.285 2.608 0 4.895 1.671 5.689 4.158 1.002 3.138-0.736 6.506-3.873 7.508-0.59 0.188-1.202 0.284-1.817 0.284m81.682-55.551c-0.774 0-1.544 0.121-2.289 0.359l-74.596 23.823c-1.749 0.558-3.231 1.736-4.171 3.314l-11.749 19.722c-1.102 1.849-1.357 4.085-0.703 6.135 0.655 2.05 2.159 3.723 4.129 4.592l21.005 9.261c0.962 0.424 1.982 0.639 3.033 0.639 0.777 0 1.547-0.12 2.287-0.356l74.596-23.823c1.913-0.611 3.472-1.929 4.393-3.715 0.921-1.785 1.092-3.821 0.481-5.734l-9.256-28.983c-1-3.13-3.877-5.234-7.159-5.234h-0.001z" fill="#cb5d3a"/></g><g transform="translate(387.73 375.61)"><path d="m0 0c-0.451 0-0.909 0.069-1.362 0.214-2.354 0.752-3.653 3.268-2.901 5.622 0.608 1.901 2.367 3.114 4.261 3.114 0.451 0 0.909-0.068 1.362-0.213 2.354-0.752 3.652-3.269 2.901-5.623-0.608-1.901-2.366-3.114-4.261-3.114m16.34 24.245c-1.243 0-2.483-0.257-3.639-0.767l-21.005-9.262c-4.955-2.185-6.881-8.214-4.109-12.866l11.749-19.722c1.127-1.892 2.906-3.306 5.004-3.976l74.596-23.823c0.912-0.291 1.836-0.43 2.746-0.43 3.818 0 7.364 2.445 8.588 6.278l9.255 28.983c1.516 4.744-1.102 9.819-5.846 11.334l-74.596 23.823c-0.894 0.286-1.819 0.428-2.743 0.428m-16.34-27.245c3.265 0 6.125 2.091 7.118 5.201 1.254 3.926-0.92 8.14-4.846 9.394-0.738 0.235-1.503 0.355-2.274 0.355-3.265 0-6.125-2.091-7.118-5.201-0.608-1.901-0.439-3.926 0.477-5.7 0.915-1.775 2.466-3.086 4.369-3.694 0.738-0.235 1.503-0.355 2.274-0.355m16.34 24.245c0.622 0 1.238-0.097 1.83-0.286l74.597-23.822c1.531-0.49 2.78-1.545 3.516-2.974 0.738-1.429 0.874-3.059 0.385-4.59l-9.256-28.984c-0.801-2.506-3.103-4.19-5.73-4.19-0.619 0-1.236 0.097-1.833 0.288l-74.597 23.823c-1.4 0.448-2.586 1.389-3.339 2.653l-11.748 19.722c-0.894 1.502-1.095 3.246-0.562 4.911 0.531 1.665 1.705 2.97 3.303 3.676l21.005 9.261c0.771 0.34 1.587 0.512 2.429 0.512" fill="#8b4f34"/></g><g transform="translate(387.79 384.54)"><path d="m0 0c-1.336 0.015-2.598-0.57-3.453-1.581 0.933-1.068 1.333-1.958 1.136-2.577-0.635-1.985-8.426-0.51-15.3 0.792-4.134 0.782-8.82 1.669-13.842 2.317-13.229 1.71-19.433 9.399-21.486 12.626-2.237 3.515-2.799 6.547-2.374 7.875 0.1 0.317 0.223 0.376 0.312 0.419 0.943 0.457 3.134-0.009 5.937-0.904 2.214-0.707 4.808-1.682 7.467-2.681 3.632-1.364 7.749-2.911 12.3-4.365 7.748-2.474 14.085-5.376 18.674-8.078 0.662 0.576 1.422 1.066 2.274 1.441l1.473 0.651c-6.425 4.083-15.214 7.578-21.293 9.52-4.462 1.425-8.532 2.954-12.124 4.303-7.952 2.988-13.206 4.961-16.325 3.45-1.075-0.52-1.846-1.429-2.229-2.628-0.869-2.722 0.196-6.934 2.779-10.994 1.932-3.038 7.085-9.557 17.205-12.788 2.094-0.669 4.4-1.197 6.935-1.525 4.913-0.634 9.543-1.511 13.626-2.284 10.774-2.04 17.891-3.386 19.523 1.724 0.557 1.745 0.041 3.527-1.215 5.287" fill="#b2b3b3"/></g><g transform="translate(423.3 373.9)"><path d="m0 0-7.527 2.403-1.8-3.389 5.498-1.756-1.182-2.189-5.499 1.757-3.66-6.856-2.851 0.91l7.901 14.716 10.346-3.305-1.226-2.291z" fill="#fff"/></g><g transform="translate(428.71 372.21)"><path d="m0 0-2.2-4.122c0.407-0.178 0.773-0.317 1.1-0.422 2.692-0.86 4.31-0.435 4.856 1.273 0.229 0.718 0.135 1.312-0.285 1.78s-1.228 0.891-2.424 1.274c-0.1 0.031-0.448 0.104-1.047 0.217m1.176-7.331 1.279-8.044-3.129 0.998-0.924 7.427c-0.481 0.161-1.066 0.38-1.754 0.654l-3.3-6.171-2.864 0.914 7.859 14.729c2.112-0.557 3.493-0.938 4.141-1.145 1.686-0.539 2.915-1.291 3.686-2.256 0.77-0.962 0.959-2.06 0.566-3.293-0.4-1.253-1.105-2.224-2.115-2.918-1.01-0.693-2.157-0.992-3.445-0.895" fill="#fff"/></g><g transform="translate(449.44 365.55)"><path d="m0 0-7.206 2.301-1.801-3.39 5.168-1.65-1.182-2.188-5.167 1.651-2.424-4.569 7.09-2.264-1.237-2.287-9.951 3.177l7.878 14.722 10.069-3.216-1.237-2.287z" fill="#fff"/></g><g transform="translate(462.41 361.4)"><path d="m0 0-7.206 2.302-1.801-3.391 5.167-1.65-1.181-2.188-5.167 1.651-2.423-4.569 7.089-2.263-1.236-2.288-9.953 3.177l7.879 14.722 10.069-3.215-1.237-2.288z" fill="#fff"/></g><g transform="translate(464.39 351.21)"><path d="m0 0-1.408 0.45 1.057 2.945c0.277 0.766 0.555 1.472 0.835 2.116 0.281 0.643 0.549 1.207 0.805 1.69l2.265 4.219 3.171-1.013-1.734-3.329c-0.267-0.518-1.03-1.641-2.286-3.364l-2.705-3.714zm-3.943-2.071c0.155 0.484 0.461 0.836 0.919 1.054s0.928 0.25 1.413 0.095c0.484-0.154 0.849-0.454 1.095-0.896 0.247-0.444 0.294-0.908 0.139-1.392-0.154-0.484-0.459-0.836-0.914-1.056-0.455-0.219-0.927-0.251-1.418-0.094s-0.859 0.457-1.102 0.899-0.287 0.905-0.132 1.39" fill="#fff"/></g></g></g></svg>
