<?xml version="1.0" encoding="UTF-8" standalone="no"?>
<svg xmlns:rdf="http://www.w3.org/1999/02/22-rdf-syntax-ns#" xmlns="http://www.w3.org/2000/svg" xml:space="preserve" height="151" viewBox="0 0 183.47307 151.00111" width="183.47" version="1.1" xmlns:cc="http://creativecommons.org/ns#" xmlns:dc="http://purl.org/dc/elements/1.1/"><metadata><rdf:RDF><cc:Work rdf:about=""><dc:format>image/svg+xml</dc:format><dc:type rdf:resource="http://purl.org/dc/dcmitype/StillImage"/><dc:title/><dc:rights><cc:Agent><dc:title>Copyright (c) Microsoft Corporation</dc:title></cc:Agent></dc:rights><dc:creator><cc:Agent><dc:title>https://github.com/pgonzal</dc:title></cc:Agent></dc:creator></cc:Work></rdf:RDF></metadata><defs><clipPath id="a" clipPathUnits="userSpaceOnUse"><path d="m0 792h612v-792h-612v792z"/></clipPath></defs><g transform="matrix(1.25 0 0 -1.25 -336.75 586.8)"><g clip-path="url(#a)"><g transform="translate(370.74 465.14)"><path d="m0 0c-25.177 4.055-47.047-1.728-48.849-12.917-0.148-0.921-0.142-1.85-0.018-2.78l-0.464-70.366c-1.802-11.188 12.215-22.753 31.309-25.828 19.093-3.075 36.032 3.502 37.834 14.691l21.655 66.953c0.41 0.845 0.707 1.725 0.854 2.644 1.803 11.19-17.145 23.548-42.321 27.603" fill="#516682"/></g><g transform="translate(370.74 465.14)"><path d="m0 0c-25.177 4.055-47.047-1.728-48.849-12.917-0.148-0.921-0.142-1.85-0.018-2.78l-0.464-70.366c-1.802-11.188 12.215-22.753 31.309-25.828 19.093-3.075 36.032 3.502 37.834 14.691l21.655 66.953c0.41 0.845 0.707 1.725 0.854 2.644 1.803 11.19-17.145 23.548-42.321 27.603z" stroke="#516682" stroke-miterlimit="10" stroke-width="6" fill="none"/></g><g transform="translate(413.06 437.54)"><path d="m0 0-22.51-69.597c-1.802-11.19-18.741-17.767-37.835-14.692-19.093 3.076-33.11 14.64-31.308 25.829l0.482 73.145 91.171-14.685z" fill="#5e91cb"/></g><g transform="translate(413.06 437.54)"><path d="m0 0c-1.803-11.189-23.673-16.973-48.849-12.917-25.176 4.055-44.125 16.413-42.322 27.602 1.802 11.189 23.672 16.973 48.849 12.918 25.176-4.056 44.124-16.414 42.322-27.603" fill="#a2c8e1"/></g><g transform="translate(338.75 397.12)"><path d="m0 0c0.276 5.403-9.354 10.288-21.512 10.91-12.157 0.622-22.237-3.254-22.513-8.657-0.014-0.276 0.004-0.55 0.041-0.822l1.669-33.82c-0.277-5.403 7.799-10.208 18.038-10.732s18.763 3.431 19.04 8.834l5.113 33.473c0.063 0.268 0.109 0.538 0.124 0.814" fill="#516682"/></g><g transform="translate(338.75 397.12)"><path d="m0 0c0.276 5.403-9.354 10.288-21.512 10.91-12.157 0.622-22.237-3.254-22.513-8.657-0.014-0.276 0.004-0.55 0.041-0.822l1.669-33.82c-0.277-5.403 7.799-10.208 18.038-10.732s18.763 3.431 19.04 8.834l5.113 33.473c0.063 0.268 0.109 0.538 0.124 0.814z" stroke="#516682" stroke-miterlimit="10" stroke-width="6" fill="none"/></g><g transform="translate(338.75 397.12)"><path d="m0 0-5.237-34.286c-0.277-5.403-8.801-9.359-19.04-8.835s-18.315 5.329-18.038 10.732l-1.71 34.642 44.025-2.253z" fill="#5e91cb"/></g><g transform="translate(338.75 397.12)"><path d="m0 0c-0.276-5.403-10.356-9.278-22.514-8.656-12.156 0.622-21.788 5.507-21.511 10.909 0.276 5.404 10.356 9.279 22.513 8.657 12.158-0.622 21.788-5.507 21.512-10.91" fill="#a2c8e1"/></g><g transform="translate(297.85 378.53)"><path d="m0 0c-0.298 3.122-6.235 5.11-13.26 4.439-7.025-0.669-12.479-3.745-12.181-6.867l3.151-19.797c0.298-3.122 5.675-5.163 12.01-4.558 6.334 0.604 11.228 3.626 10.93 6.748l-0.65 20.035z" fill="#516682"/></g><g transform="translate(297.85 378.53)"><path d="m0 0c-0.298 3.122-6.235 5.11-13.26 4.439-7.025-0.669-12.479-3.745-12.181-6.867l3.151-19.797c0.298-3.122 5.675-5.163 12.01-4.558 6.334 0.604 11.228 3.626 10.93 6.748l-0.65 20.035z" stroke="#516682" stroke-miterlimit="10" stroke-width="6" fill="none"/></g><g transform="translate(297.85 378.53)"><path d="m0 0 0.65-20.035c0.298-3.122-4.596-6.144-10.93-6.748-6.335-0.605-11.712 1.436-12.01 4.558l-3.151 19.797 25.441 2.428z" fill="#5e91cb"/></g><g transform="translate(297.85 378.53)"><path d="m0 0c0.298-3.122-5.156-6.197-12.181-6.867-7.026-0.671-12.962 1.317-13.26 4.439s5.156 6.198 12.181 6.867c7.025 0.671 12.962-1.317 13.26-4.439" fill="#a2c8e1"/></g></g></g></svg>
