<?xml version="1.0" encoding="UTF-8"?>
<svg width="171.69" height="159.98" version="1.1" viewBox="0 0 171.69 159.98" xml:space="preserve" xmlns="http://www.w3.org/2000/svg" xmlns:cc="http://creativecommons.org/ns#" xmlns:dc="http://purl.org/dc/elements/1.1/" xmlns:rdf="http://www.w3.org/1999/02/22-rdf-syntax-ns#"><metadata><rdf:RDF><cc:Work rdf:about=""><dc:format>image/svg+xml</dc:format><dc:type rdf:resource="http://purl.org/dc/dcmitype/StillImage"/><dc:title/><dc:creator><cc:Agent><dc:title>https://github.com/pgonzal</dc:title></cc:Agent></dc:creator><dc:rights><cc:Agent><dc:title>Copyright (c) Microsoft Corporation</dc:title></cc:Agent></dc:rights></cc:Work></rdf:RDF></metadata><defs><clipPath id="clipPath4217"><path d="m0 792h612v-792h-612z"/></clipPath></defs><g transform="matrix(1.3333 0 0 -1.3333 -323.71 606.67)"><g clip-path="url(#clipPath4217)"><g transform="translate(328.07 351.51)"><path d="m0 0c-9.844 0.017-19.118 1.952-26.116 5.451-7.305 3.653-11.334 8.616-11.35 13.984l-4.056 61.519c-0.107 0.603-0.158 1.155-0.157 1.685 0.019 10.85 18.334 19.349 41.696 19.349h0.168c23.454-0.042 41.812-8.607 41.793-19.498-1e-3 -0.531-0.055-1.082-0.164-1.683l-4.275-61.499c-0.072-10.832-16.485-19.308-37.409-19.308z" fill="#465e7d"/></g><g transform="translate(328.09 455)"><path d="m0 0c-11.148 0-21.672-1.946-29.632-5.481-8.735-3.878-13.552-9.335-13.563-15.366-1e-3 -0.595 0.053-1.207 0.166-1.866l4.048-61.393c0.041-5.944 4.361-11.364 12.179-15.273 7.2-3.6 16.712-5.593 26.784-5.609h0.129c21.731 0 38.784 9.105 38.911 20.749l4.268 61.373c0.114 0.658 0.171 1.27 0.172 1.865 0.011 6.044-4.807 11.528-13.566 15.439-7.986 3.567-18.542 5.542-29.725 5.562zm0-3h0.166c22.272-0.04 40.313-8.097 40.296-17.996-1e-3 -0.504-0.061-1.003-0.153-1.497l-4.286-61.632c-0.018-9.879-16.085-17.863-35.912-17.863h-0.124c-19.883 0.033-35.987 8.085-35.968 17.984l-4.065 61.653c-0.092 0.495-0.15 0.994-0.149 1.499 0.018 9.875 17.997 17.852 40.195 17.852" fill="#465e7d"/></g><g transform="translate(368.55 434)"><path d="m0 0-4.438-63.129c-0.019-9.899-16.153-17.896-36.037-17.863-19.883 0.033-35.987 8.085-35.968 17.984l-4.214 63.152z" fill="#568dca"/></g><g transform="translate(368.55 434)"><path d="m0 0c-0.018-9.899-18.088-17.892-40.36-17.852-22.273 0.04-40.314 8.097-40.297 17.996 0.018 9.899 18.088 17.892 40.361 17.852s40.314-8.097 40.296-17.996" fill="#9fc6e0"/></g><g transform="translate(289.19 341.51)"><path d="m0 0c-5.675 0.01-11.031 1.142-15.083 3.187-4.353 2.197-6.759 5.227-6.781 8.538l-2.509 35.112c-0.063 0.368-0.094 0.71-0.093 1.045 0.011 6.561 10.763 11.701 24.477 11.701 6.459-0.011 12.462-1.133 17-3.16 4.925-2.199 7.634-5.264 7.627-8.629 0-0.33-0.032-0.674-0.097-1.045l-2.634-35.099c-0.069-6.538-9.637-11.65-21.831-11.65z" fill="#465e7d"/></g><g transform="translate(289.2 402.6)"><path d="m0 0c-14.795 0-25.963-5.674-25.976-13.199-1e-3 -0.396 0.033-0.799 0.103-1.226l2.5-34.994c0.048-3.881 2.744-7.364 7.605-9.817 4.256-2.148 9.851-3.338 15.756-3.347h0.075c13.217 0 23.212 5.616 23.333 13.083l2.625 34.983c0.071 0.427 0.107 0.829 0.107 1.225 8e-3 3.994-3.016 7.545-8.515 10.001-4.725 2.11-10.945 3.279-17.513 3.291zm0-3h0.095c12.731-0.023 23.044-4.628 23.033-10.287 0-0.289-0.034-0.573-0.087-0.856l-2.644-35.23c-0.01-5.646-9.107-10.21-20.334-10.21h-0.07c-11.259 0.019-20.377 4.622-20.367 10.28l-2.518 35.242c-0.052 0.282-0.085 0.567-0.084 0.856 0.01 5.645 10.287 10.205 22.976 10.205" fill="#465e7d"/></g><g transform="translate(312.33 389.31)"><path d="m0 0-2.731-36.086c-0.01-5.658-9.146-10.23-20.405-10.211-11.259 0.02-20.377 4.622-20.366 10.28l-2.602 36.099z" fill="#568dca"/></g><g transform="translate(312.33 389.31)"><path d="m0 0c-0.01-5.658-10.339-10.228-23.07-10.205-12.732 0.023-23.045 4.629-23.034 10.287 9e-3 5.659 10.338 10.227 23.07 10.205 12.732-0.023 23.045-4.629 23.034-10.287" fill="#9fc6e0"/></g><g transform="translate(260.28 336.51)"><path d="m0 0c-3.513 6e-3 -6.838 0.746-9.363 2.084-2.795 1.481-4.346 3.548-4.379 5.826l-2.189 22.121c-0.046 0.264-0.068 0.51-0.067 0.751 8e-3 4.525 6.888 7.938 16.003 7.938 9.215-0.017 16.11-3.454 16.102-7.997-1e-3 -0.24-0.023-0.484-0.069-0.746l-2.269-22.116c-0.081-4.415-6.084-7.861-13.725-7.861z" fill="#465e7d"/></g><g transform="translate(260.29 376.73)"><path d="m0 0c-8.69 0-17.493-3.241-17.504-9.437-1e-3 -0.309 0.025-0.621 0.078-0.949l2.179-22.011c0.067-2.824 1.898-5.327 5.175-7.064 2.736-1.45 6.31-2.252 10.063-2.259 8.624 0 15.122 3.972 15.27 9.268l2.258 22.004c0.054 0.328 0.081 0.639 0.082 0.949 3e-3 1.728-0.777 4.978-6.031 7.325-3.121 1.395-7.207 2.166-11.505 2.174zm0-3h0.06c8.037-0.015 14.547-2.922 14.541-6.494-1e-3 -0.182-0.022-0.361-0.056-0.54l-2.281-22.239c-7e-3 -3.566-5.476-6.447-12.225-6.447h-0.043c-6.769 0.012-12.251 2.918-12.245 6.49l-2.202 22.248c-0.033 0.178-0.054 0.358-0.053 0.541 6e-3 3.562 6.494 6.441 14.504 6.441" fill="#465e7d"/></g><g transform="translate(274.89 367.24)"><path d="m0 0-2.337-22.779c-6e-3 -3.573-5.499-6.458-12.267-6.447-6.77 0.012-12.251 2.918-12.245 6.49l-2.256 22.789z" fill="#568dca"/></g><g transform="translate(274.89 367.24)"><path d="m0 0c-6e-3 -3.571-6.527-6.456-14.564-6.441-8.037 0.014-14.547 2.921-14.541 6.494 6e-3 3.571 6.527 6.456 14.564 6.441s14.547-2.922 14.541-6.494" fill="#9fc6e0"/></g></g></g></svg>
