<?xml version="1.0" encoding="UTF-8" standalone="no"?>
<svg xmlns:rdf="http://www.w3.org/1999/02/22-rdf-syntax-ns#" xmlns="http://www.w3.org/2000/svg" xml:space="preserve" height="232.87" viewBox="0 0 108.9435 232.86775" width="108.94" version="1.1" xmlns:cc="http://creativecommons.org/ns#" xmlns:dc="http://purl.org/dc/elements/1.1/"><metadata><rdf:RDF><cc:Work rdf:about=""><dc:format>image/svg+xml</dc:format><dc:type rdf:resource="http://purl.org/dc/dcmitype/StillImage"/><dc:title/><dc:creator><cc:Agent><dc:title>https://github.com/pgonzal</dc:title></cc:Agent></dc:creator><dc:rights><cc:Agent><dc:title>Copyright (c) Microsoft Corporation</dc:title></cc:Agent></dc:rights></cc:Work></rdf:RDF></metadata><defs><clipPath id="a" clipPathUnits="userSpaceOnUse"><path d="m0 792h612v-792h-612v792z"/></clipPath></defs><g transform="matrix(1.25 0 0 -1.25 -457.03 577.52)"><g clip-path="url(#a)"><g transform="translate(415.19 414.1)"><path d="m0 0h-32.652c-3.216 0-5.848 2.632-5.848 5.848v32.652" stroke="#b2b3b3" stroke-miterlimit="10" stroke-width="8" fill="none"/></g><g transform="translate(400.12 351.17)"><path d="m0 0h-17.59c-3.216 0-5.847 2.631-5.847 5.848v100.48" stroke="#b2b3b3" stroke-miterlimit="10" stroke-width="8" fill="none"/></g><g transform="translate(414.94 288.79)"><path d="m0 0h-32.652c-3.216 0-5.848 2.631-5.848 5.848v159.48" stroke="#b2b3b3" stroke-miterlimit="10" stroke-width="8" fill="none"/></g><g transform="translate(432.6 407.48)"><path d="m0 0v13.026l-11.281 6.514-11.281-6.514v-13.026l11.281-6.514 11.281 6.514z" fill="#676868"/></g><g transform="translate(432.6 282.24)"><path d="m0 0v13.026l-11.281 6.514-11.281-6.514v-13.026l11.281-6.514 11.281 6.514z" fill="#676868"/></g><g transform="translate(388.19 442.48)"><path d="m0 0v13.026l-11.281 6.514-11.281-6.514v-13.026l11.281-6.514 11.281 6.514z" fill="#676868"/></g><path d="m429 347.25h-14v14.417h14v-14.417z" fill="#fff"/><g transform="translate(426.27 352.97)"><path d="m0 0c0-1.356-1.11-2.467-2.467-2.467-1.356 0-2.467 1.111-2.467 2.467v5.755c0 1.356 1.111 2.467 2.467 2.467 1.357 0 2.467-1.111 2.467-2.467v-5.755zm-8.414 0c0-1.356-1.11-2.467-2.467-2.467-1.356 0-2.467 1.111-2.467 2.467v5.755c0 1.356 1.111 2.467 2.467 2.467 1.357 0 2.467-1.111 2.467-2.467v-5.755zm9.647 16.033h-9.693c-4.954 0-9.008-4.054-9.008-9.008v-21.913l4.439-4.438 4.708 4.708 4.708-4.708 4.708 4.708 4.708-4.708 4.438 4.438v21.913c0 4.954-4.054 9.008-9.008 9.008" fill="#f26b6c"/></g><g transform="translate(444.82 351.23)"><path d="m0 0h7.961" stroke="#f26b6c" stroke-miterlimit="10" stroke-width="4" fill="none"/></g><g transform="translate(439.63 367.67)"><path d="m0 0 6.263 4.91" stroke="#f26b6c" stroke-miterlimit="10" stroke-width="4" fill="none"/></g><g transform="translate(425.32 375.24)"><path d="m0 0 0.763 7.76" stroke="#f26b6c" stroke-miterlimit="10" stroke-width="4" fill="none"/></g><g transform="translate(407.62 371.89)"><path d="m0 0-4.705 7.149" stroke="#f26b6c" stroke-miterlimit="10" stroke-width="4" fill="none"/></g><g transform="translate(439.63 334.04)"><path d="m0 0 6.263-4.91" stroke="#f26b6c" stroke-miterlimit="10" stroke-width="4" fill="none"/></g><g transform="translate(425.32 326.47)"><path d="m0 0 1.749-7.76" stroke="#f26b6c" stroke-miterlimit="10" stroke-width="4" fill="none"/></g><g transform="translate(407.62 329.82)"><path d="m0 0-4.705-7.149" stroke="#f26b6c" stroke-miterlimit="10" stroke-width="4" fill="none"/></g></g></g></svg>
