<?xml version="1.0" encoding="UTF-8"?>
<svg width="215.39" height="206.53" version="1.1" viewBox="0 0 215.39 206.53" xml:space="preserve" xmlns="http://www.w3.org/2000/svg" xmlns:cc="http://creativecommons.org/ns#" xmlns:dc="http://purl.org/dc/elements/1.1/" xmlns:rdf="http://www.w3.org/1999/02/22-rdf-syntax-ns#"><metadata><rdf:RDF><cc:Work rdf:about=""><dc:format>image/svg+xml</dc:format><dc:type rdf:resource="http://purl.org/dc/dcmitype/StillImage"/><dc:title/><dc:creator><cc:Agent><dc:title>https://github.com/pgonzal</dc:title></cc:Agent></dc:creator><dc:rights><cc:Agent><dc:title>Copyright (c) Microsoft Corporation</dc:title></cc:Agent></dc:rights></cc:Work></rdf:RDF></metadata><defs><clipPath id="clipPath3729"><path d="m0 792h612v-792h-612z"/></clipPath></defs><g transform="matrix(1.3333 0 0 -1.3333 -300.4 630.65)"><g clip-path="url(#clipPath3729)"><g transform="translate(231.76 401.81)"><path d="m0 0c-2.735 0-4.961 2.226-4.961 4.961v10.484c0 3.081 1.177 6.034 3.269 8.286-0.999 1.638-1.538 3.533-1.538 5.46 0 5.782 4.703 10.485 10.484 10.485 5.782 0 10.485-4.703 10.485-10.485 0-1.927-0.539-3.823-1.538-5.46 2.092-2.253 3.269-5.206 3.269-8.286v-10.484c0-2.735-2.225-4.961-4.961-4.961z" fill="#3e803d"/></g><g transform="translate(239.02 442.99)"><path d="m0 0c-6.608 0-11.984-5.376-11.984-11.984 0-1.832 0.426-3.639 1.225-5.271-1.901-2.404-2.956-5.382-2.956-8.475v-10.484c0-3.563 2.898-6.462 6.461-6.462h14.508c3.563 0 6.462 2.899 6.462 6.462v10.484c0 3.093-1.056 6.071-2.957 8.475 0.8 1.632 1.226 3.439 1.226 5.271 0 6.608-5.377 11.984-11.985 11.984m0-3c4.962 0 8.985-4.022 8.985-8.984 0-2.141-0.752-4.104-2.001-5.647 2.278-1.97 3.732-4.87 3.732-8.099v-10.484c0-1.904-1.558-3.462-3.462-3.462h-14.508c-1.904 0-3.461 1.558-3.461 3.462v10.484c0 3.229 1.453 6.13 3.731 8.099-1.249 1.543-2 3.506-2 5.647 0 4.962 4.022 8.984 8.984 8.984" fill="#3e803d"/></g><g transform="translate(239.02 427.97)"><path d="m0 0c-5.894 0-10.715-4.822-10.715-10.715v-10.484c0-1.904 1.557-3.462 3.461-3.462h14.508c1.904 0 3.462 1.558 3.462 3.462v10.484c0 5.893-4.822 10.715-10.716 10.715" fill="#85c880"/></g><g transform="translate(248 431)"><path d="m0 0c0-4.962-4.023-8.985-8.985-8.985s-8.984 4.023-8.984 8.985 4.022 8.984 8.984 8.984 8.985-4.022 8.985-8.984" fill="#c6e4c3"/></g><g transform="translate(260.21 430.26)"><path d="m0 0c-2.735 0-4.961 2.226-4.961 4.961v10.484c0 3.081 1.177 6.033 3.269 8.286-0.998 1.638-1.538 3.533-1.538 5.46 0 5.782 4.703 10.485 10.484 10.485 5.782 0 10.485-4.703 10.485-10.485 0-1.927-0.539-3.822-1.538-5.46 2.092-2.253 3.269-5.205 3.269-8.286v-10.484c0-2.735-2.225-4.961-4.961-4.961z" fill="#3e803d"/></g><g transform="translate(267.46 471.43)"><path d="m0 0c-6.608 0-11.984-5.376-11.984-11.984 0-1.832 0.426-3.639 1.225-5.271-1.901-2.404-2.956-5.382-2.956-8.475v-10.484c0-3.563 2.898-6.462 6.461-6.462h14.509c3.562 0 6.461 2.899 6.461 6.462v10.484c0 3.093-1.056 6.071-2.957 8.475 0.8 1.632 1.226 3.439 1.226 5.271 0 6.608-5.377 11.984-11.985 11.984m0-3c4.962 0 8.985-4.022 8.985-8.984 0-2.141-0.752-4.104-2.001-5.647 2.278-1.969 3.732-4.87 3.732-8.099v-10.484c0-1.904-1.558-3.462-3.461-3.462h-14.509c-1.904 0-3.461 1.558-3.461 3.462v10.484c0 3.229 1.453 6.13 3.732 8.099-1.25 1.543-2.001 3.506-2.001 5.647 0 4.962 4.022 8.984 8.984 8.984" fill="#3e803d"/></g><g transform="translate(267.46 456.42)"><path d="m0 0c-5.894 0-10.715-4.822-10.715-10.716v-10.484c0-1.904 1.557-3.461 3.461-3.461h14.509c1.903 0 3.461 1.557 3.461 3.461v10.484c0 5.894-4.822 10.716-10.716 10.716" fill="#85c880"/></g><g transform="translate(276.45 459.45)"><path d="m0 0c0-4.962-4.022-8.984-8.984-8.984-4.963 0-8.985 4.022-8.985 8.984s4.022 8.984 8.985 8.984c4.962 0 8.984-4.022 8.984-8.984" fill="#c6e4c3"/></g><g transform="translate(238.54 346.48)"><path d="m0 0c-2.735 0-4.961 2.226-4.961 4.961v10.484c0 3.08 1.177 6.033 3.269 8.286-0.999 1.638-1.538 3.533-1.538 5.46 0 5.782 4.703 10.485 10.484 10.485 5.782 0 10.485-4.703 10.485-10.485 0-1.927-0.539-3.823-1.538-5.46 2.092-2.253 3.269-5.206 3.269-8.286v-10.484c0-2.735-2.225-4.961-4.961-4.961z" fill="#3e803d"/></g><g transform="translate(245.8 387.65)"><path d="m0 0c-6.608 0-11.984-5.376-11.984-11.984 0-1.832 0.425-3.639 1.225-5.271-1.901-2.404-2.956-5.382-2.956-8.475v-10.485c0-3.562 2.898-6.461 6.461-6.461h14.508c3.563 0 6.462 2.899 6.462 6.461v10.485c0 3.093-1.056 6.071-2.957 8.475 0.8 1.632 1.225 3.439 1.225 5.271 0 6.608-5.376 11.984-11.984 11.984m0-3c4.962 0 8.984-4.022 8.984-8.984 0-2.141-0.751-4.104-2-5.647 2.278-1.97 3.732-4.87 3.732-8.099v-10.485c0-1.903-1.558-3.461-3.462-3.461h-14.508c-1.904 0-3.461 1.558-3.461 3.461v10.485c0 3.229 1.453 6.129 3.731 8.099-1.249 1.543-2 3.506-2 5.647 0 4.962 4.022 8.984 8.984 8.984" fill="#3e803d"/></g><g transform="translate(245.8 372.64)"><path d="m0 0c-5.894 0-10.715-4.822-10.715-10.716v-10.484c0-1.904 1.557-3.461 3.461-3.461h14.508c1.904 0 3.462 1.557 3.462 3.461v10.484c0 5.894-4.822 10.716-10.716 10.716" fill="#85c880"/></g><g transform="translate(254.78 375.67)"><path d="m0 0c0-4.962-4.022-8.984-8.984-8.984s-8.985 4.022-8.985 8.984 4.023 8.984 8.985 8.984 8.984-4.022 8.984-8.984" fill="#c6e4c3"/></g><g transform="translate(266.99 374.92)"><path d="m0 0c-2.735 0-4.961 2.226-4.961 4.962v10.483c0 3.081 1.177 6.034 3.269 8.286-0.999 1.638-1.538 3.533-1.538 5.46 0 5.782 4.703 10.485 10.484 10.485 5.782 0 10.485-4.703 10.485-10.485 0-1.927-0.539-3.822-1.538-5.46 2.092-2.253 3.269-5.206 3.269-8.286v-10.483c0-2.736-2.225-4.962-4.961-4.962z" fill="#3e803d"/></g><g transform="translate(274.24 416.1)"><path d="m0 0c-6.608 0-11.984-5.376-11.984-11.984 0-1.832 0.426-3.639 1.225-5.271-1.901-2.404-2.956-5.382-2.956-8.475v-10.484c0-3.563 2.898-6.462 6.461-6.462h14.508c3.563 0 6.462 2.899 6.462 6.462v10.484c0 3.093-1.056 6.071-2.957 8.475 0.8 1.632 1.226 3.439 1.226 5.271 0 6.608-5.377 11.984-11.985 11.984m0-3c4.962 0 8.985-4.022 8.985-8.984 0-2.141-0.752-4.104-2.001-5.647 2.278-1.969 3.732-4.87 3.732-8.099v-10.484c0-1.904-1.558-3.462-3.462-3.462h-14.508c-1.904 0-3.461 1.558-3.461 3.462v10.484c0 3.229 1.453 6.13 3.732 8.099-1.25 1.543-2.001 3.506-2.001 5.647 0 4.962 4.022 8.984 8.984 8.984" fill="#3e803d"/></g><g transform="translate(274.24 401.08)"><path d="m0 0c-5.894 0-10.715-4.822-10.715-10.716v-10.483c0-1.905 1.557-3.462 3.461-3.462h14.508c1.904 0 3.462 1.557 3.462 3.462v10.483c0 5.894-4.822 10.716-10.716 10.716" fill="#85c880"/></g><g transform="translate(283.23 404.11)"><path d="m0 0c0-4.962-4.022-8.984-8.985-8.984-4.962 0-8.984 4.022-8.984 8.984s4.022 8.984 8.984 8.984c4.963 0 8.985-4.022 8.985-8.984" fill="#c6e4c3"/></g><g transform="translate(295.43 403.37)"><path d="m0 0c-2.735 0-4.961 2.226-4.961 4.961v10.484c0 3.08 1.177 6.033 3.269 8.286-0.998 1.637-1.538 3.532-1.538 5.46 0 5.781 4.704 10.485 10.485 10.485s10.484-4.704 10.484-10.485c0-1.928-0.539-3.823-1.538-5.46 2.092-2.253 3.27-5.206 3.27-8.286v-10.484c0-2.735-2.226-4.961-4.962-4.961z" fill="#3e803d"/></g><g transform="translate(302.69 444.54)"><path d="m0 0c-6.608 0-11.985-5.376-11.985-11.984 0-1.832 0.426-3.639 1.226-5.271-1.901-2.404-2.957-5.382-2.957-8.475v-10.484c0-3.563 2.899-6.461 6.461-6.461h14.509c3.563 0 6.462 2.898 6.462 6.461v10.484c0 3.093-1.056 6.071-2.957 8.475 0.8 1.632 1.225 3.439 1.225 5.271 0 6.608-5.376 11.984-11.984 11.984m0-3c4.962 0 8.984-4.022 8.984-8.984 0-2.141-0.751-4.104-2.001-5.647 2.279-1.969 3.733-4.87 3.733-8.099v-10.484c0-1.904-1.558-3.461-3.462-3.461h-14.509c-1.903 0-3.461 1.557-3.461 3.461v10.484c0 3.229 1.454 6.13 3.732 8.099-1.249 1.543-2.001 3.506-2.001 5.647 0 4.962 4.023 8.984 8.985 8.984" fill="#3e803d"/></g><g transform="translate(302.69 429.53)"><path d="m0 0c-5.894 0-10.716-4.822-10.716-10.716v-10.484c0-1.903 1.558-3.461 3.461-3.461h14.509c1.904 0 3.462 1.558 3.462 3.461v10.484c0 5.894-4.822 10.716-10.716 10.716" fill="#85c880"/></g><g transform="translate(311.67 432.56)"><path d="m0 0c0-4.962-4.022-8.984-8.984-8.984-4.963 0-8.985 4.022-8.985 8.984s4.022 8.985 8.985 8.985c4.962 0 8.984-4.023 8.984-8.985" fill="#c6e4c3"/></g><g transform="translate(323.88 431.81)"><path d="m0 0c-2.735 0-4.961 2.226-4.961 4.961v10.484c0 3.081 1.178 6.034 3.27 8.286-0.999 1.637-1.538 3.532-1.538 5.46 0 5.782 4.703 10.485 10.484 10.485s10.484-4.703 10.484-10.485c0-1.928-0.539-3.823-1.538-5.46 2.092-2.253 3.27-5.206 3.27-8.286v-10.484c0-2.735-2.226-4.961-4.962-4.961z" fill="#3e803d"/></g><g transform="translate(331.13 472.99)"><path d="m0 0c-6.608 0-11.984-5.376-11.984-11.984 0-1.832 0.425-3.639 1.225-5.271-1.901-2.404-2.957-5.382-2.957-8.475v-10.484c0-3.563 2.899-6.462 6.461-6.462h14.509c3.563 0 6.462 2.899 6.462 6.462v10.484c0 3.093-1.056 6.071-2.957 8.475 0.8 1.632 1.225 3.439 1.225 5.271 0 6.608-5.376 11.984-11.984 11.984m0-3c4.962 0 8.984-4.022 8.984-8.984 0-2.141-0.751-4.104-2.001-5.647 2.279-1.97 3.733-4.87 3.733-8.099v-10.484c0-1.904-1.558-3.462-3.462-3.462h-14.509c-1.903 0-3.461 1.558-3.461 3.462v10.484c0 3.229 1.453 6.13 3.733 8.099-1.25 1.543-2.001 3.506-2.001 5.647 0 4.962 4.022 8.984 8.984 8.984" fill="#3e803d"/></g><g transform="translate(331.13 457.97)"><path d="m0 0c-5.894 0-10.716-4.822-10.716-10.715v-10.484c0-1.904 1.558-3.462 3.461-3.462h14.509c1.904 0 3.462 1.558 3.462 3.462v10.484c0 5.893-4.822 10.715-10.716 10.715" fill="#85c880"/></g><g transform="translate(340.11 461)"><path d="m0 0c0-4.962-4.022-8.985-8.984-8.985s-8.985 4.023-8.985 8.985 4.023 8.984 8.985 8.984 8.984-4.022 8.984-8.984" fill="#c6e4c3"/></g><g transform="translate(273.76 319.59)"><path d="m0 0c-2.735 0-4.961 2.226-4.961 4.961v10.484c0 3.08 1.177 6.034 3.269 8.286-0.999 1.638-1.538 3.534-1.538 5.46 0 5.782 4.703 10.485 10.484 10.485 5.782 0 10.485-4.703 10.485-10.485 0-1.927-0.539-3.823-1.538-5.46 2.092-2.253 3.269-5.206 3.269-8.286v-10.484c0-2.735-2.225-4.961-4.961-4.961z" fill="#3e803d"/></g><g transform="translate(281.02 360.77)"><path d="m0 0c-6.608 0-11.984-5.376-11.984-11.984 0-1.832 0.426-3.639 1.225-5.272-1.901-2.403-2.956-5.381-2.956-8.474v-10.485c0-3.562 2.898-6.461 6.461-6.461h14.508c3.563 0 6.462 2.899 6.462 6.461v10.485c0 3.093-1.056 6.071-2.957 8.474 0.8 1.633 1.226 3.44 1.226 5.272 0 6.608-5.377 11.984-11.985 11.984m0-3c4.962 0 8.985-4.022 8.985-8.984 0-2.141-0.752-4.104-2.001-5.648 2.278-1.969 3.732-4.87 3.732-8.098v-10.485c0-1.903-1.558-3.461-3.462-3.461h-14.508c-1.904 0-3.461 1.558-3.461 3.461v10.485c0 3.229 1.453 6.129 3.731 8.098-1.249 1.544-2 3.507-2 5.648 0 4.962 4.022 8.984 8.984 8.984" fill="#3e803d"/></g><g transform="translate(281.02 345.75)"><path d="m0 0c-5.894 0-10.715-4.822-10.715-10.716v-10.484c0-1.904 1.557-3.461 3.461-3.461h14.508c1.904 0 3.462 1.557 3.462 3.461v10.484c0 5.894-4.822 10.716-10.716 10.716" fill="#85c880"/></g><g transform="translate(290 348.78)"><path d="m0 0c0-4.962-4.023-8.984-8.985-8.984s-8.984 4.022-8.984 8.984 4.022 8.984 8.984 8.984 8.985-4.022 8.985-8.984" fill="#c6e4c3"/></g><g transform="translate(302.21 348.03)"><path d="m0 0c-2.735 0-4.961 2.226-4.961 4.961v10.484c0 3.08 1.177 6.033 3.269 8.286-0.998 1.637-1.538 3.533-1.538 5.46 0 5.782 4.703 10.485 10.484 10.485 5.782 0 10.485-4.703 10.485-10.485 0-1.927-0.539-3.823-1.537-5.46 2.09-2.252 3.268-5.206 3.268-8.286v-10.484c0-2.735-2.225-4.961-4.961-4.961z" fill="#3e803d"/></g><g transform="translate(309.46 389.21)"><path d="m0 0c-6.608 0-11.984-5.376-11.984-11.984 0-1.832 0.426-3.639 1.225-5.271-1.901-2.404-2.956-5.382-2.956-8.475v-10.485c0-3.562 2.898-6.461 6.461-6.461h14.509c3.562 0 6.461 2.899 6.461 6.461v10.485c0 3.093-1.056 6.071-2.956 8.474 0.799 1.633 1.224 3.44 1.224 5.272 0 6.608-5.376 11.984-11.984 11.984m0-3c4.962 0 8.984-4.022 8.984-8.984 0-2.141-0.751-4.104-2-5.648 2.279-1.969 3.732-4.869 3.732-8.098v-10.485c0-1.903-1.558-3.461-3.461-3.461h-14.509c-1.904 0-3.461 1.558-3.461 3.461v10.485c0 3.229 1.453 6.129 3.732 8.098-1.25 1.544-2.001 3.507-2.001 5.648 0 4.962 4.022 8.984 8.984 8.984" fill="#3e803d"/></g><g transform="translate(309.46 374.2)"><path d="m0 0c-5.894 0-10.715-4.822-10.715-10.716v-10.484c0-1.904 1.557-3.461 3.461-3.461h14.509c1.903 0 3.461 1.557 3.461 3.461v10.484c0 5.894-4.822 10.716-10.716 10.716" fill="#85c880"/></g><g transform="translate(318.45 377.23)"><path d="m0 0c0-4.962-4.022-8.984-8.984-8.984s-8.985 4.022-8.985 8.984 4.023 8.984 8.985 8.984 8.984-4.022 8.984-8.984" fill="#c6e4c3"/></g><g transform="translate(330.65 376.48)"><path d="m0 0c-2.735 0-4.961 2.226-4.961 4.961v10.484c0 3.081 1.177 6.034 3.269 8.286-0.999 1.638-1.538 3.533-1.538 5.46 0 5.782 4.703 10.485 10.484 10.485s10.485-4.703 10.485-10.485c0-1.927-0.539-3.822-1.538-5.46 2.092-2.252 3.269-5.205 3.269-8.286v-10.484c0-2.735-2.226-4.961-4.961-4.961z" fill="#3e803d"/></g><g transform="translate(337.91 417.65)"><path d="m0 0c-6.608 0-11.984-5.376-11.984-11.984 0-1.832 0.426-3.639 1.225-5.271-1.9-2.404-2.956-5.382-2.956-8.475v-10.485c0-3.562 2.899-6.461 6.461-6.461h14.509c3.562 0 6.461 2.899 6.461 6.461v10.485c0 3.093-1.056 6.071-2.956 8.475 0.799 1.632 1.225 3.439 1.225 5.271 0 6.608-5.377 11.984-11.985 11.984m0-3c4.962 0 8.985-4.022 8.985-8.984 0-2.141-0.752-4.104-2.001-5.647 2.279-1.969 3.732-4.87 3.732-8.099v-10.485c0-1.903-1.558-3.461-3.461-3.461h-14.509c-1.903 0-3.461 1.558-3.461 3.461v10.485c0 3.229 1.453 6.13 3.732 8.099-1.249 1.543-2.001 3.506-2.001 5.647 0 4.962 4.022 8.984 8.984 8.984" fill="#3e803d"/></g><g transform="translate(337.91 402.64)"><path d="m0 0c-5.894 0-10.715-4.822-10.715-10.716v-10.484c0-1.904 1.557-3.461 3.461-3.461h14.509c1.903 0 3.461 1.557 3.461 3.461v10.484c0 5.894-4.822 10.716-10.716 10.716" fill="#85c880"/></g><g transform="translate(346.89 405.67)"><path d="m0 0c0-4.962-4.022-8.984-8.984-8.984s-8.985 4.022-8.985 8.984 4.023 8.984 8.985 8.984 8.984-4.022 8.984-8.984" fill="#c6e4c3"/></g><g transform="translate(359.1 404.92)"><path d="m0 0c-2.735 0-4.961 2.226-4.961 4.961v10.484c0 3.08 1.177 6.033 3.269 8.286-0.999 1.638-1.538 3.533-1.538 5.46 0 5.781 4.703 10.484 10.484 10.484s10.485-4.703 10.485-10.484c0-1.927-0.539-3.822-1.538-5.46 2.092-2.253 3.269-5.206 3.269-8.286v-10.484c0-2.735-2.226-4.961-4.961-4.961z" fill="#3e803d"/></g><g transform="translate(366.35 446.1)"><path d="m0 0c-6.607 0-11.984-5.376-11.984-11.984 0-1.832 0.426-3.639 1.225-5.271-1.9-2.404-2.956-5.382-2.956-8.475v-10.484c0-3.563 2.899-6.461 6.461-6.461h14.509c3.562 0 6.461 2.898 6.461 6.461v10.484c0 3.093-1.056 6.071-2.956 8.475 0.799 1.632 1.225 3.439 1.225 5.271 0 6.608-5.377 11.984-11.985 11.984m0-3c4.963 0 8.985-4.022 8.985-8.984 0-2.141-0.752-4.104-2.001-5.647 2.279-1.969 3.732-4.87 3.732-8.099v-10.484c0-1.904-1.558-3.461-3.461-3.461h-14.509c-1.903 0-3.461 1.557-3.461 3.461v10.484c0 3.229 1.453 6.13 3.732 8.099-1.249 1.543-2.001 3.506-2.001 5.647 0 4.962 4.022 8.984 8.984 8.984" fill="#3e803d"/></g><g transform="translate(366.35 431.08)"><path d="m0 0c-5.894 0-10.715-4.822-10.715-10.716v-10.484c0-1.904 1.558-3.461 3.461-3.461h14.509c1.903 0 3.461 1.557 3.461 3.461v10.484c0 5.894-4.821 10.716-10.716 10.716" fill="#85c880"/></g><g transform="translate(375.34 434.11)"><path d="m0 0c0-4.962-4.022-8.984-8.985-8.984-4.962 0-8.985 4.022-8.985 8.984s4.023 8.984 8.985 8.984c4.963 0 8.985-4.022 8.985-8.984" fill="#c6e4c3"/></g><g transform="translate(365.88 349.59)"><path d="m0 0c-2.735 0-4.961 2.226-4.961 4.961v10.484c0 3.081 1.178 6.034 3.27 8.286-0.999 1.637-1.538 3.533-1.538 5.46 0 5.782 4.703 10.485 10.484 10.485s10.484-4.703 10.484-10.485c0-1.927-0.539-3.823-1.538-5.46 2.092-2.253 3.27-5.206 3.27-8.286v-10.484c0-2.735-2.226-4.961-4.962-4.961z" fill="#3e803d"/></g><g transform="translate(373.13 390.77)"><path d="m0 0c-6.608 0-11.984-5.376-11.984-11.984 0-1.832 0.425-3.639 1.225-5.272-1.901-2.403-2.957-5.381-2.957-8.474v-10.485c0-3.562 2.899-6.461 6.461-6.461h14.509c3.563 0 6.462 2.899 6.462 6.461v10.485c0 3.093-1.056 6.071-2.957 8.474 0.8 1.633 1.225 3.44 1.225 5.272 0 6.608-5.376 11.984-11.984 11.984m0-3c4.962 0 8.984-4.022 8.984-8.984 0-2.141-0.751-4.104-2.001-5.648 2.279-1.969 3.733-4.87 3.733-8.098v-10.485c0-1.903-1.558-3.461-3.462-3.461h-14.509c-1.903 0-3.461 1.558-3.461 3.461v10.485c0 3.229 1.453 6.129 3.733 8.098-1.25 1.544-2.001 3.507-2.001 5.648 0 4.962 4.022 8.984 8.984 8.984" fill="#3e803d"/></g><g transform="translate(373.13 375.75)"><path d="m0 0c-5.894 0-10.716-4.822-10.716-10.716v-10.484c0-1.904 1.558-3.461 3.461-3.461h14.509c1.904 0 3.462 1.557 3.462 3.461v10.484c0 5.894-4.822 10.716-10.716 10.716" fill="#85c880"/></g><g transform="translate(382.11 378.78)"><path d="m0 0c0-4.962-4.022-8.984-8.984-8.984s-8.985 4.022-8.985 8.984 4.023 8.984 8.985 8.984 8.984-4.022 8.984-8.984" fill="#c6e4c3"/></g></g></g></svg>
