<svg xmlns="http://www.w3.org/2000/svg" viewBox="0 0 270.97025 92.96759"><defs><style>.a{fill:#39b54a;}.b{fill:#f9ed32;}.c{fill:#231f20;}.d{fill:#979696;}.e{fill:#fff;}.f{fill:none;stroke:#979696;stroke-miterlimit:10;stroke-width:2px;}</style></defs><circle class="a" cx="16.38785" cy="16.38776" r="15.3877"/><path class="b" d="M216.247,294.71429a14.38776,14.38776,0,1,1-14.38774,14.38776A14.38775,14.38775,0,0,1,216.247,294.71429m0-2a16.38776,16.38776,0,1,0,16.38776,16.38776A16.4063,16.4063,0,0,0,216.247,292.71429Z" transform="translate(-199.85922 -292.71429)"/><path class="a" d="M375.044,324.48975a15.3877,15.3877,0,1,1,15.38769-15.3877A15.40558,15.40558,0,0,1,375.044,324.48975Z" transform="translate(-199.85922 -292.71429)"/><path class="b" d="M375.04346,294.71429a14.38776,14.38776,0,1,1-14.38776,14.38776,14.38776,14.38776,0,0,1,14.38776-14.38776m0-2a16.38776,16.38776,0,1,0,16.38775,16.38776,16.4063,16.4063,0,0,0-16.38775-16.38776Z" transform="translate(-199.85922 -292.71429)"/><circle class="a" cx="254.58218" cy="16.38776" r="15.3877"/><path class="b" d="M454.44171,294.71429A14.38776,14.38776,0,1,1,440.054,309.10205a14.38776,14.38776,0,0,1,14.38775-14.38776m0-2a16.38776,16.38776,0,1,0,16.38776,16.38776,16.4063,16.4063,0,0,0-16.38776-16.38776Z" transform="translate(-199.85922 -292.71429)"/><path class="a" d="M295.645,324.48975a15.3877,15.3877,0,1,1,15.38818-15.3877A15.40506,15.40506,0,0,1,295.645,324.48975Z" transform="translate(-199.85922 -292.71429)"/><path class="c" d="M295.64523,294.71429a14.38776,14.38776,0,1,1-14.38775,14.38776,14.38773,14.38773,0,0,1,14.38775-14.38776m0-2A16.38776,16.38776,0,1,0,312.033,309.10205a16.4063,16.4063,0,0,0-16.38773-16.38776Z" transform="translate(-199.85922 -292.71429)"/><circle class="a" cx="16.38785" cy="76.57965" r="15.3877"/><path class="b" d="M216.247,354.90637a14.38776,14.38776,0,1,1-14.38774,14.38776A14.38775,14.38775,0,0,1,216.247,354.90637m0-2a16.38776,16.38776,0,1,0,16.38776,16.38776A16.40629,16.40629,0,0,0,216.247,352.90637Z" transform="translate(-199.85922 -292.71429)"/><circle class="d" cx="95.786" cy="76.57984" r="14.38776"/><path class="a" d="M375.044,384.68164A15.3877,15.3877,0,1,1,390.43164,369.294,15.40557,15.40557,0,0,1,375.044,384.68164Z" transform="translate(-199.85922 -292.71429)"/><path class="b" d="M375.04346,354.90637a14.38776,14.38776,0,1,1-14.38776,14.38776,14.38776,14.38776,0,0,1,14.38776-14.38776m0-2a16.38776,16.38776,0,1,0,16.38775,16.38776,16.4063,16.4063,0,0,0-16.38775-16.38776Z" transform="translate(-199.85922 -292.71429)"/><line class="e" x1="30.7755" y1="62.19208" x2="77.58976" y2="28.20407"/><line class="f" x1="30.7755" y1="62.19208" x2="68.98676" y2="34.45001"/><polygon class="d" points="69.111 38.668 77.59 28.204 65.014 33.026 69.111 38.668"/><line class="e" x1="116.77335" y1="16.38662" x2="157.42641" y2="16.38589"/><line class="f" x1="116.77335" y1="16.38663" x2="146.79517" y2="16.38608"/><polygon class="d" points="144.417 19.872 157.426 16.386 144.417 12.9 144.417 19.872"/><line class="e" x1="35.46723" y1="16.38809" x2="76.12029" y2="16.38735"/><line class="f" x1="35.46722" y1="16.38809" x2="65.48904" y2="16.38754"/><polygon class="d" points="63.111 19.874 76.12 16.387 63.111 12.901 63.111 19.874"/><line class="e" x1="194.55684" y1="16.38662" x2="235.2099" y2="16.38589"/><line class="f" x1="194.55682" y1="16.38663" x2="224.57864" y2="16.38608"/><polygon class="d" points="222.201 19.872 235.21 16.386 222.201 12.9 222.201 19.872"/><line class="e" x1="35.14968" y1="77.69321" x2="75.63057" y2="76.57984"/><line class="f" x1="35.14969" y1="77.69321" x2="65.00336" y2="76.87213"/><polygon class="d" points="62.722 80.422 75.631 76.58 62.531 73.452 62.722 80.422"/><line class="e" x1="191.71221" y1="62.19208" x2="238.24282" y2="30.7755"/><line class="f" x1="191.71222" y1="62.19208" x2="229.43185" y2="36.72449"/><polygon class="d" points="229.412 40.944 238.243 30.776 225.51 35.166 229.412 40.944"/><path class="e" d="M214.77832,311.19238l-.67236,2.42383h-2.21289l2.88525-9.44141h2.80176l2.92724,9.44141h-2.29687l-.72852-2.42383Zm2.39551-1.59668-.58838-2.00293c-.168-.56054-.33594-1.26074-.47607-1.82129h-.02833c-.14013.56055-.27978,1.2754-.43408,1.82129l-.56054,2.00293Z" transform="translate(-199.85922 -292.71429)"/><path class="e" d="M378.7373,313.34961a6.0869,6.0869,0,0,1-2.42382.40625c-3.26368,0-4.94434-2.03125-4.94434-4.7207a4.81264,4.81264,0,0,1,5.1543-5.01465,5.56025,5.56025,0,0,1,2.32519.4209l-.43359,1.69433a4.62367,4.62367,0,0,0-1.793-.34961,3.10371,3.10371,0,0,0,.01367,6.20508,5.341,5.341,0,0,0,1.7793-.30859Z" transform="translate(-199.85922 -292.71429)"/><path class="e" d="M450.49414,304.30078a19.06191,19.06191,0,0,1,2.88574-.19629,6.07417,6.07417,0,0,1,3.86621,1.00879,4.17788,4.17788,0,0,1,1.59668,3.55762,4.78618,4.78618,0,0,1-1.56933,3.82422,6.77212,6.77212,0,0,1-4.35645,1.21875,18.6252,18.6252,0,0,1-2.42285-.13965Zm2.14356,7.7041a3.9231,3.9231,0,0,0,.74218.042c1.93262.01464,3.19336-1.05079,3.19336-3.30567a2.70778,2.70778,0,0,0-2.96972-2.99707,4.43545,4.43545,0,0,0-.96582.084Z" transform="translate(-199.85922 -292.71429)"/><path class="e" d="M292.3418,304.30078a16.98588,16.98588,0,0,1,2.75976-.19629,5.21517,5.21517,0,0,1,2.7876.53223,2.05485,2.05485,0,0,1,1.13428,1.84863,2.13414,2.13414,0,0,1-1.55469,2.01758v.02734a2.36386,2.36386,0,0,1,1.877,2.32618,2.51513,2.51513,0,0,1-.98047,2.00293,5.96239,5.96239,0,0,1-3.71191.85449,16.46032,16.46032,0,0,1-2.31152-.14063Zm2.11523,3.61328h.70068c1.12061,0,1.72266-.46191,1.72266-1.16211,0-.71484-.54639-1.09277-1.51269-1.09277a5.93334,5.93334,0,0,0-.91065.05566Zm0,4.18848a6.66976,6.66976,0,0,0,.82666.02832c.96631,0,1.8208-.36426,1.8208-1.35938,0-.95214-.85449-1.33007-1.91894-1.33007H294.457Z" transform="translate(-199.85922 -292.71429)"/><path class="e" d="M219.05029,369.81592h-3.47363v2.24121h3.87988v1.751h-6.02343v-9.44092h5.82714v1.751h-3.68359v1.96094h3.47363Z" transform="translate(-199.85922 -292.71429)"/><path class="e" d="M292.88086,364.3667h5.77148v1.751h-3.62793v2.15673h3.38965v1.73731h-3.38965v3.7959h-2.14355Z" transform="translate(-199.85922 -292.71429)"/><path class="e" d="M379.08008,373.374a10.56577,10.56577,0,0,1-3.15137.53223,5.262,5.262,0,0,1-3.83887-1.2749,4.5662,4.5662,0,0,1-1.33007-3.43164c.01367-3.1377,2.29687-4.93067,5.39257-4.93067a6.50928,6.50928,0,0,1,2.61914.46192l-.44824,1.709a5.227,5.227,0,0,0-2.19922-.40625,3.076,3.076,0,1,0,.89649,6.00928v-1.9751h-1.45606v-1.6665h3.51563Z" transform="translate(-199.85922 -292.71429)"/></svg>