<svg xmlns="http://www.w3.org/2000/svg" viewBox="0 0 306.59489 88.9676"><defs><style>.a{fill:#979696;}.b{fill:#fff;}.c{fill:none;stroke:#979696;stroke-miterlimit:10;stroke-width:2px;}.d{fill:#231f20;}</style></defs><circle class="a" cx="14.38776" cy="14.38776" r="14.38776"/><circle class="a" cx="173.18425" cy="14.38776" r="14.38776"/><circle class="a" cx="252.5825" cy="14.38776" r="14.38776"/><circle class="a" cx="93.786" cy="14.38776" r="14.38776"/><circle class="a" cx="14.38776" cy="74.57984" r="14.38776"/><circle class="a" cx="93.786" cy="74.57984" r="14.38776"/><circle class="a" cx="173.18425" cy="74.57984" r="14.38776"/><line class="b" x1="28.77551" y1="60.19209" x2="75.58976" y2="26.20408"/><line class="c" x1="28.7755" y1="60.19209" x2="66.98676" y2="32.45002"/><polygon class="a" points="67.111 36.668 75.59 26.204 63.014 31.026 67.111 36.668"/><line class="b" x1="114.77336" y1="14.38663" x2="155.42642" y2="14.3859"/><line class="c" x1="114.77335" y1="14.38664" x2="144.79517" y2="14.38609"/><polygon class="a" points="142.417 17.872 155.426 14.386 142.417 10.9 142.417 17.872"/><line class="b" x1="33.46723" y1="14.38809" x2="74.12029" y2="14.38736"/><line class="c" x1="33.46723" y1="14.3881" x2="63.48905" y2="14.38755"/><polygon class="a" points="61.111 17.874 74.12 14.387 61.111 10.901 61.111 17.874"/><line class="b" x1="192.55684" y1="14.38663" x2="233.20991" y2="14.3859"/><line class="c" x1="192.55683" y1="14.38664" x2="222.57865" y2="14.38609"/><polygon class="a" points="220.201 17.872 233.21 14.386 220.201 10.9 220.201 17.872"/><line class="b" x1="33.14969" y1="75.69321" x2="73.63058" y2="74.57984"/><line class="c" x1="33.1497" y1="75.69322" x2="63.00336" y2="74.87214"/><polygon class="a" points="60.722 78.422 73.631 74.58 60.531 71.452 60.722 78.422"/><line class="b" x1="189.71221" y1="60.19209" x2="236.24282" y2="28.77551"/><line class="c" x1="189.71223" y1="60.19209" x2="227.43186" y2="34.7245"/><polygon class="a" points="227.412 38.944 236.243 28.776 223.51 33.166 227.412 38.944"/><path class="b" d="M214.77832,311.19238l-.67236,2.42383h-2.21289l2.88525-9.44141h2.80176l2.92724,9.44141h-2.29687l-.72852-2.42383Zm2.39551-1.59668-.58838-2.00293c-.168-.56054-.33594-1.26074-.47607-1.82129h-.02833c-.14013.56055-.27978,1.2754-.43408,1.82129l-.56054,2.00293Z" transform="translate(-201.85922 -294.71429)"/><path class="b" d="M378.7373,313.34961a6.0869,6.0869,0,0,1-2.42382.40625c-3.26368,0-4.94434-2.03125-4.94434-4.7207a4.81264,4.81264,0,0,1,5.1543-5.01465,5.56025,5.56025,0,0,1,2.32519.4209l-.43359,1.69433a4.62367,4.62367,0,0,0-1.793-.34961,3.10371,3.10371,0,0,0,.01367,6.20508,5.341,5.341,0,0,0,1.7793-.30859Z" transform="translate(-201.85922 -294.71429)"/><path class="b" d="M450.49414,304.30078a19.06191,19.06191,0,0,1,2.88574-.19629,6.07417,6.07417,0,0,1,3.86621,1.00879,4.17788,4.17788,0,0,1,1.59668,3.55762,4.78618,4.78618,0,0,1-1.56933,3.82422,6.77212,6.77212,0,0,1-4.35645,1.21875,18.6252,18.6252,0,0,1-2.42285-.13965Zm2.14356,7.7041a3.9231,3.9231,0,0,0,.74218.042c1.93262.01464,3.19336-1.05079,3.19336-3.30567a2.70778,2.70778,0,0,0-2.96972-2.99707,4.43545,4.43545,0,0,0-.96582.084Z" transform="translate(-201.85922 -294.71429)"/><path class="b" d="M292.3418,304.30078a16.98588,16.98588,0,0,1,2.75976-.19629,5.21517,5.21517,0,0,1,2.7876.53223,2.05485,2.05485,0,0,1,1.13428,1.84863,2.13414,2.13414,0,0,1-1.55469,2.01758v.02734a2.36386,2.36386,0,0,1,1.877,2.32618,2.51513,2.51513,0,0,1-.98047,2.00293,5.96239,5.96239,0,0,1-3.71191.85449,16.46032,16.46032,0,0,1-2.31152-.14063Zm2.11523,3.61328h.70068c1.12061,0,1.72266-.46191,1.72266-1.16211,0-.71484-.54639-1.09277-1.51269-1.09277a5.93334,5.93334,0,0,0-.91065.05566Zm0,4.18848a6.66976,6.66976,0,0,0,.82666.02832c.96631,0,1.8208-.36426,1.8208-1.35938,0-.95214-.85449-1.33007-1.91894-1.33007H294.457Z" transform="translate(-201.85922 -294.71429)"/><path class="b" d="M219.05029,369.81592h-3.47363v2.24121h3.87988v1.751h-6.02343v-9.44092h5.82714v1.751h-3.68359v1.96094h3.47363Z" transform="translate(-201.85922 -294.71429)"/><path class="b" d="M292.88086,364.3667h5.77148v1.751h-3.62793v2.15673h3.38965v1.73731h-3.38965v3.7959h-2.14355Z" transform="translate(-201.85922 -294.71429)"/><path class="b" d="M379.08008,373.374a10.56577,10.56577,0,0,1-3.15137.53223,5.262,5.262,0,0,1-3.83887-1.2749,4.5662,4.5662,0,0,1-1.33007-3.43164c.01367-3.1377,2.29687-4.93067,5.39257-4.93067a6.50928,6.50928,0,0,1,2.61914.46192l-.44824,1.709a5.227,5.227,0,0,0-2.19922-.40625,3.076,3.076,0,1,0,.89649,6.00928v-1.9751h-1.45606v-1.6665h3.51563Z" transform="translate(-201.85922 -294.71429)"/><path class="d" d="M424.38184,350.53369a19.05751,19.05751,0,0,1,2.88476-.19629,6.07232,6.07232,0,0,1,3.86621,1.00879,4.17717,4.17717,0,0,1,1.59766,3.55762,4.79,4.79,0,0,1-1.56934,3.82422,6.775,6.775,0,0,1-4.35644,1.21875,18.51639,18.51639,0,0,1-2.42285-.14014Zm2.14257,7.7041a3.93377,3.93377,0,0,0,.74219.042c1.9336.01416,3.19434-1.05079,3.19434-3.30567a2.70794,2.70794,0,0,0-2.96973-2.99756,4.44655,4.44655,0,0,0-.9668.084Z" transform="translate(-201.85922 -294.71429)"/><path class="d" d="M443.52344,349.90332v7.90039c0,.77.02832,1.58252.05566,2.04492h-1.89062l-.09864-1.00879h-.02734a2.392,2.392,0,0,1-2.14355,1.16309c-1.625,0-2.92774-1.38672-2.92774-3.51611-.01367-2.311,1.42871-3.64209,3.06836-3.64209a2.08736,2.08736,0,0,1,1.80664.7705h.02832v-3.71191Zm-2.12891,5.99512a3.51456,3.51456,0,0,0-.02832-.37793,1.27858,1.27858,0,0,0-1.24707-1.05078c-.96582,0-1.4707.86865-1.4707,1.94726,0,1.1626.57422,1.89063,1.457,1.89063a1.24608,1.24608,0,0,0,1.23242-1.02246,1.8117,1.8117,0,0,0,.05664-.49024Z" transform="translate(-201.85922 -294.71429)"/><path class="d" d="M446.86621,357.103c.07031.88281.93848,1.30273,1.93359,1.30273a6.02824,6.02824,0,0,0,1.89063-.28027l.28027,1.44287a6.75765,6.75765,0,0,1-2.47949.42041c-2.32519,0-3.65625-1.34473-3.65625-3.48779a3.43126,3.43126,0,0,1,3.46-3.65625c2.21387,0,3.05371,1.72314,3.05371,3.418a5.01212,5.01212,0,0,1-.07031.84033Zm2.50781-1.45655a1.23667,1.23667,0,0,0-1.20507-1.38671,1.39726,1.39726,0,0,0-1.31641,1.38671Z" transform="translate(-201.85922 -294.71429)"/><path class="d" d="M452.61914,355.29639c0-.89649-.02832-1.667-.05566-2.29737h1.84863l.09766.95264h.02832a2.6286,2.6286,0,0,1,2.2832-1.10693c1.499,0,2.84375,1.30273,2.84375,3.48779,0,2.49365-1.583,3.67041-3.10938,3.67041a2.12672,2.12672,0,0,1-1.77929-.78467h-.02832v3.40381h-2.12891Zm2.12891,1.61084a2.16978,2.16978,0,0,0,.042.44824,1.28965,1.28965,0,0,0,1.24707,1.0083c.9248,0,1.4707-.77051,1.4707-1.93311,0-1.09228-.49023-1.91894-1.44238-1.91894a1.33854,1.33854,0,0,0-1.27539,1.07861,1.68308,1.68308,0,0,0-.042.37842Z" transform="translate(-201.85922 -294.71429)"/><path class="d" d="M462.67188,357.103c.07031.88281.93847,1.30273,1.93359,1.30273a6.03257,6.03257,0,0,0,1.89062-.28027l.28028,1.44287a6.75772,6.75772,0,0,1-2.47949.42041c-2.3252,0-3.65625-1.34473-3.65625-3.48779a3.43126,3.43126,0,0,1,3.46-3.65625c2.21386,0,3.05371,1.72314,3.05371,3.418a5.01186,5.01186,0,0,1-.07032.84033Zm2.50781-1.45655a1.23667,1.23667,0,0,0-1.20508-1.38671,1.39728,1.39728,0,0,0-1.31641,1.38671Z" transform="translate(-201.85922 -294.71429)"/><path class="d" d="M468.4248,355.18408c0-.85449-.02832-1.583-.05566-2.18506h1.84863l.09766.93848h.042a2.50815,2.50815,0,0,1,2.11524-1.09277c1.40136,0,2.45117.9248,2.45117,2.94189v4.062h-2.12891v-3.7959c0-.88281-.30762-1.48486-1.07812-1.48486a1.13719,1.13719,0,0,0-1.0791.79834,1.46945,1.46945,0,0,0-.084.53223v3.95019H468.4248Z" transform="translate(-201.85922 -294.71429)"/><path class="d" d="M483.26855,349.90332v7.90039c0,.77.02833,1.58252.05567,2.04492h-1.89063l-.09863-1.00879h-.02734a2.392,2.392,0,0,1-2.14356,1.16309c-1.625,0-2.92773-1.38672-2.92773-3.51611-.01367-2.311,1.42871-3.64209,3.06836-3.64209a2.08737,2.08737,0,0,1,1.80664.7705h.02832v-3.71191Zm-2.1289,5.99512a3.51456,3.51456,0,0,0-.02832-.37793,1.27858,1.27858,0,0,0-1.24707-1.05078c-.96582,0-1.47071.86865-1.47071,1.94726,0,1.1626.57422,1.89063,1.457,1.89063a1.24608,1.24608,0,0,0,1.23242-1.02246,1.8117,1.8117,0,0,0,.05664-.49024Z" transform="translate(-201.85922 -294.71429)"/><path class="d" d="M484.959,357.98584a4.162,4.162,0,0,0,1.835.51807c.64355,0,.91015-.22412.91015-.57422s-.21-.51856-1.00879-.78467c-1.41406-.47607-1.96093-1.24658-1.94726-2.05908,0-1.27442,1.09277-2.24121,2.78808-2.24121a4.58845,4.58845,0,0,1,1.93262.39257l-.37793,1.47071a3.35809,3.35809,0,0,0-1.48437-.39258c-.51856,0-.8125.21045-.8125.56055,0,.32226.26562.49023,1.10644.78418,1.30274.44824,1.84863,1.10693,1.86328,2.11523,0,1.2749-1.00879,2.21338-2.96972,2.21338a4.85872,4.85872,0,0,1-2.21387-.47607Z" transform="translate(-201.85922 -294.71429)"/><path class="d" d="M500.64258,356.34668a3.43731,3.43731,0,0,1-3.61426,3.65625,3.35556,3.35556,0,0,1-3.54394-3.53027,3.41952,3.41952,0,0,1,3.65625-3.62793A3.33056,3.33056,0,0,1,500.64258,356.34668Zm-4.959.07031c0,1.17627.49024,2.05908,1.40137,2.05908.82617,0,1.3584-.82666,1.3584-2.05908,0-1.02295-.39258-2.05957-1.3584-2.05957C496.0625,354.35742,495.68359,355.4082,495.68359,356.417Z" transform="translate(-201.85922 -294.71429)"/><path class="d" d="M501.95508,355.18408c0-.85449-.02832-1.583-.05567-2.18506h1.84864l.09765.93848h.042a2.50811,2.50811,0,0,1,2.11523-1.09277c1.40137,0,2.45117.9248,2.45117,2.94189v4.062h-2.1289v-3.7959c0-.88281-.30762-1.48486-1.07813-1.48486a1.13719,1.13719,0,0,0-1.0791.79834,1.46945,1.46945,0,0,0-.084.53223v3.95019h-2.1289Z" transform="translate(-201.85922 -294.71429)"/><path class="d" d="M450.50293,376.38232a6.08314,6.08314,0,0,1-2.42383.40625c-3.26367,0-4.94433-2.03125-4.94433-4.7207a4.81291,4.81291,0,0,1,5.15527-5.01465,5.56576,5.56576,0,0,1,2.32519.42041l-.43457,1.69483a4.61373,4.61373,0,0,0-1.793-.3501,3.10371,3.10371,0,0,0,.01367,6.20508,5.33709,5.33709,0,0,0,1.77929-.30811Z" transform="translate(-201.85922 -294.71429)"/><path class="d" d="M458.55176,376.64844l-.127-.68653h-.042a2.46728,2.46728,0,0,1-1.96093.84082,2.09961,2.09961,0,0,1-2.2129-2.10156c0-1.77881,1.59668-2.6333,4.02051-2.61914v-.09814c0-.36426-.19629-.88233-1.24707-.88233a3.85007,3.85007,0,0,0-1.89062.51807l-.39258-1.37256a5.65564,5.65564,0,0,1,2.66113-.60254c2.2832,0,3.01172,1.34473,3.01172,2.95557v2.38135a10.57279,10.57279,0,0,0,.09863,1.667Zm-.25293-3.23584c-1.12012-.01416-1.98828.25244-1.98828,1.07861a.76416.76416,0,0,0,.83984.8125,1.1626,1.1626,0,0,0,1.10645-.78418,1.51385,1.51385,0,0,0,.042-.36426Z" transform="translate(-201.85922 -294.71429)"/><path class="d" d="M462.04883,371.98389c0-.8545-.02832-1.583-.05567-2.18506h1.84864l.09765.93847h.042a2.50811,2.50811,0,0,1,2.11523-1.09277c1.40137,0,2.45117.92481,2.45117,2.9419v4.062H466.419v-3.7959c0-.88281-.30762-1.48486-1.07813-1.48486a1.13719,1.13719,0,0,0-1.0791.79834,1.46935,1.46935,0,0,0-.084.53222v3.9502h-2.1289Z" transform="translate(-201.85922 -294.71429)"/><path class="d" d="M476.89258,366.70313v7.90039c0,.77.02832,1.58252.05566,2.04492h-1.89062l-.09864-1.00879h-.02734a2.392,2.392,0,0,1-2.14355,1.16308c-1.625,0-2.92774-1.38671-2.92774-3.51611-.01367-2.311,1.42871-3.64209,3.06836-3.64209a2.08734,2.08734,0,0,1,1.80664.77051h.02832v-3.71191Zm-2.12891,5.99511a3.515,3.515,0,0,0-.02832-.37793,1.27858,1.27858,0,0,0-1.24707-1.05078c-.96582,0-1.4707.86865-1.4707,1.94727,0,1.16259.57422,1.89062,1.457,1.89062A1.24608,1.24608,0,0,0,474.707,374.085a1.81163,1.81163,0,0,0,.05664-.49023Z" transform="translate(-201.85922 -294.71429)"/><path class="d" d="M489.38086,376.21436a10.56575,10.56575,0,0,1-3.15137.53222,5.2595,5.2595,0,0,1-3.83789-1.2749,4.56685,4.56685,0,0,1-1.33105-3.43164c.01367-3.1377,2.29687-4.93066,5.39258-4.93066a6.5189,6.5189,0,0,1,2.62011.46191l-.44824,1.709a5.23377,5.23377,0,0,0-2.19922-.40625,3.076,3.076,0,1,0,.89649,6.00928v-1.9751h-1.457v-1.6665h3.51563Z" transform="translate(-201.85922 -294.71429)"/></svg>