<?xml version="1.0" encoding="UTF-8" standalone="no"?>
<!-- Copyright (c) Microsoft Corporation. All rights reserved. Licensed under the MIT license. -->

<svg xmlns:rdf="http://www.w3.org/1999/02/22-rdf-syntax-ns#" xmlns="http://www.w3.org/2000/svg" xml:space="preserve" height="209.68" viewBox="0 0 440.56293 209.68344" width="440.56" version="1.1" xmlns:cc="http://creativecommons.org/ns#" xmlns:dc="http://purl.org/dc/elements/1.1/"><title>Rush 404</title><metadata><rdf:RDF><cc:Work rdf:about=""><dc:format>image/svg+xml</dc:format><dc:type rdf:resource="http://purl.org/dc/dcmitype/StillImage"/><dc:title>Rush 404</dc:title><dc:creator><cc:Agent><dc:title>https://github.com/pgonzal</dc:title></cc:Agent></dc:creator><dc:rights><cc:Agent><dc:title>Copyright (c) Microsoft Corporation. All rights reserved. Licensed under the MIT license.</dc:title></cc:Agent></dc:rights></cc:Work></rdf:RDF></metadata><defs><clipPath id="a" clipPathUnits="userSpaceOnUse"><path d="m0 792h612v-792h-612v792z"/></clipPath></defs><g transform="matrix(1.25 0 0 -1.25 -145.74 403.32)"><g clip-path="url(#a)"><g transform="translate(239.88 182.54)"><path d="m0 0c-0.266 3.761-1.645 7.354-4.027 10.384-3.142 3.997-7.653 6.53-12.701 7.135-5.047 0.603-10.028-0.794-14.025-3.937s-6.53-7.652-7.134-12.701c-0.605-5.047 0.793-10.028 3.936-14.026 3.142-3.997 7.653-6.53 12.701-7.133 5.047-0.605 10.028 0.793 14.025 3.935 3.996 3.143 6.53 7.654 7.134 12.701 0.147 1.222 0.175 2.441 0.091 3.642m-45.174-3.283c-0.117 1.656-0.076 3.336 0.125 5.021 0.833 6.961 4.327 13.181 9.838 17.514s12.379 6.261 19.34 5.428 13.181-4.327 17.515-9.838c4.333-5.511 6.26-12.38 5.427-19.341s-4.327-13.181-9.838-17.514-12.379-6.26-19.34-5.427-13.182 4.327-17.515 9.837c-3.283 4.177-5.186 9.134-5.552 14.32" fill="#5d5e5e"/></g><g transform="translate(225.72 175.03)"><path d="m0 0c-3.388-2.663-8.293-2.076-10.957 1.312-2.664 3.387-2.077 8.293 1.311 10.957s8.293 2.076 10.957-1.312 2.077-8.293-1.311-10.957" fill="#5d5e5e"/></g><g transform="translate(161.81 275.77)"><path d="m0 0c-0.259 3.667-1.578 7.295-4.016 10.396-6.486 8.25-18.475 9.685-26.726 3.199-8.25-6.488-9.685-18.477-3.198-26.727 3.142-3.997 7.652-6.53 12.7-7.135 5.049-0.603 10.03 0.794 14.026 3.937 5.15 4.049 7.644 10.241 7.214 16.33m-45.148-3.254c-0.593 8.397 2.847 16.935 9.948 22.519 11.377 8.944 27.91 6.965 36.855-4.411 8.944-11.377 6.966-27.91-4.411-36.854-5.511-4.333-12.38-6.261-19.341-5.428s-13.18 4.327-17.513 9.838c-3.362 4.276-5.181 9.28-5.538 14.336" fill="#5d5e5e"/></g><g transform="translate(147.65 268.27)"><path d="m0 0c-3.388-2.664-8.293-2.076-10.957 1.312-2.664 3.387-2.076 8.292 1.311 10.957 3.388 2.663 8.294 2.076 10.958-1.312 2.663-3.388 2.076-8.293-1.312-10.957" fill="#5d5e5e"/></g><g transform="translate(218.19 177.68)"><path d="m0 0 25.095 68.968 6.797-2.811-28.651-67.686-3.241 1.529z" fill="#5d5e5e"/></g><g transform="translate(149.28 281.68)"><path d="m0 0 42.336-41.604-9.894-0.007-39.006 37.392 6.564 4.219z" fill="#5d5e5e"/></g><g transform="translate(168.25 322.55)"><path d="m0 0c26.054-36.644 35.645-60.118 54.762-68.874 9.881-3.275 11.632-29.043 6.656-29.428-4.535-0.351-27.64 3.109-32.701 3.343-6.275 0.29-12.31 26.387-16.379 29.259 3.78 22.854 0.659 45.433-14.359 64.111 0.273 1.216 0.8 1.997 2.021 1.589" fill="#5d5e5e"/></g><g transform="translate(256.46 190.71)"><path d="m0 0c1.324-0.927 2.788-2.805 3.146-2.504-0.264 7.709-3.594 19.804-12.934 28.375-8.678 7.964-13.776 9.891-23.496 8.927-3.708-0.368-10.06-2.816-15.455-4.334 1.239-1.009 1.414-2.45 3.328-1.805 10.745 3.629 19.4-0.319 22.645-1.377 7.974-2.599 21.065-15.932 22.766-27.282" fill="#5d5e5e"/></g><g transform="translate(163.44 302.39)"><path d="m0 0 11.201-30.049 10.943-3.571-3.066 6.15-8.901 30.83-4.128 3.751-4.967-1.639-1.082-5.472z" fill="#5d5e5e"/></g><g transform="translate(138.24 268.26)"><path d="m0 0 0.787 0.909 41.459-35.875-0.787-0.909-41.459 35.875z" fill="#5d5e5e"/></g><g transform="translate(179.62 267.55)"><path d="m0 0c0.67-9.489-5.157-11.682-9.219-13.21-3.294-1.239-3.822-1.702-3.507-3.09 0.692-3.084 5.506-9.747 12.264-16.974 7.048-7.539 12.824-12.094 14.681-12.551 3.338-0.824 10.388 2.703 14.001 6.173 1.648 1.583 1.866 2.49 1.834 2.639-0.415 1.189-4.085 5.597-7.323 9.486-3.578 4.297-7.633 9.167-9.925 12.672-6.412 9.804-10.861 15.662-13.307 18.43 0.261-1.296 0.424-2.483 0.501-3.575m-15.598-16.019c-0.234 3.318 2.863 4.483 5.391 5.434 4.52 1.701 9.645 3.63 6.478 15.648-0.416 1.584-0.14 2.604 0.822 3.032 1.279 0.569 2.652-0.135 6.997-5.671 3.009-3.834 6.835-9.278 11.063-15.744 2.203-3.369 6.204-8.174 9.733-12.412 4.62-5.549 7.261-8.766 7.818-10.363 0.476-1.365-0.123-2.981-1.782-4.803-3.533-3.88-12.265-8.912-17.375-7.651-3.423 0.845-10.79 7.725-16.058 13.36-2.732 2.921-11.739 12.874-12.952 18.274-0.071 0.315-0.115 0.614-0.135 0.896" fill="#5d5e5e"/></g><g transform="translate(194.72 215.97)"><path d="m0 0c-4.945 0.97-27.342 21.697-28.03 26.743-0.689 5.047 15.846 17.441 15.846 17.441l17.184-30.229s-0.054-14.925-5-13.955" fill="#5d5e5e"/></g><g transform="translate(238.26 229.31)"><path d="m0 0-9.74 7.634-0.716 9.122 13.844-8.315-3.388-8.441z" fill="#5d5e5e"/></g><g transform="translate(244.03 241.9)"><path d="m0 0c-3.217 1.771 1.269 7.41 0.041 10.971-1.321 3.824-3.554 6.031-2.216 6.708 1.337 0.675 11.453-9.867 11.196-12.135-0.256-2.267-5.437-7.516-9.021-5.544" fill="#5d5e5e"/></g><g transform="translate(298.91 202.61)"><path d="m0 0v40.369l-21.185-40.369h21.185zm27.851-20.37h-9.919v-25.987h-17.932v25.987h-35.229v21.119l34.056 64.705h19.105v-65.454h9.919v-20.37z" fill="#844132"/></g><g transform="translate(441.19 202.61)"><path d="m0 0v40.369l-21.185-40.369h21.185zm27.852-20.37h-9.919v-25.987h-17.933v25.987h-35.229v21.119l34.057 64.705h19.105v-65.454h9.919v-20.37z" fill="#844132"/></g><g transform="translate(295.33 202.61)"><path d="m0 0v40.369l-21.185-40.369h21.185zm27.851-20.37h-9.919v-25.987h-17.932v25.987h-35.229v21.119l34.056 64.705h19.105v-65.454h9.919v-20.37z" fill="#cb5c3a"/></g><g transform="translate(437.62 202.61)"><path d="m0 0v40.369l-21.185-40.369h21.185zm27.852-20.37h-9.919v-25.987h-17.933v25.987h-35.229v21.119l34.057 64.705h19.105v-65.454h9.919v-20.37z" fill="#cb5c3a"/></g><g transform="translate(377.48 213.27)"><path d="m0 0c0 13.288-0.864 22.75-2.59 28.386-1.727 5.635-4.593 8.453-8.599 8.453-4.007 0-6.874-2.818-8.6-8.453-1.728-5.636-2.59-15.148-2.59-28.533 0-13.042 0.88-22.445 2.639-28.203s4.608-8.636 8.551-8.636c3.94 0 6.791 2.878 8.55 8.636s2.639 15.208 2.639 28.35m18.909-1.029c0-9.084-0.555-17.213-1.662-24.388s-2.833-13.058-5.179-17.647c-2.411-4.687-5.506-8.226-9.284-10.618-3.778-2.391-8.436-3.587-13.973-3.587-5.441 0-10.082 1.208-13.926 3.623-3.844 2.417-6.955 5.992-9.332 10.726-2.411 4.735-4.154 10.617-5.229 17.649-1.075 7.029-1.612 15.085-1.612 24.169 0 9.373 0.554 17.514 1.661 24.423s2.866 12.756 5.277 17.539c2.411 4.735 5.538 8.286 9.381 10.654 3.844 2.368 8.437 3.55 13.78 3.55 5.57 0 10.244-1.219 14.022-3.659 3.779-2.439 6.873-6.076 9.284-10.907 2.377-4.734 4.105-10.569 5.18-17.503 1.074-6.933 1.612-14.941 1.612-24.024" fill="#844132"/></g><g transform="translate(373.9 212.24)"><path d="m0 0c0 13.05-0.864 22.341-2.59 27.875-1.727 5.533-4.593 8.302-8.599 8.302-4.007 0-6.874-2.769-8.6-8.302-1.728-5.534-2.59-14.875-2.59-28.021 0-12.807 0.88-22.04 2.639-27.694 1.759-5.655 4.608-8.482 8.551-8.482 3.94 0 6.791 2.827 8.55 8.482 1.759 5.654 2.639 14.935 2.639 27.84m18.909 0c0-9.084-0.555-17.213-1.662-24.388-1.107-7.174-2.833-13.057-5.179-17.647-2.411-4.687-5.506-8.226-9.284-10.617-3.778-2.392-8.436-3.587-13.973-3.587-5.441 0-10.082 1.208-13.926 3.623-3.844 2.416-6.955 5.991-9.332 10.725-2.411 4.736-4.154 10.618-5.229 17.649-1.075 7.029-1.612 15.086-1.612 24.17 0 9.372 0.554 17.513 1.661 24.423 1.107 6.909 2.866 12.755 5.277 17.539 2.411 4.734 5.538 8.285 9.381 10.653 3.844 2.368 8.437 3.551 13.78 3.551 5.57 0 10.244-1.22 14.022-3.659 3.779-2.44 6.873-6.077 9.284-10.908 2.377-4.734 4.105-10.569 5.18-17.503 1.074-6.932 1.612-14.941 1.612-24.024" fill="#cb5c3a"/></g></g></g></svg>
