<?xml version="1.0" encoding="UTF-8" standalone="no"?>
<!-- Copyright (c) Microsoft Corporation. All rights reserved. Licensed under the MIT license. -->

<svg xmlns:rdf="http://www.w3.org/1999/02/22-rdf-syntax-ns#" xmlns="http://www.w3.org/2000/svg" xml:space="preserve" height="61.241" width="197.66" version="1.1" y="0px" x="0px" xmlns:cc="http://creativecommons.org/ns#" xmlns:dc="http://purl.org/dc/elements/1.1/" viewBox="0 0 197.66165 61.240963"><title>Rush</title><metadata><rdf:RDF><cc:Work rdf:about=""><dc:format>image/svg+xml</dc:format><dc:type rdf:resource="http://purl.org/dc/dcmitype/StillImage"/><dc:title>Rush</dc:title><dc:creator><cc:Agent><dc:title>https://github.com/pgonzal</dc:title></cc:Agent></dc:creator><dc:rights><cc:Agent><dc:title>Copyright (c) Microsoft Corporation. All rights reserved. Licensed under the MIT license.</dc:title></cc:Agent></dc:rights></cc:Work></rdf:RDF></metadata><style type="text/css">
	.st0{fill:#C95228;}
	.st1{fill:#555555;}
</style><g transform="translate(-128.7 -384.29)"><g fill="#c95228"><path class="st0" d="m219.61 408.88c-0.19904-0.32574-0.53-0.54855-0.90662-0.61008-1.844-0.30099-3.182-0.4472-4.0906-0.4472-3.7986 0-7.1775 1.118-10.089 3.3305l0.23271-1.1451c0.0783-0.38492-0.0207-0.78534-0.26945-1.0894-0.24876-0.30447-0.62112-0.48126-1.0142-0.48126h-6.7622c-0.62228 0-1.1587 0.43793-1.2832 1.0476l-6.7266 32.904c-0.0789 0.38531 0.0197 0.78571 0.26848 1.0906 0.24876 0.30484 0.62131 0.48166 1.0148 0.48166h6.7622c0.6217 0 1.1577-0.43716 1.283-1.0461l3.8795-18.864c0.49094-2.397 1.6927-4.4072 3.6735-6.145 1.9537-1.7142 3.918-2.5471 6.0051-2.5471 1.6413 0 3.0276 0.40622 4.2383 1.2422 0.34122 0.23599 0.77353 0.29596 1.1654 0.16251 0.39227-0.13309 0.69829-0.44412 0.82558-0.83835l1.922-5.9601c0.11701-0.36328 0.07-0.75943-0.12904-1.0848z"/><path class="st0" d="m258.02 408.92c-0.24875-0.30716-0.62286-0.4855-1.0178-0.4855h-7.1182c-0.61763 0-1.1515 0.43173-1.2807 1.0356l-4.3434 20.283c-0.40816 1.9533-1.6142 3.6099-3.6872 5.0633-2.1015 1.4732-4.3091 2.2202-6.5618 2.2202-4.3027 0-4.883-1.9312-4.883-3.8207 0-0.66464 0.0865-1.4113 0.2563-2.2171l4.4488-20.983c0.082-0.38647-0.0149-0.78922-0.26366-1.096-0.24857-0.30716-0.62267-0.4855-1.0176-0.4855h-7.1182c-0.62228 0-1.1587 0.43793-1.2832 1.0476l-4.4126 21.595c-0.25417 1.2287-0.383 2.3928-0.383 3.4605 0 3.1561 0.98186 5.6525 2.9181 7.4193 1.9013 1.7355 4.5333 2.6156 7.823 2.6156 4.8596 0 8.7648-0.94974 11.668-2.8303l-0.13539 0.63095c-0.0832 0.38687 0.0129 0.79037 0.2617 1.0983 0.24876 0.30756 0.62306 0.48669 1.0188 0.48669h7.118c0.6188 0 1.1531-0.43292 1.2813-1.0384l6.9758-32.904c0.082-0.38647-0.0147-0.78921-0.26345-1.096z"/><path class="st0" d="m287.65 410.18c-4.049-1.5676-7.5849-2.3622-10.509-2.3622-4.2563 0-7.9153 1.0109-10.875 3.004-3.1232 2.1034-4.707 4.9446-4.707 8.4446 0 1.568 0.46347 3.0578 1.3765 4.4281 0.89713 1.3467 2.2372 2.4647 3.9959 3.3286l5.0014 2.3881c2.0643 1.0221 3.0114 1.7161 3.442 2.1181 0.60043 0.56094 0.66968 1.0376 0.66968 1.347 0 1.2589-0.48166 2.1893-1.5158 2.9282-1.1432 0.81665-2.6473 1.2306-4.4702 1.2306-1.0678 0-2.4063-0.3064-3.9793-0.91147-1.5819-0.60739-2.7928-1.2689-3.5998-1.9653-0.28745-0.24838-0.67084-0.35941-1.0457-0.30447-0.3764 0.0553-0.7103 0.27118-0.91455 0.59229l-3.5236 5.5303c-0.19537 0.3064-0.25455 0.68048-0.16324 1.0325 0.0913 0.35205 0.32458 0.64993 0.6445 0.82327 3.3576 1.8167 7.1957 2.7382 11.407 2.7382 4.8064 0 8.8477-1.1122 12.011-3.3058 3.3139-2.2976 4.9944-5.4715 4.9944-9.433 0-1.59-0.45844-3.0764-1.363-4.4188-0.89093-1.3215-2.2318-2.4052-3.982-3.2191l-4.9859-2.3359c-2.0833-0.96988-3.0392-1.6504-3.4748-2.0512-0.46347-0.42554-0.67935-0.89017-0.67935-1.462 0-0.55902 0.14896-1.2914 1.3115-2.0001 1.0794-0.65768 2.4005-0.99115 3.9271-0.99115 2.399 0 4.5894 0.81165 6.6959 2.4814 0.3006 0.23911 0.69174 0.33466 1.0678 0.25842 0.3764-0.0743 0.70139-0.31024 0.88901-0.64529l3.0253-5.4072c0.1853-0.33115 0.2178-0.72614 0.089-1.0832-0.12844-0.35707-0.40545-0.64064-0.75942-0.7776z"/><path class="st0" d="m323.13 410.64c-2.1015-1.8716-5.0351-2.8206-8.7188-2.8206-2.2817 0-4.6088 0.43597-6.9172 1.2964-0.9722 0.36209-1.8585 0.76755-2.6551 1.214l2.5324-13.837c0.07-0.38263-0.0333-0.77606-0.28201-1.0747-0.24915-0.29865-0.61746-0.47119-1.0063-0.47119h-6.7264c-0.62442 0-1.1618 0.44064-1.2844 1.0527l-9.2891 46.391c-0.077 0.38492 0.0224 0.78418 0.27118 1.0875 0.24915 0.30371 0.62091 0.47974 1.0132 0.47974h6.9044c0.62207 0 1.1579-0.43756 1.2832-1.0465l4.9356-24.054c0.96796-0.88593 2.2237-1.684 3.7391-2.3769 1.6345-0.74664 3.194-1.1254 4.6343-1.1254 4.4908 0 5.0962 2.2109 5.0962 4.3735 0 0.58337-0.075 1.2507-0.22244 1.98l-4.2354 20.676c-0.0789 0.38531 0.0197 0.78574 0.26846 1.0906 0.24878 0.30487 0.62131 0.48206 1.0148 0.48206h6.976c0.62207 0 1.1583-0.43756 1.2832-1.0473l4.2362-20.683c0.25299-1.2666 0.38144-2.4794 0.38144-3.6052 0.00001-3.3863-1.0878-6.0723-3.2327-7.9826z"/></g><path fill="#555" class="st1" d="m181.54 404.74c-1.4774-1.7905-3.5636-2.8984-5.8743-3.1197-2.3109-0.22159-4.5693 0.47058-6.3599 1.9479-0.93996 0.77567-1.6896 1.7202-2.2238 2.7759l-2.0985-0.83041c0.56766-0.81775 1.3117-1.6734 2.1635-2.4666 1.7654-1.6442 3.7044-2.7513 5.3199-3.0376 0.10751-0.0191 0.2025-0.0814 0.26266-0.17255 0.1077-0.16306 0.27739-0.3494 0.42711-0.51379 0.32706-0.35913 0.63597-0.69836 0.3399-1.0329-0.0758-0.0856-0.18445-0.13422-0.29802-0.13422-0.008 0-0.0162 0.00024-0.0242 0.00073-2.805 0.17093-6.788 1.4868-9.5546 4.6674-0.50667 0.58249-0.93849 1.1205-1.3037 1.6339l-8.1747-3.2349c-0.46246-0.59406-1.1122-1.0463-1.4959-1.0805-0.0619-0.006-0.14323 0.0147-0.23758 0.0529 0.20097-0.50427 0.39822-1.1044 0.52858-1.8257 0.24306-1.345 0.2751-2.4728 0.66071-2.5615 0.71281-0.16382 0.63538 0.20041 0.77815-0.3208 0.21286-0.7771-0.80392-1.6975-0.50729-2.3661 0.21892-0.49341 0.43387-0.84995 0.62779-1.1166 0.72115 0.13745 1.355 0.2522 1.9738 0.65698 0.65089-0.60294 1.1947-1.5005 1.0734-2.1761-0.12491-0.69592-1.4707-0.66257-1.1931-1.9148 0.18234-0.82269 1.3451-1.0728 2.0818-1.0576 0.40866 0.008 0.2755-1.7617-0.21243-2.0423-0.61571-0.35403-6.0172-2.2286-7.8385-0.38251-1.0184 1.0322-1.5072 3.7805-0.34424 4.7762 0.13235 0.11331 0.26128 0.2179 0.38867 0.31863-0.16603 0.0982-0.34726 0.18094-0.63434 0.20981-0.63254 0.0637-0.98384-0.21277-1.257 0.0111-0.27704 0.22693 0.19865 0.5079-0.0153 0.87772-0.39099 0.67584-0.75085-0.24908-2.0348 1.0216-0.59674 0.59061-0.7459 1.7214-1.3355 3.1382-0.94731 2.2765-1.7781 1.8386-2.8688 5.3448-0.26721 0.85901 0.873 0.4368 2.9881 1.4726-1.0312 1.9524-1.6992 3.8017-1.3838 4.9585 0.38841 1.4241 3.1463 3.6442 4.5774 4.9092 0.0963 0.0851 0.19881 0.19354 0.30711 0.31949-3.9383 3.8331-10.8 6.6501-19.955 13.49-0.43121 0.69656 0.47667 1.8513 0.88127 1.9322 5.3863-4.5446 11.865-6.0055 18.567-5.5249-0.88405 0.5527-1.6588 1.0164-2.2968 1.3933l0.33736-0.86234-2.3006 0.71167-10.634 3.3443-1.269 1.4643 0.61038 1.7117 1.9092 0.3309 10.344-4.1365 0.0983-0.25134c3.3442-0.94638 3.9635-0.0615 4.335 0.95483l-1.64 1.7496c-2.8423-1.1093-6.1878-0.69159-8.7035 1.3842-3.696 3.0499-4.2218 8.5382-1.1718 12.234 1.7161 2.0797 4.2041 3.1556 6.7106 3.1556 1.948-0.00015 3.9073-0.65002 5.5237-1.9839 1.7905-1.4773 2.8984-3.5636 3.1197-5.8744 0.19412-2.0266-0.31441-4.0129-1.439-5.6786l2.7446-3.3274c0.12463 0.0374 0.24063 0.0497 0.34608 0.0327 0.3907-0.0627 0.97142-0.50015 1.6351-1.1541 0.12781 0.24203 0.38635 0.39584 0.66833 0.36923 0.37692-0.0356 0.65273-0.37982 0.61601-0.76889-0.0128-0.13531-0.0634-0.25684-0.13756-0.35812 1.2437 0.19318 2.2538 0.23398 2.3373-0.0485 0.34293-1.159-0.30145-1.6593-1.0809-1.9992 0.43462-0.57227 0.85538-1.1588 1.2383-1.7243 1.3778-1.2908 2.3971-2.49 2.56-3.2241 0.33905-1.5284-0.93839-3.93-2.1612-5.3116 0.089-0.91818 0.19655-1.9713 0.29933-3.0206 0.16997 0.79907 0.51756 1.7977 0.88484 2.8478 0.21385 0.61145 0.435 1.2437 0.61755 1.832 0.044 0.14191 0.16342 0.24747 0.30965 0.2738 0.0235 0.004 0.0471 0.006 0.0706 0.006 0.12204 0 0.23897-0.0562 0.31512-0.15494 0.0696-0.0902 0.15485-0.16385 0.24509-0.24179 0.25484-0.22012 0.63994-0.55273 0.38142-1.256-1.1139-3.0304-0.26976-5.6125 0.13593-6.8534 0.0502-0.15372 0.0936-0.28644 0.12849-0.40381 0.0177-0.0595 0.039-0.12091 0.0604-0.18234l2.3914 0.85257c-0.10149 0.41248-0.17371 0.83517-0.21497 1.2658-0.22125 2.3108 0.4706 4.5694 1.948 6.3599 1.4775 1.7904 3.5636 2.8983 5.8743 3.1197 0.28249 0.027 0.56419 0.0405 0.84431 0.0405 2.0116 0 3.9441-0.69153 5.5156-1.9884 1.7904-1.4774 2.8984-3.5637 3.1198-5.8744 0.22128-2.3108-0.47059-4.5694-1.948-6.3599zm-20.313 1.617c-0.00023-0.008-0.00038-0.0169-0.00063-0.025l0.009 0.003c-0.003 0.007-0.006 0.0144-0.009 0.0217zm-6.5004-0.37436c-0.9816 0.34424-1.8666 0.81552-2.4724 1.4149-0.83498-0.81012-1.4878-1.4048-1.6649-1.725 0.0688-0.005 0.12968-0.0247 0.18207-0.063 0.2807-0.20499 0.0311-0.7041 0.38936-0.97992 0.58603-0.45111 1.6243 0.59885 2.2997 0.18341 0.30666-0.18866 0.47968-0.64377 0.47826-1.0792l1.7188 0.61276-0.93085 1.636zm-7.1625 18.346c0.60823-0.36636 1.2989-0.79092 2.0538-1.2717 0.38501 0.58554 0.90532 1.3528 1.4788 2.1328l-0.71976 0.76785c-0.45903-0.87752-1.2209-1.5883-2.8128-1.6289zm3.8757 4.5644c0.0752-0.0116 0.15268-0.0262 0.23412-0.0465 0.467-0.11649 1.1081-0.41437 1.8476-0.83609 0.0356 0.0314 0.0709 0.062 0.10593 0.0916l-2.4974 3.0278c-0.28516-0.32703-0.58966-0.62769-0.9109-0.90167l1.2207-1.3351zm-1.9952 3.9371c0.0476 0.0576 0.0926 0.11676 0.13797 0.17572l-2.5319 3.0696c-0.0967-0.31204-0.25343-0.61111-0.47424-0.87869-0.14511-0.17584-0.31013-0.32483-0.48695-0.45197l2.517-2.7529c0.29966 0.24872 0.58135 0.52707 0.83811 0.83823zm1.4125 4.612c-0.16051 1.6758-0.964 3.1888-2.2624 4.2602-2.6805 2.2118-6.6605 1.8305-8.8721-0.84982-2.2118-2.6803-1.8305-6.6604 0.84982-8.8723 1.1723-0.96741 2.5926-1.4385 4.0056-1.4385 0.45816 0 0.91547 0.0499 1.3632 0.14822l-3.8167 4.0718 0.3875 0.53946c-0.69374 0.93188-0.69382 2.2484 0.0787 3.1846 0.90822 1.1006 2.5367 1.2566 3.6373 0.34842 0.33009-0.2724 0.57336-0.61023 0.7303-0.97852l3.2241-3.9088c0.55408 1.0666 0.79197 2.2705 0.67467 3.4953zm30.254-26.57c-0.16049 1.6757-0.96393 3.1886-2.2624 4.2601-1.2985 1.0714-2.9356 1.5728-4.6121 1.4126-1.6757-0.16058-3.1886-0.96399-4.26-2.2624s-1.5731-2.9364-1.4126-4.6121c0.0222-0.23193 0.058-0.46036 0.10443-0.6853l3.5858 1.2784c-0.002 0.58209 0.19109 1.1682 0.59053 1.6523 0.9082 1.1006 2.5367 1.2566 3.6373 0.34839 1.1006-0.9082 1.2566-2.5367 0.3484-3.6373-0.90822-1.1006-2.5367-1.2566-3.6373-0.34839-0.12869 0.10617-0.24319 0.22299-0.34586 0.34686l-3.5306-1.3971c0.37878-0.68686 0.88654-1.3036 1.5098-1.8179 1.1397-0.94049 2.541-1.442 3.9998-1.442 0.20311 0 0.40747 0.01 0.61232 0.0294 1.6757 0.16049 3.1886 0.96399 4.26 2.2624s1.5731 2.9364 1.4126 4.6121z"/></g></svg>
