<svg xmlns="http://www.w3.org/2000/svg" height="38" width="100" version="1.1" viewBox="1 1 101 39"><path d="M46.983 15.597c-.51 0-1.02-.378-1.528-1.13-.334-.525-.5-.92-.5-1.192 0-.467.308-.896.926-1.293a3.647 3.647 0 0 1 2.015-.596h12.018c.764 0 1.146.35 1.146 1.045a3.89 3.89 0 0 1-.647 2.18c-.432.66-.9.988-1.41.988h-3.91v13.13c0 .794-.215 1.52-.645 2.177-.43.66-.902.99-1.41.99-.51 0-1.02-.378-1.53-1.134-.332-.522-.498-.92-.498-1.19V15.597h-4.027zm18.66 4.358c-.94 0-1.745.266-2.41.798-.666.533-1.077 1.245-1.234 2.135h6.933a2.893 2.893 0 0 0-1-2.09c-.627-.563-1.39-.843-2.29-.843zM62 25.822c.214.91.684 1.64 1.41 2.194.724.55 1.595.826 2.614.826.863 0 1.89-.29 3.085-.87.55-.272 1.057-.407 1.527-.407.627 0 .94.28.94.842 0 .505-.112.987-.337 1.452-.225.464-.513.802-.866 1.014a8.536 8.536 0 0 1-2.22.945 9.167 9.167 0 0 1-2.423.333c-1.41 0-2.7-.368-3.862-1.104a7.832 7.832 0 0 1-2.72-2.848 7.533 7.533 0 0 1-.97-3.717c0-1.472.354-2.803 1.06-3.994.705-1.19 1.625-2.11 2.762-2.76a7.395 7.395 0 0 1 3.73-.972c1.313 0 2.493.304 3.54.914 1.05.61 1.857 1.42 2.426 2.427a6.622 6.622 0 0 1 .852 3.31 2.98 2.98 0 0 1-.485 1.67c-.323.494-.68.74-1.072.74H62zm15.984 6.07c-.882 0-1.646-.343-2.292-1.03a3.416 3.416 0 0 1-.97-2.424V13.012c0-.425.3-.832.897-1.22a3.474 3.474 0 0 1 1.922-.58c.725 0 1.088.33 1.088.987v14.986c0 .252.054.46.162.625.107.165.3.306.573.42.313.138.47.41.47.815 0 .716-.196 1.37-.587 1.96-.393.592-.814.887-1.264.887m5.936 0c-.45 0-.94-.37-1.47-1.103-.313-.506-.47-.883-.47-1.135V18.82c0-.424.3-.83.896-1.22a3.477 3.477 0 0 1 1.925-.578c.727 0 1.09.328 1.09.987v10.83c0 .523-.104 1.027-.31 1.512-.205.483-.46.86-.763 1.132-.304.27-.602.407-.897.407m0-16.73c-.51 0-1.04-.396-1.587-1.19-.373-.56-.558-.997-.558-1.307 0-.484.333-.94.998-1.366a3.918 3.918 0 0 1 2.146-.638c.82 0 1.232.367 1.232 1.103a4.25 4.25 0 0 1-.338 1.67c-.225.533-.51.954-.852 1.263-.344.31-.69.465-1.044.465m11.696 13.13a4.54 4.54 0 0 0 2.47-.725V20.97c-.726-.405-1.54-.61-2.44-.61-1.116 0-2.052.374-2.806 1.12-.754.745-1.13 1.68-1.13 2.802 0 1.124.376 2.073 1.13 2.846.754.776 1.68 1.163 2.776 1.163m-.263 3.604c-1.41 0-2.69-.35-3.833-1.046A7.435 7.435 0 0 1 88.84 28.1a7.428 7.428 0 0 1-.954-3.7c0-1.435.363-2.74 1.087-3.922.725-1.182 1.666-2.097 2.822-2.746a7.5 7.5 0 0 1 3.73-.973c1.138 0 2.245.31 3.323.93.685-.447 1.37-.67 2.056-.67.725 0 1.087.33 1.087.988V28.84a3.83 3.83 0 0 1-.306 1.51c-.206.485-.46.864-.764 1.134-.305.27-.603.407-.897.407-.45 0-.94-.367-1.47-1.103a3.922 3.922 0 0 1-.41-.814 3.6 3.6 0 0 1-.633 1.103c-.264.31-.543.513-.837.61-.41.134-.852.203-1.322.203M26.95 30.034c5.106-2.928 8.758-6.6 10.443-10.516a37.85 37.85 0 0 0 1.09-9.05c0-.448-.02-.876-.062-1.286C38.12 13.918 31.93 19.87 23.74 23.76c-9.876 4.69-17.287 5.953-20.594 2.375 1.148 2.242 2.686 4.505 4.435 6.534 4.07 3.572 10.774 2.292 19.37-2.636" fill="#9909E3"></path><path d="M22.59 20.406c9.317-4.443 15.806-10.763 14.675-14.953-1.86-3.172-5.618-4.38-9.65-4.38C15.665 1.073 1 8.86 1 18.793c0 1.276.285 2.704.795 4.2 2.726 3.574 11.058 2.055 20.794-2.586M21.8 34.485c-6.552 2.626-10.303 1.79-12.376.15l-.03-.023C12.606 37.775 16.262 40 19.468 40c5.616 0 13.305-6.735 16.943-17.177-2.05 3.77-6.45 8.402-14.607 11.662" fill="#9909E3"></path></svg>