<?xml version="1.0" encoding="UTF-8" standalone="no"?>
<svg xmlns:rdf="http://www.w3.org/1999/02/22-rdf-syntax-ns#" xmlns="http://www.w3.org/2000/svg" xml:space="preserve" height="232.87" viewBox="0 0 156.84813 232.86775" width="156.85" version="1.1" xmlns:cc="http://creativecommons.org/ns#" xmlns:dc="http://purl.org/dc/elements/1.1/"><metadata><rdf:RDF><cc:Work rdf:about=""><dc:format>image/svg+xml</dc:format><dc:type rdf:resource="http://purl.org/dc/dcmitype/StillImage"/><dc:title/><dc:creator><cc:Agent><dc:title>https://github.com/pgonzal</dc:title></cc:Agent></dc:creator><dc:rights><cc:Agent><dc:title>Copyright (c) Microsoft Corporation</dc:title></cc:Agent></dc:rights></cc:Work></rdf:RDF></metadata><defs><clipPath id="a" clipPathUnits="userSpaceOnUse"><path d="m0 792h612v-792h-612v792z"/></clipPath></defs><g transform="matrix(1.25 0 0 -1.25 -432.74 577.52)"><g clip-path="url(#a)"><g transform="translate(395.75 414.1)"><path d="m0 0h-32.652c-3.216 0-5.848 2.632-5.848 5.848v32.652" stroke="#b2b3b3" stroke-miterlimit="10" stroke-width="8" fill="none"/></g><g transform="translate(427.25 378.17)"><path d="m0 0h-19.506c-3.217 0-5.848 2.631-5.848 5.848v32.652" stroke="#b2b3b3" stroke-miterlimit="10" stroke-width="8" fill="none"/></g><g transform="translate(426.75 315.83)"><path d="m0 0h-19.006c-3.217 0-5.848 2.632-5.848 5.849v32.651" stroke="#b2b3b3" stroke-miterlimit="10" stroke-width="8" fill="none"/></g><g transform="translate(395.75 351.17)"><path d="m0 0h-32.652c-3.216 0-5.848 2.631-5.848 5.848v100.48" stroke="#b2b3b3" stroke-miterlimit="10" stroke-width="8" fill="none"/></g><g transform="translate(395.5 288.79)"><path d="m0 0h-32.652c-3.216 0-5.848 2.631-5.848 5.848v159.48" stroke="#b2b3b3" stroke-miterlimit="10" stroke-width="8" fill="none"/></g><g transform="translate(413.17 407.48)"><path d="m0 0v13.026l-11.281 6.514-11.281-6.514v-13.026l11.281-6.514 11.281 6.514z" fill="#676868"/></g><g transform="translate(413.17 344.86)"><path d="m0 0v13.026l-11.281 6.513-11.281-6.513v-13.026l11.281-6.514 11.281 6.514z" fill="#676868"/></g><g transform="translate(413.17 282.24)"><path d="m0 0v13.026l-11.281 6.514-11.281-6.514v-13.026l11.281-6.514 11.281 6.514z" fill="#5d82c1"/></g><g transform="translate(458.25 371.86)"><path d="m0 0v13.026l-11.281 6.513-11.281-6.513v-13.026l11.281-6.514 11.281 6.514z" fill="#f26b6c"/></g><g transform="translate(458.25 309.24)"><path d="m0 0v13.026l-11.281 6.514-11.281-6.514v-13.026l11.281-6.514 11.281 6.514z" fill="#f26b6c"/></g><g transform="translate(368.75 442.48)"><path d="m0 0v13.026l-11.281 6.514-11.281-6.514v-13.026l11.281-6.514 11.281 6.514z" fill="#676868"/></g><g transform="translate(465.52 315.4)"><path d="m0 0h6.146" stroke="#f26b6c" stroke-miterlimit="10" stroke-width="4" fill="none"/></g><g transform="translate(461.51 328.09)"><path d="m0 0 4.835 3.792" stroke="#f26b6c" stroke-miterlimit="10" stroke-width="4" fill="none"/></g><g transform="translate(450.46 333.94)"><path d="m0 0 0.589 5.991" stroke="#f26b6c" stroke-miterlimit="10" stroke-width="4" fill="none"/></g><g transform="translate(436.8 331.35)"><path d="m0 0-3.633 5.521" stroke="#f26b6c" stroke-miterlimit="10" stroke-width="4" fill="none"/></g><g transform="translate(461.51 302.13)"><path d="m0 0 4.835-3.791" stroke="#f26b6c" stroke-miterlimit="10" stroke-width="4" fill="none"/></g><g transform="translate(450.46 296.28)"><path d="m0 0 1.35-5.991" stroke="#f26b6c" stroke-miterlimit="10" stroke-width="4" fill="none"/></g><g transform="translate(436.8 298.87)"><path d="m0 0-3.633-5.521" stroke="#f26b6c" stroke-miterlimit="10" stroke-width="4" fill="none"/></g><g transform="translate(465.52 378.4)"><path d="m0 0h6.146" stroke="#f26b6c" stroke-miterlimit="10" stroke-width="4" fill="none"/></g><g transform="translate(461.51 391.09)"><path d="m0 0 4.835 3.792" stroke="#f26b6c" stroke-miterlimit="10" stroke-width="4" fill="none"/></g><g transform="translate(450.46 396.94)"><path d="m0 0 0.589 5.992" stroke="#f26b6c" stroke-miterlimit="10" stroke-width="4" fill="none"/></g><g transform="translate(436.8 394.35)"><path d="m0 0-3.633 5.52" stroke="#f26b6c" stroke-miterlimit="10" stroke-width="4" fill="none"/></g><g transform="translate(461.51 365.13)"><path d="m0 0 4.835-3.791" stroke="#f26b6c" stroke-miterlimit="10" stroke-width="4" fill="none"/></g><g transform="translate(450.46 359.28)"><path d="m0 0 1.35-5.991" stroke="#f26b6c" stroke-miterlimit="10" stroke-width="4" fill="none"/></g><g transform="translate(436.8 361.87)"><path d="m0 0-3.633-5.521" stroke="#f26b6c" stroke-miterlimit="10" stroke-width="4" fill="none"/></g></g></g></svg>
