<?xml version="1.0" encoding="UTF-8" standalone="no"?>
<svg xmlns:rdf="http://www.w3.org/1999/02/22-rdf-syntax-ns#" xmlns="http://www.w3.org/2000/svg" xml:space="preserve" height="181.19" viewBox="0 0 176.14313 181.19376" width="176.14" version="1.1" xmlns:cc="http://creativecommons.org/ns#" xmlns:dc="http://purl.org/dc/elements/1.1/"><metadata><rdf:RDF><cc:Work rdf:about=""><dc:format>image/svg+xml</dc:format><dc:type rdf:resource="http://purl.org/dc/dcmitype/StillImage"/><dc:title/><dc:creator><cc:Agent><dc:title>https://github.com/pgonzal</dc:title></cc:Agent></dc:creator><dc:rights><cc:Agent><dc:title>Copyright (c) Microsoft Corporation</dc:title></cc:Agent></dc:rights></cc:Work></rdf:RDF></metadata><defs><clipPath id="a" clipPathUnits="userSpaceOnUse"><path d="m0 792h612v-792h-612v792z"/></clipPath></defs><g transform="matrix(1.25 0 0 -1.25 -306.85 728.64)"><g clip-path="url(#a)"><g transform="translate(270.64 489.14)"><path d="m0 0c0 6.283-5.112 11.395-11.395 11.395s-11.395-5.112-11.395-11.395c0-2.596 0.877-5.055 2.422-7.025-1.412-1.898-2.212-4.224-2.212-6.66v-6.315c0-6.167 5.018-11.185 11.185-11.185s11.185 5.018 11.185 11.185v6.315c0 2.436-0.8 4.762-2.212 6.66 1.545 1.97 2.422 4.429 2.422 7.025" fill="#4a8449"/></g><g transform="translate(259.25,461.46)"><path d="m0 0c-4.227 0-7.685 3.458-7.685 7.685v6.315c0 4.227 3.458 7.685 7.685 7.685s7.685-3.458 7.685-7.685v-6.315c0-4.227-3.458-7.685-7.685-7.685" fill="#8aca84"/></g><g transform="translate(267.14 489.14)"><path d="m0 0c0-4.36-3.535-7.895-7.895-7.895s-7.895 3.535-7.895 7.895 3.535 7.895 7.895 7.895 7.895-3.535 7.895-7.895" fill="#c8e4c5"/></g><g transform="translate(298.27,516.77)"><path d="m0 0c0 6.283-5.112 11.395-11.395 11.395s-11.395-5.112-11.395-11.395c0-2.596 0.877-5.055 2.422-7.025-1.412-1.898-2.212-4.224-2.212-6.66v-6.315c0-6.167 5.018-11.185 11.185-11.185s11.185 5.018 11.185 11.185v6.315c0 2.436-0.8 4.762-2.212 6.66 1.545 1.97 2.422 4.429 2.422 7.025" fill="#4a8449"/></g><g transform="translate(286.88 489.08)"><path d="m0 0c-4.227 0-7.685 3.458-7.685 7.685v6.315c0 4.227 3.458 7.685 7.685 7.685s7.685-3.458 7.685-7.685v-6.315c0-4.227-3.458-7.685-7.685-7.685" fill="#8aca84"/></g><g transform="translate(294.77,516.77)"><path d="m0 0c0-4.36-3.535-7.895-7.895-7.895s-7.895 3.535-7.895 7.895 3.535 7.895 7.895 7.895 7.895-3.535 7.895-7.895" fill="#c8e4c5"/></g><g transform="translate(325.89 544.4)"><path d="m0 0c0 6.283-5.111 11.395-11.395 11.395-6.283 0-11.395-5.112-11.395-11.395 0-2.596 0.878-5.055 2.422-7.025-1.411-1.898-2.211-4.224-2.211-6.66v-6.315c0-6.167 5.017-11.185 11.184-11.185s11.185 5.018 11.185 11.185v6.315c0 2.436-0.8 4.762-2.212 6.66 1.545 1.97 2.422 4.429 2.422 7.025" fill="#4a8449"/></g><g transform="translate(314.5,516.71)"><path d="m0 0c-4.227 0-7.685 3.458-7.685 7.685v6.315c0 4.227 3.458 7.685 7.685 7.685s7.685-3.458 7.685-7.685v-6.315c0-4.227-3.458-7.685-7.685-7.685" fill="#8aca84"/></g><g transform="translate(322.39 544.4)"><path d="m0 0c0-4.36-3.534-7.895-7.895-7.895-4.36 0-7.895 3.535-7.895 7.895s3.535 7.895 7.895 7.895c4.361 0 7.895-3.535 7.895-7.895" fill="#c8e4c5"/></g><g transform="translate(353.02 571.52)"><path d="m0 0c0 6.283-5.111 11.395-11.395 11.395-6.283 0-11.394-5.112-11.394-11.395 0-2.596 0.877-5.055 2.422-7.025-1.412-1.898-2.212-4.224-2.212-6.66v-6.315c0-6.167 5.017-11.185 11.184-11.185s11.185 5.018 11.185 11.185v6.315c0 2.436-0.8 4.762-2.212 6.66 1.545 1.97 2.422 4.429 2.422 7.025" fill="#4a8449"/></g><g transform="translate(341.62 543.84)"><path d="m0 0c-4.227 0-7.685 3.458-7.685 7.685v6.315c0 4.227 3.458 7.685 7.685 7.685s7.685-3.458 7.685-7.685v-6.315c0-4.227-3.458-7.685-7.685-7.685" fill="#8aca84"/></g><g transform="translate(349.52 571.52)"><path d="m0 0c0-4.36-3.534-7.895-7.895-7.895-4.36 0-7.894 3.535-7.894 7.895s3.534 7.895 7.894 7.895c4.361 0 7.895-3.535 7.895-7.895" fill="#c8e4c5"/></g><g transform="translate(268.27,539.77)"><path d="m0 0c0 6.283-5.112 11.395-11.395 11.395s-11.395-5.112-11.395-11.395c0-2.596 0.877-5.055 2.422-7.025-1.412-1.898-2.212-4.224-2.212-6.66v-6.315c0-6.167 5.018-11.185 11.185-11.185s11.185 5.018 11.185 11.185v6.315c0 2.436-0.8 4.762-2.212 6.66 1.545 1.97 2.422 4.429 2.422 7.025" fill="#4a8449"/></g><g transform="translate(256.88 512.08)"><path d="m0 0c-4.227 0-7.685 3.458-7.685 7.685v6.315c0 4.227 3.458 7.685 7.685 7.685s7.685-3.458 7.685-7.685v-6.315c0-4.227-3.458-7.685-7.685-7.685" fill="#8aca84"/></g><g transform="translate(264.77,539.77)"><path d="m0 0c0-4.36-3.535-7.895-7.895-7.895s-7.895 3.535-7.895 7.895 3.535 7.895 7.895 7.895 7.895-3.535 7.895-7.895" fill="#c8e4c5"/></g><g transform="translate(295.9 567.4)"><path d="m0 0c0 6.283-5.112 11.395-11.395 11.395s-11.395-5.112-11.395-11.395c0-2.596 0.877-5.055 2.422-7.025-1.412-1.898-2.212-4.224-2.212-6.66v-6.315c0-6.167 5.018-11.185 11.185-11.185s11.185 5.018 11.185 11.185v6.315c0 2.436-0.8 4.762-2.212 6.66 1.545 1.97 2.422 4.429 2.422 7.025" fill="#4a8449"/></g><g transform="translate(284.5,539.71)"><path d="m0 0c-4.227 0-7.685 3.458-7.685 7.685v6.315c0 4.227 3.458 7.685 7.685 7.685s7.685-3.458 7.685-7.685v-6.315c0-4.227-3.458-7.685-7.685-7.685" fill="#8aca84"/></g><g transform="translate(292.4 567.4)"><path d="m0 0c0-4.36-3.535-7.895-7.895-7.895s-7.895 3.535-7.895 7.895 3.535 7.895 7.895 7.895 7.895-3.535 7.895-7.895" fill="#c8e4c5"/></g><g transform="translate(386.39 501.4)"><path d="m0 0c0 6.283-5.111 11.395-11.395 11.395-6.283 0-11.394-5.112-11.394-11.395 0-2.596 0.877-5.055 2.422-7.025-1.412-1.898-2.212-4.224-2.212-6.66v-6.315c0-6.167 5.017-11.185 11.184-11.185s11.185 5.018 11.185 11.185v6.315c0 2.436-0.8 4.762-2.212 6.66 1.545 1.97 2.422 4.429 2.422 7.025" fill="#4a8449"/></g><g transform="translate(375,473.71)"><path d="m0 0c-4.227 0-7.685 3.458-7.685 7.685v6.315c0 4.227 3.458 7.685 7.685 7.685s7.685-3.458 7.685-7.685v-6.315c0-4.227-3.458-7.685-7.685-7.685" fill="#8aca84"/></g><g transform="translate(382.89 501.4)"><path d="m0 0c0-4.36-3.534-7.895-7.895-7.895-4.36 0-7.894 3.535-7.894 7.895s3.534 7.895 7.894 7.895c4.361 0 7.895-3.535 7.895-7.895" fill="#c8e4c5"/></g><g transform="translate(301.14 469.14)"><path d="m0 0c0 6.283-5.112 11.395-11.395 11.395s-11.395-5.112-11.395-11.395c0-2.596 0.877-5.055 2.422-7.025-1.412-1.898-2.212-4.224-2.212-6.66v-6.315c0-6.167 5.018-11.185 11.185-11.185s11.185 5.018 11.185 11.185v6.315c0 2.436-0.8 4.762-2.212 6.66 1.545 1.97 2.422 4.429 2.422 7.025" fill="#4a8449"/></g><g transform="translate(289.75,441.46)"><path d="m0 0c-4.227 0-7.685 3.458-7.685 7.685v6.315c0 4.227 3.458 7.685 7.685 7.685s7.685-3.458 7.685-7.685v-6.315c0-4.227-3.458-7.685-7.685-7.685" fill="#8aca84"/></g><g transform="translate(297.64 469.14)"><path d="m0 0c0-4.36-3.535-7.895-7.895-7.895s-7.895 3.535-7.895 7.895 3.535 7.895 7.895 7.895 7.895-3.535 7.895-7.895" fill="#c8e4c5"/></g><g transform="translate(328.77 496.77)"><path d="m0 0c0 6.283-5.111 11.395-11.395 11.395-6.283 0-11.395-5.112-11.395-11.395 0-2.596 0.878-5.055 2.423-7.025-1.412-1.898-2.212-4.224-2.212-6.66v-6.315c0-6.167 5.017-11.185 11.184-11.185s11.185 5.018 11.185 11.185v6.315c0 2.436-0.8 4.762-2.212 6.66 1.545 1.97 2.422 4.429 2.422 7.025" fill="#4a8449"/></g><g transform="translate(317.38 469.08)"><path d="m0 0c-4.227 0-7.685 3.458-7.685 7.685v6.315c0 4.227 3.458 7.685 7.685 7.685s7.685-3.458 7.685-7.685v-6.315c0-4.227-3.458-7.685-7.685-7.685" fill="#8aca84"/></g><g transform="translate(325.27 496.77)"><path d="m0 0c0-4.36-3.534-7.895-7.895-7.895-4.36 0-7.894 3.535-7.894 7.895s3.534 7.895 7.894 7.895c4.361 0 7.895-3.535 7.895-7.895" fill="#c8e4c5"/></g><g transform="translate(356.39 524.4)"><path d="m0 0c0 6.283-5.111 11.395-11.395 11.395-6.283 0-11.394-5.112-11.394-11.395 0-2.596 0.877-5.055 2.422-7.025-1.412-1.898-2.212-4.224-2.212-6.66v-6.315c0-6.167 5.017-11.185 11.184-11.185s11.185 5.018 11.185 11.185v6.315c0 2.436-0.8 4.762-2.212 6.66 1.545 1.97 2.422 4.429 2.422 7.025" fill="#4a8449"/></g><g transform="translate(345,496.71)"><path d="m0 0c-4.227 0-7.685 3.458-7.685 7.685v6.315c0 4.227 3.458 7.685 7.685 7.685s7.685-3.458 7.685-7.685v-6.315c0-4.227-3.458-7.685-7.685-7.685" fill="#8aca84"/></g><g transform="translate(352.89 524.4)"><path d="m0 0c0-4.36-3.534-7.895-7.895-7.895-4.36 0-7.894 3.535-7.894 7.895s3.534 7.895 7.894 7.895c4.361 0 7.895-3.535 7.895-7.895" fill="#c8e4c5"/></g><g transform="translate(383.52 551.52)"><path d="m0 0c0 6.283-5.111 11.395-11.395 11.395-6.283 0-11.394-5.112-11.394-11.395 0-2.596 0.877-5.055 2.422-7.025-1.412-1.898-2.212-4.224-2.212-6.66v-6.315c0-6.167 5.017-11.185 11.184-11.185s11.185 5.018 11.185 11.185v6.315c0 2.436-0.8 4.762-2.212 6.66 1.545 1.97 2.422 4.429 2.422 7.025" fill="#4a8449"/></g><g transform="translate(372.12 523.84)"><path d="m0 0c-4.227 0-7.685 3.458-7.685 7.685v6.315c0 4.227 3.458 7.685 7.685 7.685s7.685-3.458 7.685-7.685v-6.315c0-4.227-3.458-7.685-7.685-7.685" fill="#8aca84"/></g><g transform="translate(380.02 551.52)"><path d="m0 0c0-4.36-3.534-7.895-7.895-7.895-4.36 0-7.894 3.535-7.894 7.895s3.534 7.895 7.894 7.895c4.361 0 7.895-3.535 7.895-7.895" fill="#c8e4c5"/></g></g></g></svg>
