<?xml version="1.0" encoding="UTF-8" standalone="no"?>
<svg xmlns:rdf="http://www.w3.org/1999/02/22-rdf-syntax-ns#" xmlns="http://www.w3.org/2000/svg" xml:space="preserve" height="134.05" viewBox="0 0 219.2 134.04825" width="219.2" version="1.1" xmlns:cc="http://creativecommons.org/ns#" xmlns:dc="http://purl.org/dc/elements/1.1/"><metadata><rdf:RDF><cc:Work rdf:about=""><dc:format>image/svg+xml</dc:format><dc:type rdf:resource="http://purl.org/dc/dcmitype/StillImage"/><dc:title/><dc:creator><cc:Agent><dc:title>https://github.com/pgonzal</dc:title></cc:Agent></dc:creator><dc:rights><cc:Agent><dc:title>Copyright (c) Microsoft Corporation</dc:title></cc:Agent></dc:rights></cc:Work></rdf:RDF></metadata><defs><clipPath id="a" clipPathUnits="userSpaceOnUse"><path d="m0 792h612v-792h-612v792z"/></clipPath></defs><g transform="matrix(1.25 0 0 -1.25 -318.76 578.28)"><g clip-path="url(#a)"><g transform="translate(310.83 385.32)"><path d="m0 0c-1.738-0.227-3.43-0.956-4.837-2.204-3.747-3.32-4.094-9.069-0.774-12.817 3.321-3.747 9.07-4.093 12.817-0.773 1.815 1.608 2.895 3.827 3.04 6.248 0.147 2.421-0.659 4.754-2.267 6.568-2.073 2.339-5.091 3.353-7.979 2.978m2.816-21.408c-3.981-0.518-8.144 0.881-11.002 4.105-4.578 5.167-4.1 13.095 1.066 17.674 5.167 4.578 13.096 4.1 17.674-1.066 2.217-2.503 3.328-5.72 3.127-9.058-0.202-3.338-1.691-6.397-4.194-8.616-1.941-1.72-4.273-2.727-6.671-3.039" fill="#b2b3b3"/></g><g transform="translate(314.8 378.79)"><path d="m0 0c1.363-1.538 1.222-3.891-0.317-5.255-1.538-1.363-3.891-1.221-5.254 0.318-1.364 1.538-1.222 3.89 0.316 5.254 1.539 1.364 3.892 1.221 5.255-0.317" fill="#b2b3b3"/></g><g transform="translate(275.88 370.27)"><path d="m0 0c0.851-0.96 0.762-2.428-0.198-3.278-0.96-0.852-2.428-0.763-3.279 0.197-0.85 0.96-0.762 2.428 0.198 3.278 0.96 0.852 2.428 0.763 3.279-0.197" fill="#b2b3b3"/></g><g transform="translate(275.69 368.83)"><path d="m0 0-2.332-0.043c-0.889 15.091 13.758 29.067 33.906 30.255l0.388-4.044c-18.41-1.084-32.748-12.823-31.962-26.168" fill="#b2b3b3"/></g><g transform="translate(312.03 374.88)"><path d="m0 0c-0.795-0.047-1.532 0.481-1.721 1.283l-7.641 32.361c-0.212 0.898 0.344 1.797 1.241 2.009 0.9 0.212 1.797-0.344 2.009-1.241l7.64-32.362c0.212-0.898-0.343-1.796-1.241-2.008-0.096-0.023-0.191-0.037-0.287-0.042" fill="#b2b3b3"/></g><g transform="translate(282.24 388.05)"><path d="m0 0-4.24 12.492 3.162 1.074 4.24-12.493-3.162-1.073z" fill="#b2b3b3"/></g><g transform="translate(301.51 406.38)"><path d="m0 0c-1.865-0.11-3.584 0.582-5.108 1.194l-0.453 0.181c-3.707 1.471-6.519 1.794-8.847 1.021-0.752-0.25-1.56 0.156-1.809 0.906-0.25 0.75 0.156 1.56 0.906 1.809 3.948 1.312 8.057 0.014 10.805-1.075l0.465-0.186c1.407-0.566 2.745-1.096 3.995-0.983 0.643 0.059 1.33 0.433 1.709 0.93 0.218 0.287 0.304 0.57 0.255 0.842-0.126 0.708-1.085 1.341-1.795 1.755-2.757 1.607-5.734 2.778-8.847 3.481-0.771 0.174-1.255 0.94-1.081 1.71 0.174 0.771 0.938 1.256 1.711 1.082 3.399-0.767 6.648-2.045 9.658-3.8 1.302-0.76 2.839-1.869 3.172-3.723 0.19-1.063-0.092-2.157-0.797-3.081-0.859-1.13-2.286-1.914-3.723-2.046-0.072-0.007-0.144-0.013-0.216-0.017" fill="#b2b3b3"/></g><g transform="translate(285.01 400.92)"><path d="m0 0c0.119-2.017-2.109-4.345-6.975-4.632-4.865-0.286-8.403 0.699-10.508 2.646-2.106 1.947 3.581 1.082 8.664 2.98 6.078 2.269 8.7 1.022 8.819-0.994" fill="#b2b3b3"/></g><g transform="translate(273.95 373.07)"><path d="m0 0c-2.429-0.144-4.288-2.235-4.145-4.664s2.235-4.289 4.664-4.146c2.429 0.144 4.288 2.236 4.145 4.664-0.143 2.429-2.235 4.289-4.664 4.146m0.687-11.667c-4.004-0.235-7.453 2.83-7.689 6.834-0.236 4.005 2.829 7.454 6.834 7.69 4.004 0.236 7.454-2.83 7.689-6.834 0.236-4.004-2.829-7.454-6.834-7.69" fill="#b2b3b3"/></g><g transform="translate(283.4 415.66)"><path d="m0 0c-0.193-0.012-0.362 0.133-0.378 0.328-0.016 0.196 0.13 0.369 0.327 0.385 1.848 0.153 2.421 0.591 2.974 1.015 0.306 0.234 0.623 0.477 1.116 0.635 1.216 0.389 2.672 0.487 4.454 0.298 0.196-0.021 0.339-0.198 0.319-0.394-0.022-0.196-0.196-0.338-0.395-0.318-1.681 0.178-3.041 0.092-4.16-0.267-0.374-0.12-0.618-0.307-0.899-0.522-0.576-0.441-1.293-0.991-3.35-1.16h-0.008" fill="#b2b3b3"/></g><g transform="translate(292.27 417.53)"><path d="m0 0c-0.056-0.003-0.112 0.006-0.167 0.031-1.549 0.692-2.872 1.013-4.045 0.982-0.395-0.009-0.677-0.128-1.008-0.264-0.684-0.283-1.535-0.633-3.56-0.183-0.192 0.043-0.314 0.234-0.271 0.427s0.231 0.315 0.427 0.272c1.804-0.401 2.479-0.123 3.131 0.145 0.364 0.15 0.741 0.303 1.262 0.319 1.282 0.033 2.707-0.308 4.356-1.045 0.181-0.081 0.262-0.292 0.181-0.473-0.056-0.126-0.177-0.203-0.306-0.211" fill="#b2b3b3"/></g><g transform="translate(292.31 417.94)"><path d="m0 0c-0.071-0.004-0.144 0.013-0.208 0.053-1.444 0.895-2.712 1.391-3.877 1.518-0.388 0.042-0.688-0.036-1.035-0.127-0.716-0.186-1.606-0.419-3.551 0.299-0.185 0.069-0.28 0.275-0.211 0.46 0.068 0.186 0.275 0.28 0.459 0.211 1.735-0.641 2.439-0.456 3.122-0.277 0.381 0.099 0.775 0.201 1.293 0.146 1.274-0.139 2.64-0.67 4.176-1.621 0.168-0.105 0.22-0.325 0.116-0.493-0.064-0.103-0.171-0.162-0.284-0.169" fill="#b2b3b3"/></g><g transform="translate(277.06 406.45)"><path d="m0 0c-0.168-0.01-0.325 0.1-0.367 0.27-0.049 0.191 0.067 0.386 0.259 0.434 1.797 0.454 2.289 0.981 2.766 1.49 0.263 0.282 0.535 0.573 0.995 0.81 1.136 0.585 2.557 0.921 4.345 1.027 0.197 0.011 0.367-0.139 0.378-0.336 0.012-0.197-0.139-0.367-0.336-0.379-1.686-0.1-3.014-0.41-4.059-0.948-0.35-0.18-0.559-0.404-0.801-0.663-0.495-0.53-1.112-1.189-3.113-1.695-0.023-0.005-0.045-0.009-0.067-0.01" fill="#b2b3b3"/></g><g transform="translate(277.88 408.87)"><path d="m0 0c-0.313-0.019-0.667-0.02-1.07 0.002-0.197 0.011-0.348 0.179-0.338 0.376 0.011 0.198 0.183 0.35 0.376 0.338 1.847-0.098 2.466 0.286 3.065 0.659 0.334 0.208 0.68 0.422 1.192 0.521 1.257 0.245 2.719 0.143 4.469-0.313 0.191-0.049 0.306-0.245 0.256-0.436-0.05-0.19-0.243-0.307-0.436-0.256-1.643 0.428-3.003 0.526-4.152 0.303-0.383-0.074-0.647-0.237-0.951-0.427-0.506-0.314-1.113-0.691-2.411-0.767" fill="#b2b3b3"/></g><g transform="translate(285.48 410.16)"><path d="m0 0c-0.051-0.003-0.105 0.005-0.156 0.026-1.571 0.645-2.903 0.926-4.074 0.859h-0.003c-0.389-0.023-0.67-0.149-0.996-0.295-0.675-0.302-1.517-0.678-3.552-0.29-0.195 0.036-0.322 0.224-0.285 0.418 0.037 0.195 0.228 0.321 0.419 0.284 1.814-0.346 2.481-0.047 3.125 0.241 0.358 0.16 0.728 0.326 1.247 0.356 0.001 0 0.003 0.001 0.004 0.001 1.28 0.072 2.715-0.226 4.387-0.912 0.182-0.075 0.27-0.284 0.195-0.467-0.054-0.132-0.178-0.213-0.311-0.221" fill="#b2b3b3"/></g><g transform="translate(404.99 450.17)"><path d="m0 0c-2.386-0.216-4.651-1.138-6.545-2.689-2.499-2.047-4.051-4.945-4.37-8.159-0.319-3.215 0.632-6.36 2.679-8.859s4.944-4.051 8.158-4.371c3.214-0.319 6.361 0.632 8.859 2.679 2.499 2.047 4.051 4.944 4.37 8.159 0.32 3.214-0.631 6.36-2.678 8.859s-4.945 4.05-8.159 4.37c-0.778 0.077-1.552 0.08-2.314 0.011m2.66-28.653c-1.051-0.095-2.118-0.091-3.191 0.015-4.433 0.441-8.428 2.581-11.25 6.027-2.823 3.445-4.134 7.784-3.694 12.216 0.441 4.433 2.581 8.428 6.027 11.25 3.445 2.823 7.784 4.135 12.216 3.694s8.427-2.581 11.25-6.026c2.822-3.446 4.134-7.784 3.694-12.217-0.441-4.432-2.581-8.427-6.026-11.25-2.612-2.139-5.737-3.41-9.026-3.709" fill="#818181"/></g><g transform="translate(409.95 441.26)"><path d="m0 0c1.735-2.118 1.425-5.241-0.693-6.977-2.119-1.734-5.242-1.424-6.977 0.694s-1.425 5.241 0.693 6.977c2.119 1.735 5.243 1.424 6.977-0.694" fill="#818181"/></g><g transform="translate(346.77 399.39)"><path d="m0 0c-2.325-0.211-4.613-1.095-6.553-2.683-5.158-4.226-5.917-11.859-1.691-17.018 4.225-5.158 11.859-5.917 17.017-1.691 2.499 2.047 4.051 4.944 4.371 8.158 0.319 3.214-0.632 6.36-2.679 8.859-2.637 3.22-6.603 4.726-10.465 4.375m2.642-28.637c-5.327-0.484-10.794 1.593-14.431 6.032-5.826 7.113-4.78 17.641 2.333 23.467 7.112 5.826 17.64 4.78 23.466-2.333 2.822-3.446 4.135-7.783 3.694-12.216s-2.581-8.428-6.026-11.25c-2.673-2.189-5.829-3.409-9.036-3.7" fill="#818181"/></g><g transform="translate(351.71 390.49)"><path d="m0 0c1.735-2.118 1.425-5.242-0.693-6.977-2.119-1.735-5.242-1.424-6.977 0.694s-1.425 5.241 0.693 6.976c2.119 1.736 5.243 1.425 6.977-0.693" fill="#818181"/></g><g transform="translate(408.36 436.45)"><path d="m0 0-44.128 15.063 1.699 4.354l43.36-17.338-0.931-2.079z" fill="#818181"/></g><g transform="translate(343.18 391.36)"><path d="m0 0 25.89 27.422 0.13-6.285-23.256-25.252-2.764 4.115z" fill="#818181"/></g><g transform="translate(316.97 402.88)"><path d="m0 0c22.944 17.016 37.733 23.407 43.053 35.662 1.954 6.318 18.3 7.758 18.607 4.603 0.281-2.877-1.623-17.598-1.707-20.816-0.104-3.989-16.604-8.155-18.377-10.776-14.565 2.11-28.868-0.159-40.541-9.937-0.776 0.159-1.279 0.483-1.035 1.264" fill="#818181"/></g><g transform="translate(399.6 460.59)"><path d="m0 0c0.572 0.853 1.746 1.807 1.551 2.03-4.894-0.265-12.534-2.535-17.86-8.577-4.948-5.613-6.107-8.876-5.371-15.038 0.281-2.351 1.916-6.354 2.95-9.762 0.625 0.8 1.538 0.93 1.103 2.137-2.441 6.779-0.044 12.327 0.587 14.402 1.55 5.098 9.853 13.583 17.04 14.808" fill="#818181"/></g><g transform="translate(329.84 400.09)"><path d="m0 0 18.944 7.498 2.13 6.996l-3.868-2.026-19.471-6.046-2.33-2.67 1.106-3.134 3.489-0.618z" fill="#818181"/></g><g transform="translate(351.84 384.51)"><path d="m0 0-0.587 0.487 22.261 26.792 0.588-0.487-22.262-26.792z" fill="#818181"/></g><g transform="translate(351.76 410.81)"><path d="m0 0c6.019 0.546 7.485-3.127 8.508-5.688 0.829-2.077 1.13-2.406 2.008-2.188 1.949 0.479 6.121 3.621 10.626 8.005 4.699 4.574 7.518 8.301 7.786 9.486 0.48 2.131-1.85 6.565-4.1 8.815-1.026 1.027-1.605 1.153-1.7 1.132-0.75-0.279-3.503-2.666-5.932-4.773-2.684-2.328-5.726-4.965-7.923-6.466-6.146-4.197-9.811-7.098-11.538-8.687 0.82 0.182 1.572 0.301 2.265 0.364m10.373-9.704c-2.104-0.191-2.884 1.762-3.52 3.355-1.138 2.849-2.428 6.08-10.023 3.916-1-0.285-1.651-0.123-1.935 0.483-0.378 0.805 0.051 1.686 3.512 4.517 2.398 1.96 5.807 4.459 9.861 7.228 2.112 1.442 5.113 4.044 7.76 6.34 3.466 3.006 5.476 4.724 6.483 5.098 0.861 0.32 1.895-0.04 3.074-1.071 2.51-2.195 5.816-7.677 5.081-10.939-0.493-2.185-4.77-6.952-8.282-10.37-1.821-1.773-8.029-7.621-11.444-8.46-0.199-0.049-0.388-0.081-0.567-0.097" fill="#818181"/></g><g transform="translate(384.34 421.05)"><path d="m0 0c-0.553-3.153-13.434-17.644-16.631-18.146-3.197-0.501-11.28 9.845-11.28 9.845l18.983 11.299s9.482 0.156 8.928-2.998" fill="#818181"/></g><g transform="translate(375.31 448.54)"><path d="m0 0-4.726-6.284-5.785-0.571 5.106 8.899 5.405-2.044z" fill="#818181"/></g><g transform="translate(367.24 452.05)"><path d="m0 0c-1.084-2.066-4.723 0.711-6.969-0.114-2.412-0.887-3.786-2.334-4.232-1.493s6.122 7.401 7.565 7.267c1.444-0.134 4.843-3.358 3.636-5.66" fill="#818181"/></g><g transform="translate(430.01 372.31)"><path d="m0 0-175-11.436 0.358-5.488l175 11.436-0.36 5.488z" fill="#b2b3b3"/></g></g></g></svg>
