<?xml version="1.0" encoding="UTF-8" standalone="no"?>
<svg xmlns:rdf="http://www.w3.org/1999/02/22-rdf-syntax-ns#" xmlns="http://www.w3.org/2000/svg" xml:space="preserve" height="428.22" viewBox="0 0 317.18988 428.22449" width="317.19" version="1.1" xmlns:cc="http://creativecommons.org/ns#" xmlns:dc="http://purl.org/dc/elements/1.1/"><metadata><rdf:RDF><cc:Work rdf:about=""><dc:format>image/svg+xml</dc:format><dc:type rdf:resource="http://purl.org/dc/dcmitype/StillImage"/><dc:title/><dc:creator><cc:Agent><dc:title>https://github.com/pgonzal</dc:title></cc:Agent></dc:creator><dc:rights><cc:Agent><dc:title>Copyright (c) Microsoft Corporation</dc:title></cc:Agent></dc:rights></cc:Work></rdf:RDF></metadata><defs><clipPath id="a" clipPathUnits="userSpaceOnUse"><path d="m0 792h612v-792h-612v792z"/></clipPath></defs><g transform="matrix(1.25 0 0 -1.25 -197.39 787.85)"><g clip-path="url(#a)"><g transform="translate(329.93 558.78)"><path d="m0 0h-67.5c-0.552 0-1 0.448-1 1v69.5c0 0.552 0.448 1 1 1h67.5c0.553 0 1-0.448 1-1v-69.5c0-0.552-0.447-1-1-1" fill="#5878ba"/></g><g transform="translate(208.97 612.58)"><path d="m0 0 1.271-3.43c0.132-0.384 0.276-0.84 0.372-1.187h0.024c0.108 0.347 0.228 0.791 0.372 1.211l1.151 3.406h1.116l-1.583-4.138c-0.756-1.99-1.272-3.01-1.992-3.633-0.515-0.457-1.031-0.636-1.294-0.684l-0.265 0.887c0.265 0.084 0.612 0.252 0.924 0.516 0.288 0.228 0.648 0.635 0.887 1.176 0.048 0.107 0.084 0.191 0.084 0.251s-0.024 0.144-0.071 0.276l-2.147 5.349h1.151z" fill="#373535"/></g><g transform="translate(214.76 609.67)"><path d="m0 0c0-1.271 0.732-2.231 1.763-2.231 1.008 0 1.763 0.947 1.763 2.255 0 0.983-0.491 2.23-1.739 2.23-1.247 0-1.787-1.151-1.787-2.254m4.605 0.06c0-2.147-1.486-3.082-2.89-3.082-1.571 0-2.782 1.151-2.782 2.986 0 1.943 1.271 3.082 2.878 3.082 1.668 0 2.794-1.211 2.794-2.986" fill="#373535"/></g><g transform="translate(225.56 608.36)"><path d="m0 0c0-0.6 0.012-1.127 0.048-1.583h-0.936l-0.06 0.947h-0.024c-0.276-0.468-0.887-1.079-1.919-1.079-0.911 0-2.003 0.504-2.003 2.543v3.394h1.056v-3.214c0-1.104 0.336-1.847 1.296-1.847 0.707 0 1.199 0.491 1.391 0.959 0.06 0.156 0.095 0.348 0.095 0.54v3.562h1.056v-4.222z" fill="#373535"/></g><g transform="translate(227.32 610.77)"><path d="m0 0c0 0.684-0.012 1.271-0.048 1.811h0.923l0.037-1.139h0.047c0.264 0.779 0.9 1.271 1.607 1.271 0.121 0 0.205-0.012 0.301-0.036v-0.995c-0.109 0.024-0.217 0.036-0.36 0.036-0.744 0-1.272-0.564-1.416-1.356-0.024-0.144-0.048-0.311-0.048-0.491v-3.095h-1.043v3.994z" fill="#373535"/></g><g transform="translate(236.84 609.74)"><path d="m0 0c-1.151 0.024-2.458-0.18-2.458-1.307 0-0.684 0.456-1.008 0.995-1.008 0.755 0 1.235 0.48 1.403 0.972 0.036 0.108 0.06 0.228 0.06 0.336v1.007zm0.156-2.962-0.084 0.731h-0.036c-0.324-0.456-0.947-0.863-1.775-0.863-1.175 0-1.775 0.827-1.775 1.667 0 1.403 1.247 2.171 3.49 2.158v0.121c0 0.479-0.132 1.343-1.319 1.343-0.54 0-1.103-0.168-1.511-0.432l-0.24 0.695c0.48 0.313 1.175 0.516 1.907 0.516 1.775 0 2.207-1.211 2.207-2.374v-2.171c0-0.504 0.023-0.995 0.096-1.391h-0.96z" fill="#373535"/></g><g transform="translate(240.61 609.14)"><path d="m0 0c0-0.156 0.024-0.3 0.048-0.432 0.192-0.732 0.827-1.235 1.583-1.235 1.116 0 1.763 0.911 1.763 2.243 0 1.163-0.612 2.158-1.727 2.158-0.72 0-1.391-0.515-1.595-1.307-0.036-0.132-0.072-0.288-0.072-0.431v-0.996zm-1.043 1.547c0 0.744-0.024 1.343-0.048 1.895h0.947l0.048-0.995h0.024c0.432 0.707 1.115 1.127 2.063 1.127 1.403 0 2.459-1.187 2.459-2.95 0-2.087-1.272-3.119-2.639-3.119-0.768 0-1.439 0.336-1.787 0.912h-0.024v-3.154h-1.043v6.284z" fill="#373535"/></g><g transform="translate(247.44 609.14)"><path d="m0 0c0-0.156 0.024-0.3 0.048-0.432 0.192-0.732 0.827-1.235 1.583-1.235 1.116 0 1.763 0.911 1.763 2.243 0 1.163-0.611 2.158-1.727 2.158-0.72 0-1.391-0.515-1.595-1.307-0.036-0.132-0.072-0.288-0.072-0.431v-0.996zm-1.043 1.547c0 0.744-0.024 1.343-0.048 1.895h0.947l0.048-0.995h0.024c0.432 0.707 1.115 1.127 2.063 1.127 1.403 0 2.459-1.187 2.459-2.95 0-2.087-1.272-3.119-2.639-3.119-0.768 0-1.439 0.336-1.787 0.912h-0.024v-3.154h-1.043v6.284z" fill="#373535"/></g><path d="m351.39 621.13h1.056v-8.515h-1.056v8.515z" fill="#292929"/><g transform="translate(357.91 616.08)"><path d="m0 0c0.012 0.671-0.276 1.715-1.464 1.715-1.067 0-1.535-0.984-1.619-1.715h3.083zm-3.095-0.756c0.025-1.427 0.936-2.015 1.991-2.015 0.755 0 1.211 0.132 1.607 0.3l0.181-0.756c-0.372-0.168-1.008-0.359-1.932-0.359-1.787 0-2.855 1.175-2.855 2.926s1.033 3.13 2.723 3.13c1.896 0 2.4-1.667 2.4-2.734 0-0.216-0.025-0.384-0.037-0.492h-4.078z" fill="#292929"/></g><g transform="translate(360.64 618.42)"><path d="m0 0 1.14-3.262c0.191-0.528 0.347-1.008 0.467-1.487h0.036c0.131 0.479 0.299 0.959 0.492 1.487l1.127 3.262h1.103l-2.278-5.805h-1.008l-2.207 5.805h1.128z" fill="#292929"/></g><path d="m366.01 618.42h1.056v-5.805h-1.056v5.805zm1.175 1.631c0.012-0.36-0.252-0.648-0.671-0.648-0.372 0-0.636 0.288-0.636 0.648 0 0.372 0.275 0.66 0.659 0.66 0.396 0 0.648-0.288 0.648-0.66" fill="#292929"/><g transform="translate(371.87 615.57)"><path d="m0 0c-1.151 0.024-2.459-0.18-2.459-1.307 0-0.684 0.456-1.008 0.996-1.008 0.755 0 1.235 0.48 1.403 0.972 0.036 0.108 0.06 0.228 0.06 0.336v1.007zm0.156-2.962-0.084 0.731h-0.036c-0.324-0.456-0.947-0.863-1.775-0.863-1.175 0-1.775 0.827-1.775 1.667 0 1.403 1.247 2.171 3.49 2.158v0.121c0 0.479-0.132 1.343-1.319 1.343-0.54 0-1.103-0.168-1.511-0.432l-0.241 0.695c0.481 0.313 1.176 0.516 1.908 0.516 1.775 0 2.207-1.211 2.207-2.374v-2.171c0-0.504 0.023-0.995 0.095-1.391h-0.959z" fill="#292929"/></g><g transform="translate(375.82 620.08)"><path d="m0 0v-1.667h1.511v-0.803h-1.511v-3.131c0-0.719 0.203-1.127 0.791-1.127 0.276 0 0.48 0.036 0.612 0.072l0.048-0.792c-0.204-0.084-0.528-0.144-0.935-0.144-0.493 0-0.888 0.156-1.14 0.444-0.3 0.312-0.408 0.828-0.408 1.511v3.167h-0.9v0.803h0.9v1.392l1.032 0.275z" fill="#292929"/></g><g transform="translate(378.52 621.13)"><path d="m0 0h1.056v-3.622h0.023c0.168 0.3 0.432 0.564 0.756 0.744 0.311 0.18 0.684 0.299 1.079 0.299 0.779 0 2.027-0.479 2.027-2.482v-3.454h-1.055v3.334c0 0.935-0.348 1.727-1.344 1.727-0.684 0-1.223-0.48-1.415-1.055-0.06-0.144-0.071-0.3-0.071-0.504v-3.502h-1.056v8.515z" fill="#292929"/></g><g transform="translate(388.24 615.57)"><path d="m0 0c-1.151 0.024-2.459-0.18-2.459-1.307 0-0.684 0.456-1.008 0.995-1.008 0.756 0 1.235 0.48 1.403 0.972 0.037 0.108 0.061 0.228 0.061 0.336v1.007zm0.155-2.962-0.084 0.731h-0.036c-0.323-0.456-0.947-0.863-1.774-0.863-1.176 0-1.776 0.827-1.776 1.667 0 1.403 1.247 2.171 3.491 2.158v0.121c0 0.479-0.132 1.343-1.32 1.343-0.54 0-1.103-0.168-1.51-0.432l-0.241 0.695c0.48 0.313 1.176 0.516 1.908 0.516 1.774 0 2.206-1.211 2.206-2.374v-2.171c0-0.504 0.024-0.995 0.096-1.391h-0.96z" fill="#292929"/></g><g transform="translate(390.97 616.85)"><path d="m0 0c0 0.6-0.012 1.091-0.048 1.571h0.936l0.06-0.96h0.024c0.288 0.552 0.96 1.092 1.919 1.092 0.803 0 2.05-0.48 2.05-2.471v-3.466h-1.055v3.346c0 0.936-0.348 1.715-1.343 1.715-0.695 0-1.235-0.492-1.415-1.079-0.048-0.132-0.072-0.312-0.072-0.492v-3.49h-1.056v4.234z" fill="#292929"/></g><g transform="translate(352.66 605.68)"><path d="m0 0v-1.667h1.512v-0.803h-1.512v-3.131c0-0.719 0.204-1.127 0.792-1.127 0.275 0 0.479 0.036 0.611 0.072l0.048-0.792c-0.204-0.084-0.527-0.144-0.935-0.144-0.492 0-0.888 0.156-1.14 0.444-0.3 0.312-0.407 0.828-0.407 1.511v3.167h-0.9v0.803h0.9v1.391l1.031 0.276z" fill="#292929"/></g><g transform="translate(355.36 606.73)"><path d="m0 0h1.056v-3.622h0.024c0.168 0.3 0.432 0.564 0.755 0.744 0.312 0.18 0.684 0.299 1.08 0.299 0.779 0 2.026-0.479 2.026-2.482v-3.454h-1.055v3.334c0 0.935-0.348 1.727-1.343 1.727-0.684 0-1.224-0.48-1.415-1.055-0.061-0.144-0.072-0.3-0.072-0.504v-3.502h-1.056v8.515z" fill="#292929"/></g><g transform="translate(365.08 601.17)"><path d="m0 0c-1.151 0.024-2.459-0.18-2.459-1.307 0-0.684 0.456-1.008 0.996-1.008 0.755 0 1.235 0.48 1.403 0.972 0.036 0.108 0.06 0.228 0.06 0.336v1.007zm0.156-2.962-0.084 0.731h-0.036c-0.324-0.456-0.947-0.863-1.775-0.863-1.175 0-1.775 0.827-1.775 1.667 0 1.403 1.247 2.171 3.49 2.158v0.121c0 0.479-0.132 1.343-1.319 1.343-0.54 0-1.103-0.168-1.511-0.432l-0.241 0.695c0.481 0.313 1.176 0.516 1.908 0.516 1.775 0 2.207-1.211 2.207-2.374v-2.171c0-0.504 0.023-0.995 0.095-1.391h-0.959z" fill="#292929"/></g><g transform="translate(369.03 605.68)"><path d="m0 0v-1.667h1.511v-0.803h-1.511v-3.131c0-0.719 0.203-1.127 0.791-1.127 0.276 0 0.48 0.036 0.612 0.072l0.048-0.792c-0.204-0.084-0.528-0.144-0.935-0.144-0.493 0-0.888 0.156-1.14 0.444-0.3 0.312-0.408 0.828-0.408 1.511v3.167h-0.9v0.803h0.9v1.391l1.032 0.276z" fill="#292929"/></g><g transform="translate(375.55 605.68)"><path d="m0 0v-1.667h1.512v-0.803h-1.512v-3.131c0-0.719 0.204-1.127 0.792-1.127 0.275 0 0.479 0.036 0.611 0.072l0.048-0.792c-0.204-0.084-0.527-0.144-0.935-0.144-0.492 0-0.888 0.156-1.14 0.444-0.3 0.312-0.407 0.828-0.407 1.511v3.167h-0.9v0.803h0.9v1.391l1.031 0.276z" fill="#292929"/></g><g transform="translate(381.3 601.17)"><path d="m0 0c-1.151 0.024-2.459-0.18-2.459-1.307 0-0.684 0.456-1.008 0.996-1.008 0.755 0 1.235 0.48 1.403 0.972 0.036 0.108 0.06 0.228 0.06 0.336v1.007zm0.156-2.962-0.084 0.731h-0.036c-0.324-0.456-0.947-0.863-1.775-0.863-1.175 0-1.775 0.827-1.775 1.667 0 1.403 1.247 2.171 3.49 2.158v0.121c0 0.479-0.132 1.343-1.319 1.343-0.54 0-1.103-0.168-1.511-0.432l-0.241 0.695c0.481 0.313 1.176 0.516 1.908 0.516 1.775 0 2.207-1.211 2.207-2.374v-2.171c0-0.504 0.023-0.995 0.095-1.391h-0.959z" fill="#292929"/></g><g transform="translate(385.07 601.35)"><path d="m0 0h0.023c0.145 0.204 0.348 0.456 0.516 0.66l1.703 2.003h1.272l-2.243-2.387 2.554-3.418h-1.283l-2.003 2.783-0.539-0.6v-2.183h-1.044v8.515h1.044v-5.373z" fill="#292929"/></g><g transform="translate(393.34 601.68)"><path d="m0 0c0.012 0.671-0.276 1.715-1.464 1.715-1.067 0-1.535-0.984-1.619-1.715h3.083zm-3.095-0.756c0.025-1.427 0.936-2.015 1.991-2.015 0.755 0 1.211 0.132 1.607 0.3l0.181-0.756c-0.372-0.168-1.008-0.359-1.932-0.359-1.787 0-2.855 1.175-2.855 2.926s1.033 3.13 2.723 3.13c1.896 0 2.4-1.667 2.4-2.734 0-0.216-0.025-0.384-0.037-0.492h-4.078z" fill="#292929"/></g><g transform="translate(395.53 599.29)"><path d="m0 0c0.312-0.204 0.863-0.42 1.392-0.42 0.767 0 1.127 0.384 1.127 0.863 0 0.504-0.3 0.78-1.08 1.068-1.043 0.372-1.535 0.947-1.535 1.643 0 0.935 0.755 1.703 2.003 1.703 0.587 0 1.104-0.168 1.427-0.359l-0.264-0.768c-0.227 0.144-0.647 0.335-1.187 0.335-0.624 0-0.972-0.359-0.972-0.791 0-0.48 0.348-0.695 1.104-0.983 1.007-0.384 1.523-0.888 1.523-1.751 0-1.02-0.792-1.74-2.171-1.74-0.636 0-1.223 0.157-1.631 0.396l0.264 0.804z" fill="#292929"/></g><g transform="translate(351.5 583.81)"><path d="m0 0v5.001h-0.815v0.804h0.815v0.276c0 0.815 0.18 1.559 0.672 2.026 0.395 0.384 0.923 0.54 1.415 0.54 0.371 0 0.695-0.084 0.899-0.168l-0.144-0.815c-0.155 0.072-0.371 0.132-0.671 0.132-0.9 0-1.128-0.792-1.128-1.679v-0.312h1.403v-0.804h-1.403v-5.001h-1.043z" fill="#292929"/></g><g transform="translate(355.39 586.7)"><path d="m0 0c0-1.271 0.731-2.231 1.763-2.231 1.008 0 1.763 0.947 1.763 2.255 0 0.983-0.492 2.23-1.739 2.23s-1.787-1.151-1.787-2.254m4.605 0.06c0-2.147-1.487-3.082-2.89-3.082-1.571 0-2.782 1.151-2.782 2.986 0 1.943 1.271 3.082 2.878 3.082 1.668 0 2.794-1.211 2.794-2.986" fill="#292929"/></g><g transform="translate(361.33 587.81)"><path d="m0 0c0 0.684-0.012 1.271-0.048 1.811h0.923l0.036-1.139h0.048c0.264 0.779 0.899 1.271 1.607 1.271 0.121 0 0.205-0.012 0.3-0.036v-0.995c-0.108 0.024-0.216 0.036-0.359 0.036-0.744 0-1.272-0.564-1.416-1.356-0.024-0.144-0.048-0.311-0.048-0.491v-3.095h-1.043v3.994z" fill="#292929"/></g><g transform="translate(368.81 587.28)"><path d="m0 0c0.012 0.671-0.276 1.715-1.464 1.715-1.067 0-1.535-0.984-1.619-1.715h3.083zm-3.095-0.756c0.025-1.427 0.936-2.015 1.991-2.015 0.755 0 1.211 0.132 1.607 0.3l0.181-0.756c-0.372-0.168-1.008-0.359-1.932-0.359-1.787 0-2.855 1.175-2.855 2.926s1.033 3.13 2.723 3.13c1.896 0 2.4-1.667 2.4-2.734 0-0.216-0.025-0.384-0.037-0.492h-4.078z" fill="#292929"/></g><g transform="translate(371.55 589.62)"><path d="m0 0 1.14-3.262c0.191-0.528 0.347-1.008 0.467-1.487h0.036c0.131 0.479 0.299 0.959 0.492 1.487l1.127 3.262h1.103l-2.278-5.805h-1.008l-2.207 5.805h1.128z" fill="#292929"/></g><g transform="translate(380.48 587.28)"><path d="m0 0c0.012 0.671-0.275 1.715-1.463 1.715-1.067 0-1.535-0.984-1.619-1.715h3.082zm-3.094-0.756c0.024-1.427 0.936-2.015 1.99-2.015 0.756 0 1.212 0.132 1.608 0.3l0.18-0.756c-0.372-0.168-1.007-0.359-1.931-0.359-1.787 0-2.855 1.175-2.855 2.926s1.032 3.13 2.723 3.13c1.895 0 2.399-1.667 2.399-2.734 0-0.216-0.025-0.384-0.037-0.492h-4.077z" fill="#292929"/></g><g transform="translate(382.81 587.81)"><path d="m0 0c0 0.684-0.012 1.271-0.048 1.811h0.924l0.036-1.139h0.048c0.264 0.779 0.899 1.271 1.606 1.271 0.121 0 0.205-0.012 0.301-0.036v-0.995c-0.108 0.024-0.217 0.036-0.36 0.036-0.743 0-1.272-0.564-1.415-1.356-0.025-0.144-0.048-0.311-0.048-0.491v-3.095h-1.044v3.994z" fill="#292929"/></g><g transform="translate(390.55 591.28)"><path d="m0 0v-1.667h1.512v-0.803h-1.512v-3.131c0-0.719 0.204-1.127 0.792-1.127 0.275 0 0.479 0.036 0.611 0.072l0.048-0.792c-0.204-0.084-0.527-0.144-0.935-0.144-0.492 0-0.888 0.156-1.14 0.444-0.3 0.312-0.407 0.828-0.407 1.511v3.167h-0.9v0.803h0.9v1.392l1.031 0.275z" fill="#292929"/></g><g transform="translate(393.82 586.7)"><path d="m0 0c0-1.271 0.731-2.231 1.763-2.231 1.008 0 1.763 0.947 1.763 2.255 0 0.983-0.492 2.23-1.739 2.23s-1.787-1.151-1.787-2.254m4.605 0.06c0-2.147-1.487-3.082-2.89-3.082-1.571 0-2.782 1.151-2.782 2.986 0 1.943 1.271 3.082 2.878 3.082 1.668 0 2.794-1.211 2.794-2.986" fill="#292929"/></g><g transform="translate(352.43 571.74)"><path d="m0 0c0-0.132 0.023-0.264 0.048-0.384 0.204-0.731 0.815-1.235 1.583-1.235 1.103 0 1.763 0.899 1.763 2.231 0 1.163-0.6 2.159-1.727 2.159-0.72 0-1.392-0.492-1.607-1.296-0.024-0.12-0.06-0.264-0.06-0.432v-1.043zm-1.092-2.327c0.025 0.396 0.048 0.984 0.048 1.499v7.016h1.044v-3.646h0.023c0.373 0.648 1.044 1.068 1.98 1.068 1.438 0 2.458-1.199 2.446-2.962 0-2.075-1.307-3.106-2.602-3.106-0.84 0-1.511 0.323-1.943 1.091h-0.036l-0.048-0.96h-0.912z" fill="#292929"/></g><g transform="translate(363.08 570.99)"><path d="m0 0c0-0.6 0.012-1.127 0.048-1.583h-0.936l-0.06 0.947h-0.024c-0.276-0.468-0.887-1.079-1.919-1.079-0.911 0-2.003 0.504-2.003 2.543v3.394h1.056v-3.214c0-1.104 0.336-1.847 1.295-1.847 0.708 0 1.199 0.491 1.392 0.959 0.059 0.156 0.095 0.348 0.095 0.54v3.562h1.056v-4.222z" fill="#292929"/></g><path d="m364.83 575.22h1.056v-5.805h-1.056v5.805zm1.175 1.631c0.013-0.36-0.252-0.648-0.671-0.648-0.372 0-0.636 0.288-0.636 0.648 0 0.372 0.276 0.66 0.659 0.66 0.396 0 0.648-0.288 0.648-0.66" fill="#292929"/><path d="m367.64 577.93h1.056v-8.515h-1.056v8.515z" fill="#292929"/><g transform="translate(374.43 572.85)"><path d="m0 0c0 0.132-0.013 0.312-0.049 0.444-0.155 0.672-0.731 1.223-1.522 1.223-1.092 0-1.74-0.959-1.74-2.243 0-1.175 0.576-2.146 1.715-2.146 0.708 0 1.356 0.468 1.547 1.259 0.036 0.144 0.049 0.288 0.049 0.456v1.007zm1.055 5.073v-7.016c0-0.515 0.012-1.103 0.048-1.499h-0.948l-0.048 1.007h-0.023c-0.324-0.647-1.032-1.139-1.98-1.139-1.403 0-2.482 1.188-2.482 2.95-0.012 1.932 1.188 3.119 2.603 3.119 0.887 0 1.487-0.42 1.751-0.888h0.024v3.466h1.055z" fill="#292929"/></g><g transform="translate(285.7 539.7)"><path d="m0 0h-9.053c-0.552 0-1 0.448-1 1v6.364c0 0.552 0.448 1 1 1h9.053c0.552 0 1-0.448 1-1v-6.364c0-0.552-0.448-1-1-1" fill="#979696"/></g><g transform="translate(271.36 539.7)"><path d="m0 0h-9.053c-0.552 0-1 0.448-1 1v6.364c0 0.552 0.448 1 1 1h9.053c0.552 0 1-0.448 1-1v-6.364c0-0.552-0.448-1-1-1" fill="#979696"/></g><g transform="translate(300.57 539.7)"><path d="m0 0h-9.053c-0.552 0-1 0.448-1 1v6.364c0 0.552 0.448 1 1 1h9.053c0.552 0 1-0.448 1-1v-6.364c0-0.552-0.448-1-1-1" fill="#979696"/></g><g transform="translate(315.44 539.7)"><path d="m0 0h-9.053c-0.552 0-1 0.448-1 1v6.364c0 0.552 0.448 1 1 1h9.053c0.552 0 1-0.448 1-1v-6.364c0-0.552-0.448-1-1-1" fill="#979696"/></g><g transform="translate(330.31 539.7)"><path d="m0 0h-9.053c-0.551 0-1 0.448-1 1v6.364c0 0.552 0.449 1 1 1h9.053c0.553 0 1-0.448 1-1v-6.364c0-0.552-0.447-1-1-1" fill="#979696"/></g><g transform="translate(285.7 528.03)"><path d="m0 0h-9.053c-0.552 0-1 0.448-1 1v6.364c0 0.553 0.448 1 1 1h9.053c0.552 0 1-0.447 1-1v-6.364c0-0.552-0.448-1-1-1" fill="#979696"/></g><g transform="translate(271.36 528.03)"><path d="m0 0h-9.053c-0.552 0-1 0.448-1 1v6.364c0 0.553 0.448 1 1 1h9.053c0.552 0 1-0.447 1-1v-6.364c0-0.552-0.448-1-1-1" fill="#979696"/></g><g transform="translate(300.57 528.03)"><path d="m0 0h-9.053c-0.552 0-1 0.448-1 1v6.364c0 0.553 0.448 1 1 1h9.053c0.552 0 1-0.447 1-1v-6.364c0-0.552-0.448-1-1-1" fill="#979696"/></g><g transform="translate(315.44 528.03)"><path d="m0 0h-9.053c-0.552 0-1 0.448-1 1v6.364c0 0.553 0.448 1 1 1h9.053c0.552 0 1-0.447 1-1v-6.364c0-0.552-0.448-1-1-1" fill="#979696"/></g><g transform="translate(330.31 528.03)"><path d="m0 0h-9.053c-0.551 0-1 0.448-1 1v6.364c0 0.553 0.449 1 1 1h9.053c0.553 0 1-0.447 1-1v-6.364c0-0.552-0.447-1-1-1" fill="#979696"/></g><g transform="translate(285.7 516.37)"><path d="m0 0h-9.053c-0.552 0-1 0.448-1 1v6.364c0 0.553 0.448 1 1 1h9.053c0.552 0 1-0.447 1-1v-6.364c0-0.552-0.448-1-1-1" fill="#979696"/></g><g transform="translate(271.36 516.37)"><path d="m0 0h-9.053c-0.552 0-1 0.448-1 1v6.364c0 0.553 0.448 1 1 1h9.053c0.552 0 1-0.447 1-1v-6.364c0-0.552-0.448-1-1-1" fill="#979696"/></g><g transform="translate(300.57 516.37)"><path d="m0 0h-9.053c-0.552 0-1 0.448-1 1v6.364c0 0.553 0.448 1 1 1h9.053c0.552 0 1-0.447 1-1v-6.364c0-0.552-0.448-1-1-1" fill="#979696"/></g><g transform="translate(315.44 516.37)"><path d="m0 0h-9.053c-0.552 0-1 0.448-1 1v6.364c0 0.553 0.448 1 1 1h9.053c0.552 0 1-0.447 1-1v-6.364c0-0.552-0.448-1-1-1" fill="#979696"/></g><g transform="translate(330.31 516.37)"><path d="m0 0h-9.053c-0.551 0-1 0.448-1 1v6.364c0 0.553 0.449 1 1 1h9.053c0.553 0 1-0.447 1-1v-6.364c0-0.552-0.447-1-1-1" fill="#979696"/></g><g transform="translate(285.7 504.7)"><path d="m0 0h-9.053c-0.552 0-1 0.448-1 1v6.364c0 0.552 0.448 1 1 1h9.053c0.552 0 1-0.448 1-1v-6.364c0-0.552-0.448-1-1-1" fill="#979696"/></g><g transform="translate(271.36 504.7)"><path d="m0 0h-9.053c-0.552 0-1 0.448-1 1v6.364c0 0.552 0.448 1 1 1h9.053c0.552 0 1-0.448 1-1v-6.364c0-0.552-0.448-1-1-1" fill="#979696"/></g><g transform="translate(300.57 504.7)"><path d="m0 0h-9.053c-0.552 0-1 0.448-1 1v6.364c0 0.552 0.448 1 1 1h9.053c0.552 0 1-0.448 1-1v-6.364c0-0.552-0.448-1-1-1" fill="#979696"/></g><g transform="translate(315.44 504.7)"><path d="m0 0h-9.053c-0.552 0-1 0.448-1 1v6.364c0 0.552 0.448 1 1 1h9.053c0.552 0 1-0.448 1-1v-6.364c0-0.552-0.448-1-1-1" fill="#979696"/></g><g transform="translate(330.31 504.7)"><path d="m0 0h-9.053c-0.551 0-1 0.448-1 1v6.364c0 0.552 0.449 1 1 1h9.053c0.553 0 1-0.448 1-1v-6.364c0-0.552-0.447-1-1-1" fill="#979696"/></g><g transform="translate(167.76 539.75)"><path d="m0 0v-1.667h1.511v-0.803h-1.511v-3.131c0-0.719 0.204-1.127 0.792-1.127 0.275 0 0.479 0.036 0.611 0.072l0.048-0.792c-0.204-0.084-0.528-0.144-0.935-0.144-0.492 0-0.888 0.156-1.14 0.444-0.3 0.312-0.408 0.828-0.408 1.511v3.167h-0.899v0.803h0.899v1.392l1.032 0.275z" fill="#373535"/></g><path d="m170.46 538.08h1.056v-5.805h-1.056v5.805zm1.176 1.631c0.012-0.36-0.252-0.648-0.672-0.648-0.372 0-0.635 0.288-0.635 0.648 0 0.371 0.275 0.66 0.659 0.66 0.396 0 0.648-0.289 0.648-0.66" fill="#373535"/><g transform="translate(173.27 536.51)"><path d="m0 0c0 0.6-0.012 1.091-0.048 1.571h0.936l0.06-0.96h0.024c0.287 0.552 0.959 1.092 1.919 1.092 0.803 0 2.05-0.48 2.05-2.471v-3.466h-1.055v3.346c0 0.936-0.348 1.715-1.344 1.715-0.695 0-1.235-0.492-1.415-1.079-0.047-0.132-0.071-0.312-0.071-0.492v-3.49h-1.056v4.234z" fill="#373535"/></g><g transform="translate(180.16 538.08)"><path d="m0 0 1.271-3.43c0.132-0.384 0.276-0.84 0.372-1.187h0.024c0.108 0.347 0.228 0.791 0.372 1.211l1.151 3.406h1.116l-1.583-4.138c-0.756-1.99-1.272-3.01-1.992-3.633-0.515-0.457-1.031-0.636-1.294-0.684l-0.265 0.887c0.265 0.084 0.612 0.252 0.924 0.516 0.288 0.228 0.648 0.635 0.887 1.176 0.048 0.107 0.084 0.191 0.084 0.251s-0.024 0.144-0.071 0.276l-2.147 5.349h1.151z" fill="#373535"/></g><g transform="translate(188.01 532.28)"><path d="m0 0v8.083h1.139l2.591-4.089c0.6-0.948 1.067-1.799 1.451-2.627l0.024 0.012c-0.096 1.079-0.12 2.063-0.12 3.322v3.382h0.983v-8.083h-1.055l-2.566 4.102c-0.564 0.899-1.104 1.823-1.511 2.698l-0.037-0.012c0.06-1.019 0.084-1.991 0.084-3.334v-3.454h-0.983z" fill="#373535"/></g><g transform="translate(196.94 536.37)"><path d="m0 0c0.228-0.06 0.516-0.084 0.863-0.084 1.26 0 2.027 0.612 2.027 1.727 0 1.067-0.755 1.583-1.907 1.583-0.456 0-0.803-0.036-0.983-0.084v-3.142zm-1.043 3.898c0.503 0.084 1.163 0.156 2.002 0.156 1.032 0 1.787-0.24 2.267-0.672 0.444-0.384 0.708-0.971 0.708-1.691 0-0.732-0.216-1.307-0.624-1.727-0.552-0.588-1.451-0.888-2.471-0.888-0.312 0-0.599 0.012-0.839 0.072v-3.238h-1.043v7.988z" fill="#373535"/></g><g transform="translate(208.95 535.83)"><path d="m0 0c-0.06 1.127-0.132 2.483-0.12 3.49h-0.036c-0.276-0.947-0.612-1.955-1.019-3.07l-1.428-3.922h-0.791l-1.307 3.85c-0.384 1.139-0.708 2.183-0.936 3.142h-0.024c-0.024-1.007-0.084-2.363-0.156-3.573l-0.216-3.467h-0.995l0.564 8.084h1.331l1.379-3.91c0.336-0.996 0.612-1.883 0.816-2.723h0.036c0.204 0.816 0.491 1.703 0.851 2.723l1.44 3.91h1.331l0.504-8.084h-1.02l-0.204 3.55z" fill="#373535"/></g><g transform="translate(219.15 533.86)"><path d="m0 0c0-0.6 0.012-1.127 0.048-1.583h-0.936l-0.06 0.947h-0.024c-0.276-0.468-0.887-1.079-1.919-1.079-0.911 0-2.003 0.504-2.003 2.543v3.394h1.056v-3.214c0-1.104 0.336-1.847 1.296-1.847 0.707 0 1.199 0.491 1.391 0.959 0.06 0.156 0.095 0.348 0.095 0.54v3.562h1.056v-4.222z" fill="#373535"/></g><g transform="translate(222.18 539.75)"><path d="m0 0v-1.667h1.511v-0.803h-1.511v-3.131c0-0.719 0.204-1.127 0.792-1.127 0.275 0 0.479 0.036 0.611 0.072l0.048-0.792c-0.204-0.084-0.528-0.144-0.935-0.144-0.492 0-0.888 0.156-1.14 0.444-0.3 0.312-0.408 0.828-0.408 1.511v3.167h-0.899v0.803h0.899v1.392l1.032 0.275z" fill="#373535"/></g><g fill="#373535"><path d="m224.88 538.08h1.056v-5.805h-1.056v5.805zm1.176 1.631c0.012-0.36-0.252-0.648-0.672-0.648-0.372 0-0.635 0.288-0.635 0.648 0 0.371 0.275 0.66 0.659 0.66 0.396 0 0.648-0.289 0.648-0.66"/><path d="m227.69 540.79h1.056v-8.515h-1.056v8.515z"/><path d="m230.52 538.08h1.056v-5.805h-1.056v5.805zm1.175 1.631c0.012-0.36-0.252-0.648-0.672-0.648-0.372 0-0.635 0.288-0.635 0.648 0 0.371 0.276 0.66 0.659 0.66 0.396 0 0.648-0.289 0.648-0.66"/></g><g transform="translate(234.6 539.75)"><path d="m0 0v-1.667h1.511v-0.803h-1.511v-3.131c0-0.719 0.204-1.127 0.792-1.127 0.275 0 0.479 0.036 0.611 0.072l0.048-0.792c-0.204-0.084-0.528-0.144-0.935-0.144-0.492 0-0.888 0.156-1.14 0.444-0.3 0.312-0.408 0.828-0.408 1.511v3.167h-0.899v0.803h0.899v1.392l1.032 0.275z" fill="#373535"/></g><path d="m237.3 538.08h1.056v-5.805h-1.056v5.805zm1.176 1.631c0.012-0.36-0.252-0.648-0.672-0.648-0.372 0-0.636 0.288-0.636 0.648 0 0.371 0.276 0.66 0.66 0.66 0.396 0 0.648-0.289 0.648-0.66" fill="#373535"/><g transform="translate(243.79 535.74)"><path d="m0 0c0.012 0.671-0.276 1.715-1.463 1.715-1.068 0-1.536-0.984-1.62-1.715h3.083zm-3.094-0.756c0.024-1.427 0.935-2.015 1.99-2.015 0.756 0 1.212 0.132 1.607 0.3l0.181-0.756c-0.372-0.168-1.008-0.359-1.932-0.359-1.787 0-2.854 1.175-2.854 2.926s1.032 3.13 2.723 3.13c1.895 0 2.399-1.667 2.399-2.734 0-0.216-0.025-0.384-0.037-0.492h-4.077z" fill="#373535"/></g><g transform="translate(245.98 533.36)"><path d="m0 0c0.312-0.204 0.864-0.42 1.392-0.42 0.767 0 1.127 0.384 1.127 0.863 0 0.504-0.3 0.78-1.08 1.068-1.043 0.372-1.535 0.947-1.535 1.643 0 0.935 0.756 1.703 2.003 1.703 0.588 0 1.103-0.168 1.427-0.359l-0.264-0.768c-0.227 0.144-0.647 0.335-1.187 0.335-0.624 0-0.971-0.359-0.971-0.791 0-0.48 0.347-0.695 1.103-0.983 1.007-0.384 1.523-0.888 1.523-1.751 0-1.02-0.791-1.74-2.171-1.74-0.635 0-1.223 0.157-1.631 0.396l0.264 0.804z" fill="#373535"/></g><g transform="translate(250.06 530.8)"><path d="m0 0c0.264 0.708 0.588 1.991 0.72 2.866l1.175 0.12c-0.276-1.019-0.804-2.35-1.14-2.914l-0.755-0.072z" fill="#373535"/></g><g transform="translate(157.91 518.49)"><path d="m0 0 2.626 3.418c0.252 0.312 0.492 0.588 0.756 0.899v0.024h-3.142v0.852h4.426l-0.013-0.66-2.59-3.37c-0.24-0.324-0.48-0.611-0.744-0.911v-0.024h3.394v-0.84h-4.713v0.612z" fill="#373535"/></g><g fill="#373535"><path d="m163.71 523.68h1.056v-5.805h-1.056v5.805zm1.175 1.631c0.012-0.36-0.252-0.648-0.672-0.648-0.372 0-0.635 0.288-0.635 0.648 0 0.372 0.276 0.66 0.659 0.66 0.396 0 0.648-0.288 0.648-0.66"/><path d="m166.51 526.39h1.056v-8.515h-1.056v8.515z"/><path d="m169.35 526.39h1.056v-8.515h-1.056v8.515z"/><path d="m172.18 523.68h1.056v-5.805h-1.056v5.805zm1.176 1.631c0.012-0.36-0.252-0.648-0.672-0.648-0.372 0-0.636 0.288-0.636 0.648 0 0.372 0.276 0.66 0.66 0.66 0.396 0 0.648-0.288 0.648-0.66"/></g><g transform="translate(175.63 520.77)"><path d="m0 0c0-1.271 0.732-2.231 1.763-2.231 1.008 0 1.763 0.947 1.763 2.255 0 0.983-0.491 2.23-1.739 2.23-1.247 0-1.787-1.151-1.787-2.254m4.605 0.06c0-2.147-1.486-3.082-2.89-3.082-1.571 0-2.782 1.151-2.782 2.986 0 1.943 1.271 3.082 2.878 3.082 1.668 0 2.794-1.211 2.794-2.986" fill="#373535"/></g><g transform="translate(181.57 522.11)"><path d="m0 0c0 0.6-0.012 1.091-0.048 1.571h0.936l0.059-0.96h0.025c0.287 0.552 0.959 1.092 1.919 1.092 0.803 0 2.05-0.48 2.05-2.471v-3.466h-1.055v3.346c0 0.936-0.348 1.715-1.344 1.715-0.695 0-1.235-0.492-1.415-1.079-0.047-0.132-0.071-0.312-0.071-0.492v-3.49h-1.056v4.234z" fill="#373535"/></g><g transform="translate(188.09 518.96)"><path d="m0 0c0.312-0.204 0.864-0.42 1.392-0.42 0.767 0 1.127 0.384 1.127 0.863 0 0.504-0.3 0.78-1.08 1.068-1.043 0.372-1.535 0.947-1.535 1.643 0 0.935 0.756 1.703 2.003 1.703 0.588 0 1.103-0.168 1.427-0.359l-0.264-0.768c-0.227 0.144-0.647 0.335-1.187 0.335-0.624 0-0.971-0.359-0.971-0.791 0-0.48 0.347-0.695 1.103-0.983 1.007-0.384 1.523-0.888 1.523-1.751 0-1.02-0.791-1.74-2.171-1.74-0.635 0-1.223 0.157-1.631 0.396l0.264 0.804z" fill="#373535"/></g><g transform="translate(196.18 520.77)"><path d="m0 0c0-1.271 0.732-2.231 1.763-2.231 1.008 0 1.763 0.947 1.763 2.255 0 0.983-0.491 2.23-1.739 2.23-1.247 0-1.787-1.151-1.787-2.254m4.605 0.06c0-2.147-1.486-3.082-2.89-3.082-1.571 0-2.782 1.151-2.782 2.986 0 1.943 1.271 3.082 2.878 3.082 1.668 0 2.794-1.211 2.794-2.986" fill="#373535"/></g><g transform="translate(202.23 517.88)"><path d="m0 0v5.001h-0.815v0.804h0.815v0.276c0 0.815 0.18 1.559 0.672 2.026 0.395 0.384 0.923 0.54 1.415 0.54 0.371 0 0.696-0.084 0.899-0.168l-0.144-0.815c-0.155 0.072-0.371 0.132-0.671 0.132-0.9 0-1.128-0.792-1.128-1.679v-0.312h1.404v-0.804h-1.404v-5.001h-1.043z" fill="#373535"/></g><g transform="translate(214.35 518.24)"><path d="m0 0c-0.468-0.168-1.391-0.444-2.482-0.444-1.224 0-2.231 0.312-3.023 1.068-0.695 0.671-1.127 1.751-1.127 3.01 0.012 2.41 1.667 4.174 4.378 4.174 0.935 0 1.667-0.204 2.014-0.372l-0.252-0.852c-0.431 0.192-0.971 0.348-1.787 0.348-1.967 0-3.25-1.223-3.25-3.25 0-2.051 1.236-3.262 3.118-3.262 0.684 0 1.152 0.096 1.391 0.216v2.41h-1.643v0.84h2.663v-3.886z" fill="#373535"/></g><path d="m215.92 523.68h1.056v-5.805h-1.056v5.805zm1.175 1.631c0.012-0.36-0.252-0.648-0.671-0.648-0.372 0-0.636 0.288-0.636 0.648 0 0.372 0.276 0.66 0.66 0.66 0.395 0 0.647-0.288 0.647-0.66" fill="#373535"/><g transform="translate(220 525.35)"><path d="m0 0v-1.667h1.511v-0.803h-1.511v-3.131c0-0.719 0.204-1.127 0.792-1.127 0.275 0 0.479 0.036 0.611 0.072l0.048-0.792c-0.204-0.084-0.528-0.144-0.935-0.144-0.492 0-0.888 0.156-1.14 0.444-0.3 0.312-0.408 0.828-0.408 1.511v3.167h-0.899v0.803h0.899v1.391l1.032 0.276z" fill="#373535"/></g><g transform="translate(225.24 521.87)"><path d="m0 0c0 0.684-0.012 1.271-0.048 1.811h0.923l0.037-1.139h0.047c0.264 0.779 0.9 1.271 1.607 1.271 0.121 0 0.205-0.012 0.301-0.036v-0.995c-0.109 0.024-0.217 0.036-0.36 0.036-0.744 0-1.272-0.564-1.416-1.356-0.024-0.144-0.048-0.311-0.048-0.491v-3.095h-1.043v3.994z" fill="#373535"/></g><g transform="translate(232.73 521.34)"><path d="m0 0c0.012 0.671-0.276 1.715-1.463 1.715-1.068 0-1.536-0.984-1.62-1.715h3.083zm-3.094-0.756c0.024-1.427 0.935-2.015 1.99-2.015 0.756 0 1.212 0.132 1.607 0.3l0.181-0.756c-0.372-0.168-1.008-0.359-1.932-0.359-1.787 0-2.854 1.175-2.854 2.926s1.032 3.13 2.723 3.13c1.895 0 2.399-1.667 2.399-2.734 0-0.216-0.025-0.384-0.037-0.492h-4.077z" fill="#373535"/></g><g transform="translate(236.1 520.24)"><path d="m0 0c0-0.156 0.024-0.3 0.048-0.432 0.192-0.732 0.827-1.235 1.583-1.235 1.116 0 1.763 0.911 1.763 2.243 0 1.163-0.611 2.158-1.727 2.158-0.72 0-1.391-0.515-1.595-1.307-0.036-0.132-0.072-0.288-0.072-0.432v-0.995zm-1.043 1.547c0 0.744-0.024 1.343-0.048 1.895h0.947l0.048-0.995h0.024c0.432 0.707 1.115 1.127 2.063 1.127 1.403 0 2.459-1.187 2.459-2.95 0-2.087-1.272-3.119-2.639-3.119-0.768 0-1.439 0.336-1.787 0.912h-0.024v-3.154h-1.043v6.284z" fill="#373535"/></g><g transform="translate(242.53 520.77)"><path d="m0 0c0-1.271 0.732-2.231 1.763-2.231 1.008 0 1.763 0.947 1.763 2.255 0 0.983-0.491 2.23-1.739 2.23-1.247 0-1.787-1.151-1.787-2.254m4.605 0.06c0-2.147-1.486-3.082-2.89-3.082-1.571 0-2.782 1.151-2.782 2.986 0 1.943 1.271 3.082 2.878 3.082 1.668 0 2.794-1.211 2.794-2.986" fill="#373535"/></g><g transform="translate(248.33 518.96)"><path d="m0 0c0.312-0.204 0.864-0.42 1.392-0.42 0.767 0 1.127 0.384 1.127 0.863 0 0.504-0.3 0.78-1.08 1.068-1.043 0.372-1.535 0.947-1.535 1.643 0 0.935 0.756 1.703 2.003 1.703 0.588 0 1.104-0.168 1.427-0.359l-0.264-0.768c-0.227 0.144-0.647 0.335-1.187 0.335-0.624 0-0.971-0.359-0.971-0.791 0-0.48 0.347-0.695 1.103-0.983 1.007-0.384 1.523-0.888 1.523-1.751 0-1.02-0.791-1.74-2.171-1.74-0.635 0-1.223 0.157-1.631 0.396l0.264 0.804z" fill="#373535"/></g><g transform="translate(336.4 628.78)"><path d="m0 0h4.807v-68.667h-4.807" stroke="#292929" stroke-miterlimit="10" stroke-width="2" fill="none"/></g><g transform="translate(209 409.08)"><path d="m0 0 1.271-3.43c0.132-0.383 0.276-0.84 0.372-1.187h0.024c0.108 0.347 0.228 0.792 0.372 1.211l1.151 3.406h1.116l-1.583-4.138c-0.756-1.99-1.272-3.009-1.992-3.633-0.515-0.457-1.031-0.636-1.294-0.684l-0.265 0.888c0.265 0.084 0.612 0.252 0.924 0.515 0.288 0.228 0.648 0.636 0.887 1.176 0.048 0.107 0.084 0.191 0.084 0.251 0 0.061-0.024 0.145-0.071 0.276l-2.147 5.349h1.151z" fill="#373535"/></g><g transform="translate(214.79 406.17)"><path d="m0 0c0-1.271 0.732-2.23 1.763-2.23 1.008 0 1.763 0.947 1.763 2.254 0 0.984-0.491 2.231-1.739 2.231-1.247 0-1.787-1.151-1.787-2.255m4.605 0.06c0-2.147-1.486-3.082-2.89-3.082-1.571 0-2.782 1.151-2.782 2.986 0 1.943 1.271 3.082 2.878 3.082 1.668 0 2.794-1.211 2.794-2.986" fill="#373535"/></g><g transform="translate(225.59 404.86)"><path d="m0 0c0-0.6 0.012-1.127 0.048-1.583h-0.936l-0.06 0.947h-0.024c-0.276-0.468-0.887-1.079-1.919-1.079-0.911 0-2.003 0.504-2.003 2.543v3.394h1.056v-3.214c0-1.104 0.336-1.847 1.296-1.847 0.707 0 1.199 0.491 1.391 0.959 0.06 0.156 0.095 0.348 0.095 0.54v3.562h1.056v-4.222z" fill="#373535"/></g><g transform="translate(227.34 407.27)"><path d="m0 0c0 0.684-0.012 1.271-0.048 1.811h0.923l0.037-1.139h0.047c0.264 0.779 0.9 1.27 1.607 1.27 0.121 0 0.205-0.011 0.301-0.035v-0.996c-0.109 0.025-0.217 0.036-0.36 0.036-0.744 0-1.272-0.563-1.416-1.355-0.024-0.144-0.048-0.312-0.048-0.491v-3.095h-1.043v3.994z" fill="#373535"/></g><g transform="translate(236.87 406.24)"><path d="m0 0c-1.151 0.023-2.458-0.181-2.458-1.308 0-0.683 0.456-1.007 0.995-1.007 0.755 0 1.235 0.48 1.403 0.971 0.036 0.109 0.06 0.229 0.06 0.336v1.008zm0.156-2.963-0.084 0.732h-0.036c-0.324-0.456-0.947-0.864-1.775-0.864-1.175 0-1.775 0.828-1.775 1.667 0 1.404 1.247 2.171 3.49 2.159v0.121c0 0.479-0.132 1.342-1.319 1.342-0.54 0-1.103-0.168-1.511-0.431l-0.24 0.695c0.48 0.313 1.175 0.516 1.907 0.516 1.775 0 2.207-1.211 2.207-2.374v-2.171c0-0.504 0.023-0.995 0.096-1.392h-0.96z" fill="#373535"/></g><g transform="translate(240.64 405.64)"><path d="m0 0c0-0.156 0.024-0.3 0.048-0.432 0.192-0.732 0.827-1.235 1.583-1.235 1.116 0 1.763 0.911 1.763 2.242 0 1.163-0.612 2.159-1.727 2.159-0.72 0-1.391-0.515-1.595-1.307-0.036-0.132-0.072-0.288-0.072-0.432v-0.995zm-1.043 1.547c0 0.743-0.024 1.343-0.048 1.894h0.947l0.048-0.995h0.024c0.432 0.708 1.115 1.127 2.063 1.127 1.403 0 2.459-1.186 2.459-2.95 0-2.087-1.272-3.118-2.639-3.118-0.768 0-1.439 0.336-1.787 0.912h-0.024v-3.154h-1.043v6.284z" fill="#373535"/></g><g transform="translate(247.47 405.64)"><path d="m0 0c0-0.156 0.024-0.3 0.048-0.432 0.192-0.732 0.827-1.235 1.583-1.235 1.116 0 1.763 0.911 1.763 2.242 0 1.163-0.611 2.159-1.727 2.159-0.72 0-1.391-0.515-1.595-1.307-0.036-0.132-0.072-0.288-0.072-0.432v-0.995zm-1.043 1.547c0 0.743-0.024 1.343-0.048 1.894h0.947l0.048-0.995h0.024c0.432 0.708 1.115 1.127 2.063 1.127 1.403 0 2.459-1.186 2.459-2.95 0-2.087-1.272-3.118-2.639-3.118-0.768 0-1.439 0.336-1.787 0.912h-0.024v-3.154h-1.043v6.284z" fill="#373535"/></g><g transform="translate(351.77 398.69)"><path d="m0 0c0.312-0.204 0.863-0.42 1.392-0.42 0.767 0 1.127 0.384 1.127 0.863 0 0.504-0.3 0.78-1.08 1.069-1.043 0.371-1.535 0.947-1.535 1.642 0 0.936 0.755 1.703 2.003 1.703 0.587 0 1.104-0.168 1.427-0.359l-0.264-0.768c-0.227 0.143-0.647 0.335-1.187 0.335-0.624 0-0.972-0.36-0.972-0.792 0-0.478 0.348-0.695 1.104-0.982 1.007-0.385 1.523-0.889 1.523-1.752 0-1.019-0.792-1.738-2.171-1.738-0.636 0-1.223 0.156-1.631 0.395l0.264 0.804z" fill="#292929"/></g><path d="m356.67 403.42h1.056v-5.805h-1.056v5.805zm1.176 1.631c0.011-0.36-0.252-0.647-0.672-0.647-0.372 0-0.636 0.287-0.636 0.647 0 0.372 0.276 0.66 0.66 0.66 0.396 0 0.648-0.288 0.648-0.66" fill="#292929"/><g transform="translate(359.48 401.85)"><path d="m0 0c0 0.6-0.012 1.092-0.048 1.57h0.936l0.059-0.959h0.025c0.287 0.552 0.959 1.092 1.919 1.092 0.802 0 2.05-0.48 2.05-2.471v-3.466h-1.055v3.346c0 0.936-0.348 1.715-1.344 1.715-0.695 0-1.235-0.491-1.415-1.079-0.048-0.132-0.071-0.312-0.071-0.492v-3.49h-1.056v4.234z" fill="#292929"/></g><g transform="translate(370.05 401.13)"><path d="m0 0c0 0.18-0.012 0.336-0.06 0.479-0.192 0.612-0.708 1.116-1.475 1.116-1.008 0-1.728-0.852-1.728-2.195 0-1.139 0.576-2.087 1.716-2.087 0.648 0 1.235 0.409 1.463 1.08 0.06 0.18 0.084 0.383 0.084 0.563v1.044zm1.092 2.29c-0.025-0.419-0.049-0.887-0.049-1.595v-3.37c0-1.331-0.264-2.146-0.827-2.65-0.564-0.528-1.379-0.696-2.111-0.696-0.696 0-1.463 0.168-1.931 0.48l0.263 0.804c0.384-0.241 0.985-0.456 1.704-0.456 1.08 0 1.871 0.563 1.871 2.026v0.648h-0.024c-0.324-0.54-0.948-0.971-1.847-0.971-1.439 0-2.471 1.223-2.471 2.831 0 1.967 1.284 3.082 2.615 3.082 1.007 0 1.559-0.527 1.811-1.008h0.024l0.048 0.875h0.924z" fill="#292929"/></g><path d="m372.84 406.13h1.056v-8.516h-1.056v8.516z" fill="#292929"/><g transform="translate(379.36 401.08)"><path d="m0 0c0.012 0.672-0.276 1.715-1.464 1.715-1.067 0-1.535-0.984-1.619-1.715h3.083zm-3.095-0.756c0.025-1.428 0.936-2.015 1.991-2.015 0.755 0 1.211 0.132 1.607 0.3l0.181-0.756c-0.372-0.168-1.008-0.359-1.932-0.359-1.787 0-2.855 1.176-2.855 2.926 0 1.752 1.033 3.131 2.723 3.131 1.896 0 2.4-1.668 2.4-2.735 0-0.216-0.025-0.384-0.037-0.492h-4.078z" fill="#292929"/></g><g transform="translate(353.24 388.5)"><path d="m0 0c0.264 1.007 0.792 2.303 1.115 2.854l0.672 0.073c-0.264-0.708-0.575-1.944-0.707-2.807l-1.08-0.12zm-1.787 0c0.276 1.007 0.792 2.303 1.128 2.854l0.672 0.073c-0.265-0.708-0.576-1.944-0.708-2.807l-1.092-0.12z" fill="#292929"/></g><g transform="translate(355.89 387.44)"><path d="m0 0c0 0.6-0.012 1.092-0.048 1.571h0.924l0.048-0.935h0.036c0.323 0.551 0.863 1.067 1.823 1.067 0.791 0 1.391-0.479 1.643-1.163h0.024c0.18 0.323 0.407 0.575 0.648 0.755 0.347 0.265 0.731 0.408 1.283 0.408 0.767 0 1.907-0.504 1.907-2.518v-3.418h-1.032v3.286c0 1.115-0.407 1.787-1.259 1.787-0.6 0-1.067-0.444-1.247-0.959-0.048-0.145-0.084-0.336-0.084-0.528v-3.586h-1.031v3.477c0 0.924-0.408 1.596-1.212 1.596-0.659 0-1.14-0.528-1.308-1.056-0.059-0.155-0.084-0.335-0.084-0.515v-3.502h-1.031v4.233z" fill="#292929"/></g><g transform="translate(366.54 386.1)"><path d="m0 0c0-1.271 0.731-2.231 1.763-2.231 1.008 0 1.763 0.947 1.763 2.255 0 0.983-0.492 2.231-1.739 2.231s-1.787-1.152-1.787-2.255m4.605 0.06c0-2.147-1.487-3.082-2.89-3.082-1.571 0-2.782 1.151-2.782 2.986 0 1.943 1.271 3.082 2.878 3.082 1.668 0 2.794-1.211 2.794-2.986" fill="#292929"/></g><g transform="translate(372.48 387.44)"><path d="m0 0c0 0.6-0.012 1.092-0.048 1.571h0.936l0.059-0.96h0.025c0.287 0.553 0.959 1.092 1.919 1.092 0.802 0 2.05-0.479 2.05-2.471v-3.465h-1.055v3.346c0 0.936-0.348 1.715-1.344 1.715-0.695 0-1.235-0.492-1.415-1.08-0.048-0.131-0.071-0.311-0.071-0.491v-3.49h-1.056v4.233z" fill="#292929"/></g><g transform="translate(379.79 386.1)"><path d="m0 0c0-1.271 0.732-2.231 1.764-2.231 1.007 0 1.762 0.947 1.762 2.255 0 0.983-0.491 2.231-1.739 2.231-1.247 0-1.787-1.152-1.787-2.255m4.605 0.06c0-2.147-1.486-3.082-2.889-3.082-1.571 0-2.783 1.151-2.783 2.986 0 1.943 1.271 3.082 2.879 3.082 1.667 0 2.793-1.211 2.793-2.986" fill="#292929"/></g><g transform="translate(385.73 387.2)"><path d="m0 0c0 0.684-0.012 1.271-0.048 1.812h0.923l0.036-1.14h0.048c0.264 0.779 0.899 1.271 1.607 1.271 0.121 0 0.205-0.011 0.3-0.035v-0.996c-0.108 0.024-0.216 0.036-0.359 0.036-0.744 0-1.272-0.563-1.416-1.355-0.024-0.144-0.048-0.312-0.048-0.491v-3.095h-1.043v3.993z" fill="#292929"/></g><g transform="translate(393.22 386.68)"><path d="m0 0c0.012 0.672-0.275 1.715-1.463 1.715-1.067 0-1.535-0.983-1.619-1.715h3.082zm-3.094-0.756c0.024-1.427 0.936-2.014 1.99-2.014 0.756 0 1.212 0.131 1.608 0.299l0.18-0.756c-0.372-0.168-1.007-0.359-1.931-0.359-1.787 0-2.855 1.176-2.855 2.927s1.032 3.13 2.723 3.13c1.895 0 2.399-1.667 2.399-2.735 0-0.215-0.025-0.383-0.037-0.492h-4.077z" fill="#292929"/></g><g transform="translate(396.59 385.57)"><path d="m0 0c0-0.156 0.023-0.299 0.048-0.432 0.191-0.731 0.827-1.234 1.583-1.234 1.115 0 1.763 0.91 1.763 2.242 0 1.163-0.612 2.158-1.727 2.158-0.72 0-1.392-0.515-1.596-1.306-0.035-0.132-0.071-0.288-0.071-0.432v-0.996zm-1.044 1.547c0 0.744-0.023 1.344-0.048 1.895h0.947l0.049-0.995h0.024c0.431 0.707 1.115 1.127 2.062 1.127 1.404 0 2.459-1.187 2.459-2.95 0-2.087-1.271-3.118-2.638-3.118-0.768 0-1.44 0.336-1.788 0.912h-0.023v-3.154h-1.044v6.283z" fill="#292929"/></g><g transform="translate(403.02 386.1)"><path d="m0 0c0-1.271 0.731-2.231 1.763-2.231 1.008 0 1.763 0.947 1.763 2.255 0 0.983-0.492 2.231-1.739 2.231s-1.787-1.152-1.787-2.255m4.605 0.06c0-2.147-1.487-3.082-2.89-3.082-1.571 0-2.782 1.151-2.782 2.986 0 1.943 1.271 3.082 2.878 3.082 1.668 0 2.794-1.211 2.794-2.986" fill="#292929"/></g><g transform="translate(411.66 391.43)"><path d="m0 0c-0.276-1.008-0.792-2.291-1.115-2.843l-0.672-0.084c0.264 0.708 0.575 1.955 0.708 2.819l1.079 0.108zm-1.775 0c-0.276-1.008-0.791-2.291-1.116-2.843l-0.672-0.084c0.252 0.708 0.577 1.955 0.709 2.819l1.079 0.108z" fill="#292929"/></g><g transform="translate(352.34 374.62)"><path d="m0 0 0.768-2.951c0.168-0.647 0.324-1.247 0.431-1.847h0.036c0.132 0.588 0.325 1.212 0.516 1.835l0.947 2.963h0.888l0.899-2.902c0.216-0.696 0.384-1.308 0.516-1.896h0.036c0.097 0.588 0.252 1.2 0.444 1.884l0.828 2.914h1.044l-1.872-5.805h-0.96l-0.887 2.77c-0.203 0.648-0.371 1.223-0.516 1.907h-0.023c-0.145-0.695-0.324-1.295-0.529-1.919l-0.935-2.758h-0.959l-1.751 5.805h1.079z" fill="#292929"/></g><path d="m360.75 374.62h1.056v-5.805h-1.056v5.805zm1.176 1.631c0.012-0.359-0.252-0.648-0.672-0.648-0.372 0-0.636 0.289-0.636 0.648 0 0.371 0.277 0.66 0.66 0.66 0.396 0 0.648-0.289 0.648-0.66" fill="#292929"/><g transform="translate(364.83 376.28)"><path d="m0 0v-1.666h1.512v-0.804h-1.512v-3.13c0-0.72 0.204-1.128 0.792-1.128 0.275 0 0.479 0.037 0.611 0.072l0.048-0.791c-0.204-0.084-0.527-0.145-0.935-0.145-0.492 0-0.888 0.156-1.14 0.445-0.3 0.311-0.407 0.827-0.407 1.51v3.167h-0.9v0.804h0.9v1.391l1.031 0.275z" fill="#292929"/></g><g transform="translate(367.53 377.33)"><path d="m0 0h1.056v-3.622h0.023c0.168 0.301 0.432 0.564 0.756 0.744 0.311 0.18 0.684 0.299 1.079 0.299 0.779 0 2.027-0.479 2.027-2.483v-3.453h-1.055v3.334c0 0.936-0.348 1.727-1.344 1.727-0.684 0-1.223-0.48-1.415-1.055-0.06-0.144-0.071-0.301-0.071-0.504v-3.502h-1.056v8.515z" fill="#292929"/></g><g transform="translate(379.79 371.77)"><path d="m0 0c-1.151 0.024-2.459-0.181-2.459-1.308 0-0.683 0.456-1.007 0.996-1.007 0.755 0 1.235 0.48 1.403 0.972 0.036 0.108 0.06 0.228 0.06 0.336v1.007zm0.156-2.962-0.084 0.731h-0.036c-0.324-0.456-0.947-0.864-1.775-0.864-1.175 0-1.775 0.828-1.775 1.668 0 1.403 1.247 2.17 3.49 2.158v0.121c0 0.479-0.132 1.342-1.319 1.342-0.54 0-1.103-0.168-1.511-0.431l-0.241 0.695c0.481 0.313 1.176 0.516 1.908 0.516 1.775 0 2.207-1.211 2.207-2.374v-2.171c0-0.504 0.023-0.995 0.095-1.391h-0.959z" fill="#292929"/></g><path d="m382.52 377.33h1.056v-8.515h-1.056v8.515z" fill="#292929"/><path d="m385.35 377.33h1.056v-8.515h-1.056v8.515z" fill="#292929"/><g transform="translate(352.3 360.22)"><path d="m0 0 1.271-3.431c0.132-0.383 0.277-0.839 0.373-1.186h0.023c0.108 0.347 0.229 0.791 0.372 1.211l1.151 3.406h1.116l-1.583-4.139c-0.756-1.99-1.272-3.009-1.992-3.632-0.515-0.458-1.031-0.637-1.294-0.684l-0.264 0.887c0.264 0.084 0.611 0.252 0.924 0.515 0.287 0.229 0.647 0.636 0.886 1.176 0.048 0.107 0.084 0.191 0.084 0.252 0 0.06-0.023 0.144-0.071 0.275l-2.147 5.35h1.151z" fill="#292929"/></g><g transform="translate(358.1 357.3)"><path d="m0 0c0-1.271 0.732-2.231 1.764-2.231 1.007 0 1.762 0.947 1.762 2.254 0 0.984-0.491 2.231-1.739 2.231-1.247 0-1.787-1.151-1.787-2.254m4.605 0.059c0-2.147-1.486-3.082-2.889-3.082-1.571 0-2.783 1.152-2.783 2.986 0 1.943 1.271 3.082 2.879 3.082 1.667 0 2.793-1.211 2.793-2.986" fill="#292929"/></g><g transform="translate(368.89 355.99)"><path d="m0 0c0-0.6 0.012-1.127 0.048-1.582h-0.936l-0.059 0.947h-0.025c-0.275-0.469-0.886-1.08-1.919-1.08-0.911 0-2.003 0.504-2.003 2.543v3.395h1.056v-3.215c0-1.104 0.336-1.847 1.296-1.847 0.707 0 1.199 0.491 1.391 0.96 0.06 0.155 0.095 0.348 0.095 0.539v3.563h1.056v-4.223z" fill="#292929"/></g><g transform="translate(370.65 358.4)"><path d="m0 0c0 0.684-0.012 1.271-0.048 1.812h0.923l0.036-1.14h0.048c0.264 0.779 0.899 1.27 1.607 1.27 0.121 0 0.205-0.011 0.3-0.035v-0.996c-0.108 0.025-0.216 0.037-0.359 0.037-0.744 0-1.272-0.564-1.416-1.355-0.024-0.145-0.048-0.313-0.048-0.492v-3.094h-1.043v3.993z" fill="#292929"/></g><g transform="translate(376.97 355.49)"><path d="m0 0c0.312-0.204 0.864-0.42 1.392-0.42 0.767 0 1.127 0.384 1.127 0.863 0 0.504-0.3 0.781-1.08 1.068-1.043 0.372-1.535 0.947-1.535 1.643 0 0.935 0.756 1.702 2.003 1.702 0.588 0 1.104-0.167 1.428-0.359l-0.265-0.768c-0.227 0.145-0.647 0.336-1.186 0.336-0.624 0-0.972-0.359-0.972-0.791 0-0.48 0.348-0.695 1.104-0.984 1.006-0.383 1.522-0.887 1.522-1.75 0-1.019-0.791-1.74-2.171-1.74-0.635 0-1.222 0.156-1.631 0.396l0.264 0.804z" fill="#292929"/></g><g transform="translate(383.14 361.88)"><path d="m0 0v-1.666h1.511v-0.804h-1.511v-3.13c0-0.72 0.203-1.128 0.791-1.128 0.276 0 0.48 0.037 0.612 0.072l0.048-0.791c-0.204-0.084-0.528-0.145-0.935-0.145-0.493 0-0.888 0.156-1.14 0.445-0.3 0.311-0.408 0.827-0.408 1.51v3.167h-0.9v0.804h0.9v1.391l1.032 0.275z" fill="#292929"/></g><g transform="translate(390.7 355.99)"><path d="m0 0c0-0.6 0.012-1.127 0.048-1.582h-0.936l-0.059 0.947h-0.025c-0.275-0.469-0.886-1.08-1.919-1.08-0.911 0-2.003 0.504-2.003 2.543v3.395h1.056v-3.215c0-1.104 0.336-1.847 1.296-1.847 0.707 0 1.199 0.491 1.391 0.96 0.06 0.155 0.095 0.348 0.095 0.539v3.563h1.056v-4.223z" fill="#292929"/></g><g transform="translate(396.04 354.41)"><path d="m0 0v5.001h-2.435v-5.001h-1.044v5.001h-0.815v0.804h0.815v0.191c0 0.816 0.193 1.524 0.649 1.979 0.335 0.336 0.815 0.54 1.463 0.54 0.336 0 0.647-0.109 0.827-0.204l-0.216-0.78c-0.155 0.073-0.384 0.145-0.623 0.145-0.828 0-1.056-0.708-1.056-1.619v-0.252h2.435v0.275c0 0.816 0.191 1.559 0.684 2.027 0.395 0.383 0.923 0.539 1.403 0.539 0.384 0 0.695-0.083 0.899-0.167l-0.132-0.816c-0.167 0.072-0.372 0.132-0.683 0.132-0.888 0-1.128-0.791-1.128-1.679v-0.311h1.403v-0.804h-1.39v-5.001h-1.056z" fill="#292929"/></g><g transform="translate(285.56 323.7)"><path d="m0 0h-9.053c-0.552 0-1 0.448-1 1v6.364c0 0.553 0.448 1 1 1h9.053c0.552 0 1-0.447 1-1v-6.364c0-0.552-0.448-1-1-1" fill="#979696"/></g><g transform="translate(271.22 323.7)"><path d="m0 0h-9.053c-0.552 0-1 0.448-1 1v6.364c0 0.553 0.448 1 1 1h9.053c0.552 0 1-0.447 1-1v-6.364c0-0.552-0.448-1-1-1" fill="#979696"/></g><g transform="translate(300.43 323.7)"><path d="m0 0h-9.053c-0.552 0-1 0.448-1 1v6.364c0 0.553 0.448 1 1 1h9.053c0.552 0 1-0.447 1-1v-6.364c0-0.552-0.448-1-1-1" fill="#979696"/></g><g transform="translate(315.3 323.7)"><path d="m0 0h-9.053c-0.552 0-1 0.448-1 1v6.364c0 0.553 0.448 1 1 1h9.053c0.552 0 1-0.447 1-1v-6.364c0-0.552-0.448-1-1-1" fill="#979696"/></g><g transform="translate(330.17 323.7)"><path d="m0 0h-9.052c-0.552 0-1 0.448-1 1v6.364c0 0.553 0.448 1 1 1h9.052c0.553 0 1-0.447 1-1v-6.364c0-0.552-0.447-1-1-1" fill="#979696"/></g><g transform="translate(285.56 312.03)"><path d="m0 0h-9.053c-0.552 0-1 0.447-1 1v6.364c0 0.552 0.448 1 1 1h9.053c0.552 0 1-0.448 1-1v-6.364c0-0.553-0.448-1-1-1" fill="#979696"/></g><g transform="translate(271.22 312.03)"><path d="m0 0h-9.053c-0.552 0-1 0.447-1 1v6.364c0 0.552 0.448 1 1 1h9.053c0.552 0 1-0.448 1-1v-6.364c0-0.553-0.448-1-1-1" fill="#979696"/></g><g transform="translate(300.43 312.03)"><path d="m0 0h-9.053c-0.552 0-1 0.447-1 1v6.364c0 0.552 0.448 1 1 1h9.053c0.552 0 1-0.448 1-1v-6.364c0-0.553-0.448-1-1-1" fill="#979696"/></g><g transform="translate(315.3 312.03)"><path d="m0 0h-9.053c-0.552 0-1 0.447-1 1v6.364c0 0.552 0.448 1 1 1h9.053c0.552 0 1-0.448 1-1v-6.364c0-0.553-0.448-1-1-1" fill="#979696"/></g><g transform="translate(330.17 312.03)"><path d="m0 0h-9.052c-0.552 0-1 0.447-1 1v6.364c0 0.552 0.448 1 1 1h9.052c0.553 0 1-0.448 1-1v-6.364c0-0.553-0.447-1-1-1" fill="#979696"/></g><g transform="translate(285.56 299.37)"><path d="m0 0h-9.053c-0.552 0-1 0.447-1 1v6.364c0 0.552 0.448 1 1 1h9.053c0.552 0 1-0.448 1-1v-6.364c0-0.553-0.448-1-1-1" fill="#979696"/></g><g transform="translate(271.22 299.37)"><path d="m0 0h-9.053c-0.552 0-1 0.447-1 1v6.364c0 0.552 0.448 1 1 1h9.053c0.552 0 1-0.448 1-1v-6.364c0-0.553-0.448-1-1-1" fill="#979696"/></g><g transform="translate(300.43 299.37)"><path d="m0 0h-9.053c-0.552 0-1 0.447-1 1v6.364c0 0.552 0.448 1 1 1h9.053c0.552 0 1-0.448 1-1v-6.364c0-0.553-0.448-1-1-1" fill="#979696"/></g><g transform="translate(315.3 299.37)"><path d="m0 0h-9.053c-0.552 0-1 0.447-1 1v6.364c0 0.552 0.448 1 1 1h9.053c0.552 0 1-0.448 1-1v-6.364c0-0.553-0.448-1-1-1" fill="#979696"/></g><g transform="translate(330.17 299.37)"><path d="m0 0h-9.052c-0.552 0-1 0.447-1 1v6.364c0 0.552 0.448 1 1 1h9.052c0.553 0 1-0.448 1-1v-6.364c0-0.553-0.447-1-1-1" fill="#979696"/></g><g transform="translate(285.56 287.7)"><path d="m0 0h-9.053c-0.552 0-1 0.448-1 1v6.364c0 0.553 0.448 1 1 1h9.053c0.552 0 1-0.447 1-1v-6.364c0-0.552-0.448-1-1-1" fill="#979696"/></g><g transform="translate(271.22 287.7)"><path d="m0 0h-9.053c-0.552 0-1 0.448-1 1v6.364c0 0.553 0.448 1 1 1h9.053c0.552 0 1-0.447 1-1v-6.364c0-0.552-0.448-1-1-1" fill="#979696"/></g><g transform="translate(300.43 287.7)"><path d="m0 0h-9.053c-0.552 0-1 0.448-1 1v6.364c0 0.553 0.448 1 1 1h9.053c0.552 0 1-0.447 1-1v-6.364c0-0.552-0.448-1-1-1" fill="#979696"/></g><g transform="translate(315.3 287.7)"><path d="m0 0h-9.053c-0.552 0-1 0.448-1 1v6.364c0 0.553 0.448 1 1 1h9.053c0.552 0 1-0.447 1-1v-6.364c0-0.552-0.448-1-1-1" fill="#979696"/></g><g transform="translate(330.17 287.7)"><path d="m0 0h-9.052c-0.552 0-1 0.448-1 1v6.364c0 0.553 0.448 1 1 1h9.052c0.553 0 1-0.447 1-1v-6.364c0-0.552-0.447-1-1-1" fill="#979696"/></g><g transform="translate(167.79 323.75)"><path d="m0 0v-1.667h1.511v-0.803h-1.511v-3.131c0-0.719 0.204-1.127 0.792-1.127 0.275 0 0.479 0.037 0.611 0.072l0.048-0.791c-0.204-0.084-0.528-0.145-0.935-0.145-0.492 0-0.888 0.156-1.14 0.445-0.3 0.311-0.408 0.827-0.408 1.51v3.167h-0.899v0.803h0.899v1.392l1.032 0.275z" fill="#373535"/></g><path d="m170.49 322.08h1.056v-5.805h-1.056v5.805zm1.175 1.632c0.012-0.36-0.252-0.649-0.671-0.649-0.372 0-0.636 0.289-0.636 0.649 0 0.371 0.276 0.659 0.66 0.659 0.395 0 0.647-0.288 0.647-0.659" fill="#373535"/><g transform="translate(173.3 320.51)"><path d="m0 0c0 0.6-0.012 1.091-0.048 1.57h0.936l0.06-0.959h0.024c0.287 0.552 0.959 1.091 1.919 1.091 0.803 0 2.05-0.479 2.05-2.47v-3.466h-1.055v3.346c0 0.936-0.348 1.715-1.344 1.715-0.695 0-1.235-0.492-1.415-1.079-0.047-0.132-0.071-0.312-0.071-0.492v-3.49h-1.056v4.234z" fill="#373535"/></g><g transform="translate(180.18 322.08)"><path d="m0 0 1.271-3.43c0.132-0.383 0.276-0.84 0.372-1.187h0.024c0.108 0.347 0.228 0.792 0.372 1.211l1.151 3.406h1.116l-1.583-4.138c-0.756-1.99-1.272-3.009-1.992-3.633-0.515-0.457-1.031-0.636-1.294-0.684l-0.265 0.888c0.265 0.084 0.612 0.252 0.924 0.515 0.288 0.228 0.648 0.636 0.887 1.176 0.048 0.107 0.084 0.191 0.084 0.251 0 0.061-0.024 0.145-0.071 0.276l-2.147 5.349h1.151z" fill="#373535"/></g><g transform="translate(188.03 316.28)"><path d="m0 0v8.084h1.139l2.591-4.09c0.6-0.947 1.067-1.799 1.451-2.627l0.024 0.013c-0.096 1.079-0.12 2.062-0.12 3.321v3.383h0.983v-8.084h-1.055l-2.566 4.102c-0.564 0.9-1.104 1.823-1.511 2.699l-0.037-0.013c0.06-1.018 0.084-1.99 0.084-3.334v-3.454h-0.983z" fill="#373535"/></g><g transform="translate(196.97 320.37)"><path d="m0 0c0.228-0.06 0.516-0.084 0.863-0.084 1.26 0 2.027 0.612 2.027 1.728 0 1.067-0.755 1.583-1.907 1.583-0.456 0-0.803-0.037-0.983-0.084v-3.143zm-1.043 3.898c0.503 0.084 1.163 0.156 2.002 0.156 1.032 0 1.787-0.24 2.267-0.672 0.444-0.384 0.708-0.971 0.708-1.691 0-0.731-0.216-1.307-0.624-1.727-0.552-0.587-1.451-0.888-2.471-0.888-0.312 0-0.599 0.013-0.839 0.072v-3.238h-1.043v7.988z" fill="#373535"/></g><g transform="translate(208.98 319.83)"><path d="m0 0c-0.06 1.128-0.132 2.483-0.12 3.49h-0.036c-0.276-0.947-0.612-1.955-1.019-3.07l-1.428-3.922h-0.791l-1.307 3.851c-0.384 1.138-0.708 2.182-0.936 3.141h-0.024c-0.024-1.007-0.084-2.362-0.156-3.573l-0.216-3.467h-0.995l0.564 8.084h1.331l1.379-3.91c0.336-0.995 0.612-1.883 0.816-2.723h0.036c0.204 0.816 0.491 1.703 0.851 2.723l1.44 3.91h1.331l0.504-8.084h-1.02l-0.204 3.55z" fill="#373535"/></g><g transform="translate(219.18 317.86)"><path d="m0 0c0-0.6 0.012-1.127 0.048-1.583h-0.936l-0.06 0.947h-0.024c-0.276-0.468-0.887-1.079-1.919-1.079-0.911 0-2.003 0.504-2.003 2.543v3.394h1.056v-3.214c0-1.104 0.336-1.847 1.296-1.847 0.707 0 1.199 0.491 1.391 0.959 0.06 0.156 0.095 0.348 0.095 0.54v3.562h1.056v-4.222z" fill="#373535"/></g><g transform="translate(222.21 323.75)"><path d="m0 0v-1.667h1.511v-0.803h-1.511v-3.131c0-0.719 0.204-1.127 0.792-1.127 0.275 0 0.479 0.037 0.611 0.072l0.048-0.791c-0.204-0.084-0.528-0.145-0.935-0.145-0.492 0-0.888 0.156-1.14 0.445-0.3 0.311-0.408 0.827-0.408 1.51v3.167h-0.899v0.803h0.899v1.392l1.032 0.275z" fill="#373535"/></g><g fill="#373535"><path d="m224.91 322.08h1.056v-5.805h-1.056v5.805zm1.175 1.632c0.012-0.36-0.252-0.649-0.671-0.649-0.372 0-0.636 0.289-0.636 0.649 0 0.371 0.276 0.659 0.66 0.659 0.395 0 0.647-0.288 0.647-0.659"/><path d="m227.72 324.79h1.056v-8.516h-1.056v8.516z"/><path d="m230.55 322.08h1.056v-5.805h-1.056v5.805zm1.175 1.632c0.012-0.36-0.252-0.649-0.671-0.649-0.372 0-0.636 0.289-0.636 0.649 0 0.371 0.276 0.659 0.66 0.659 0.395 0 0.647-0.288 0.647-0.659"/></g><g transform="translate(234.63 323.75)"><path d="m0 0v-1.667h1.511v-0.803h-1.511v-3.131c0-0.719 0.204-1.127 0.792-1.127 0.275 0 0.479 0.037 0.611 0.072l0.048-0.791c-0.204-0.084-0.528-0.145-0.935-0.145-0.492 0-0.888 0.156-1.14 0.445-0.3 0.311-0.408 0.827-0.408 1.51v3.167h-0.899v0.803h0.899v1.392l1.032 0.275z" fill="#373535"/></g><path d="m237.33 322.08h1.056v-5.805h-1.056v5.805zm1.175 1.632c0.012-0.36-0.252-0.649-0.671-0.649-0.373 0-0.636 0.289-0.636 0.649 0 0.371 0.276 0.659 0.659 0.659 0.396 0 0.648-0.288 0.648-0.659" fill="#373535"/><g transform="translate(243.82 319.74)"><path d="m0 0c0.012 0.671-0.276 1.715-1.463 1.715-1.068 0-1.536-0.984-1.62-1.715h3.083zm-3.094-0.756c0.024-1.428 0.935-2.015 1.99-2.015 0.756 0 1.212 0.132 1.607 0.3l0.181-0.756c-0.372-0.168-1.008-0.36-1.932-0.36-1.787 0-2.854 1.176-2.854 2.927s1.032 3.13 2.723 3.13c1.895 0 2.399-1.667 2.399-2.735 0-0.215-0.025-0.383-0.037-0.491h-4.077z" fill="#373535"/></g><g transform="translate(246 317.36)"><path d="m0 0c0.312-0.204 0.864-0.42 1.392-0.42 0.767 0 1.127 0.384 1.127 0.863 0 0.504-0.3 0.78-1.08 1.068-1.043 0.372-1.535 0.947-1.535 1.643 0 0.935 0.756 1.702 2.003 1.702 0.588 0 1.103-0.167 1.427-0.359l-0.264-0.768c-0.227 0.144-0.647 0.336-1.187 0.336-0.624 0-0.971-0.36-0.971-0.792 0-0.479 0.347-0.695 1.103-0.983 1.007-0.384 1.523-0.888 1.523-1.751 0-1.019-0.791-1.739-2.171-1.739-0.635 0-1.223 0.156-1.631 0.396l0.264 0.804z" fill="#373535"/></g><g transform="translate(250.08 314.8)"><path d="m0 0c0.264 0.707 0.588 1.99 0.72 2.866l1.175 0.12c-0.276-1.019-0.804-2.35-1.14-2.915l-0.755-0.071z" fill="#373535"/></g><g transform="translate(157.94 302.49)"><path d="m0 0 2.626 3.418c0.252 0.312 0.492 0.588 0.756 0.899v0.025h-3.142v0.851h4.426l-0.013-0.66-2.59-3.37c-0.24-0.323-0.48-0.611-0.744-0.911v-0.024h3.394v-0.839h-4.713v0.611z" fill="#373535"/></g><g fill="#373535"><path d="m163.73 307.68h1.056v-5.805h-1.056v5.805zm1.175 1.63c0.012-0.359-0.252-0.647-0.671-0.647-0.372 0-0.636 0.288-0.636 0.647 0 0.373 0.276 0.661 0.66 0.661 0.395 0 0.647-0.288 0.647-0.661"/><path d="m166.54 310.39h1.056v-8.515h-1.056v8.515z"/><path d="m169.37 310.39h1.056v-8.515h-1.056v8.515z"/><path d="m172.2 307.68h1.056v-5.805h-1.056v5.805zm1.175 1.63c0.012-0.359-0.252-0.647-0.671-0.647-0.373 0-0.636 0.288-0.636 0.647 0 0.373 0.276 0.661 0.659 0.661 0.396 0 0.648-0.288 0.648-0.661"/></g><g transform="translate(175.66 304.77)"><path d="m0 0c0-1.271 0.732-2.231 1.763-2.231 1.008 0 1.763 0.947 1.763 2.254 0 0.984-0.491 2.231-1.739 2.231-1.247 0-1.787-1.151-1.787-2.254m4.605 0.06c0-2.147-1.486-3.082-2.89-3.082-1.571 0-2.782 1.151-2.782 2.986 0 1.942 1.271 3.082 2.878 3.082 1.668 0 2.794-1.211 2.794-2.986" fill="#373535"/></g><g transform="translate(181.6 306.11)"><path d="m0 0c0 0.6-0.012 1.092-0.048 1.571h0.936l0.059-0.96h0.025c0.287 0.552 0.959 1.092 1.919 1.092 0.803 0 2.05-0.479 2.05-2.471v-3.465h-1.055v3.345c0 0.936-0.348 1.715-1.344 1.715-0.695 0-1.235-0.491-1.415-1.079-0.047-0.132-0.071-0.311-0.071-0.491v-3.49h-1.056v4.233z" fill="#373535"/></g><g transform="translate(188.12 302.96)"><path d="m0 0c0.312-0.204 0.864-0.42 1.392-0.42 0.767 0 1.127 0.384 1.127 0.863 0 0.504-0.3 0.781-1.08 1.068-1.043 0.372-1.535 0.948-1.535 1.643 0 0.936 0.756 1.703 2.003 1.703 0.588 0 1.103-0.168 1.427-0.359l-0.264-0.768c-0.227 0.144-0.647 0.335-1.187 0.335-0.624 0-0.971-0.359-0.971-0.791 0-0.479 0.347-0.695 1.103-0.983 1.007-0.384 1.523-0.888 1.523-1.751 0-1.019-0.791-1.739-2.171-1.739-0.635 0-1.223 0.156-1.631 0.395l0.264 0.804z" fill="#373535"/></g><g transform="translate(196.2 304.77)"><path d="m0 0c0-1.271 0.732-2.231 1.763-2.231 1.008 0 1.763 0.947 1.763 2.254 0 0.984-0.491 2.231-1.739 2.231-1.247 0-1.787-1.151-1.787-2.254m4.605 0.06c0-2.147-1.486-3.082-2.89-3.082-1.571 0-2.782 1.151-2.782 2.986 0 1.942 1.271 3.082 2.878 3.082 1.668 0 2.794-1.211 2.794-2.986" fill="#373535"/></g><g transform="translate(202.25 301.88)"><path d="m0 0v5.001h-0.815v0.804h0.815v0.275c0 0.816 0.18 1.56 0.672 2.027 0.395 0.384 0.923 0.54 1.415 0.54 0.371 0 0.696-0.084 0.899-0.168l-0.144-0.816c-0.155 0.072-0.371 0.133-0.671 0.133-0.9 0-1.128-0.792-1.128-1.68v-0.311h1.404v-0.804h-1.404v-5.001h-1.043z" fill="#373535"/></g><g transform="translate(214.38 302.24)"><path d="m0 0c-0.468-0.168-1.391-0.443-2.482-0.443-1.224 0-2.231 0.311-3.023 1.067-0.695 0.672-1.127 1.751-1.127 3.01 0.012 2.411 1.667 4.174 4.378 4.174 0.935 0 1.667-0.204 2.014-0.371l-0.252-0.852c-0.431 0.191-0.971 0.348-1.787 0.348-1.967 0-3.25-1.224-3.25-3.25 0-2.052 1.236-3.263 3.118-3.263 0.684 0 1.152 0.096 1.391 0.216v2.411h-1.643v0.839h2.663v-3.886z" fill="#373535"/></g><path d="m215.94 307.68h1.056v-5.805h-1.056v5.805zm1.176 1.63c0.012-0.359-0.252-0.647-0.672-0.647-0.372 0-0.635 0.288-0.635 0.647 0 0.373 0.275 0.661 0.659 0.661 0.396 0 0.648-0.288 0.648-0.661" fill="#373535"/><g transform="translate(220.02 309.35)"><path d="m0 0v-1.667h1.511v-0.804h-1.511v-3.13c0-0.719 0.204-1.128 0.792-1.128 0.275 0 0.479 0.037 0.611 0.073l0.048-0.792c-0.204-0.084-0.528-0.144-0.935-0.144-0.492 0-0.888 0.156-1.14 0.444-0.3 0.312-0.408 0.828-0.408 1.511v3.166h-0.899v0.804h0.899v1.391l1.032 0.276z" fill="#373535"/></g><g transform="translate(225.27 305.87)"><path d="m0 0c0 0.684-0.012 1.271-0.048 1.812h0.923l0.037-1.14h0.047c0.264 0.779 0.9 1.271 1.607 1.271 0.121 0 0.205-0.011 0.301-0.036v-0.995c-0.109 0.024-0.217 0.036-0.36 0.036-0.744 0-1.272-0.564-1.416-1.355-0.024-0.145-0.048-0.312-0.048-0.492v-3.094h-1.043v3.993z" fill="#373535"/></g><g transform="translate(232.75 305.34)"><path d="m0 0c0.012 0.672-0.276 1.715-1.463 1.715-1.068 0-1.536-0.984-1.62-1.715h3.083zm-3.094-0.756c0.024-1.427 0.935-2.015 1.99-2.015 0.756 0 1.212 0.132 1.607 0.3l0.181-0.756c-0.372-0.168-1.008-0.359-1.932-0.359-1.787 0-2.854 1.175-2.854 2.927 0 1.751 1.032 3.13 2.723 3.13 1.895 0 2.399-1.667 2.399-2.735 0-0.215-0.025-0.383-0.037-0.492h-4.077z" fill="#373535"/></g><g transform="translate(236.13 304.24)"><path d="m0 0c0-0.156 0.024-0.3 0.048-0.432 0.192-0.731 0.827-1.235 1.583-1.235 1.116 0 1.763 0.911 1.763 2.243 0 1.163-0.611 2.158-1.727 2.158-0.72 0-1.391-0.515-1.595-1.306-0.036-0.132-0.072-0.288-0.072-0.433v-0.995zm-1.043 1.547c0 0.744-0.024 1.344-0.048 1.895h0.947l0.048-0.995h0.024c0.432 0.707 1.115 1.127 2.063 1.127 1.403 0 2.459-1.187 2.459-2.95 0-2.087-1.272-3.118-2.639-3.118-0.768 0-1.439 0.336-1.787 0.911h-0.024v-3.154h-1.043v6.284z" fill="#373535"/></g><g transform="translate(242.56 304.77)"><path d="m0 0c0-1.271 0.732-2.231 1.763-2.231 1.008 0 1.763 0.947 1.763 2.254 0 0.984-0.491 2.231-1.739 2.231-1.247 0-1.787-1.151-1.787-2.254m4.605 0.06c0-2.147-1.486-3.082-2.89-3.082-1.571 0-2.782 1.151-2.782 2.986 0 1.942 1.271 3.082 2.878 3.082 1.668 0 2.794-1.211 2.794-2.986" fill="#373535"/></g><g transform="translate(248.35 302.96)"><path d="m0 0c0.312-0.204 0.864-0.42 1.392-0.42 0.767 0 1.127 0.384 1.127 0.863 0 0.504-0.3 0.781-1.08 1.068-1.043 0.372-1.535 0.948-1.535 1.643 0 0.936 0.756 1.703 2.003 1.703 0.588 0 1.104-0.168 1.427-0.359l-0.264-0.768c-0.227 0.144-0.647 0.335-1.187 0.335-0.624 0-0.971-0.359-0.971-0.791 0-0.479 0.347-0.695 1.103-0.983 1.007-0.384 1.523-0.888 1.523-1.751 0-1.019-0.791-1.739-2.171-1.739-0.635 0-1.223 0.156-1.631 0.395l0.264 0.804z" fill="#373535"/></g><g transform="translate(330.29 396.28)"><path d="m0 0h-67.5c-0.552 0-1 0.448-1 1v16c0 0.552 0.448 1 1 1h67.5c0.553 0 1-0.448 1-1v-16c0-0.552-0.447-1-1-1" fill="#5878ba"/></g><g transform="translate(211.78 381.24)"><path d="m0 0c0-0.156 0.024-0.3 0.048-0.432 0.192-0.731 0.827-1.235 1.583-1.235 1.116 0 1.763 0.911 1.763 2.243 0 1.163-0.611 2.158-1.727 2.158-0.72 0-1.391-0.515-1.595-1.306-0.036-0.132-0.072-0.288-0.072-0.433v-0.995zm-1.043 1.547c0 0.744-0.024 1.344-0.048 1.895h0.947l0.048-0.995h0.024c0.432 0.707 1.115 1.127 2.063 1.127 1.403 0 2.459-1.187 2.459-2.95 0-2.087-1.272-3.118-2.639-3.118-0.768 0-1.439 0.336-1.787 0.911h-0.024v-3.154h-1.043v6.284z" fill="#373535"/></g><g transform="translate(217.56 382.87)"><path d="m0 0c0 0.684-0.012 1.271-0.048 1.812h0.923l0.037-1.14h0.047c0.264 0.779 0.9 1.271 1.607 1.271 0.121 0 0.205-0.011 0.301-0.036v-0.995c-0.109 0.024-0.217 0.036-0.36 0.036-0.744 0-1.272-0.564-1.416-1.355-0.024-0.145-0.048-0.312-0.048-0.492v-3.094h-1.043v3.993z" fill="#373535"/></g><g transform="translate(222.01 381.77)"><path d="m0 0c0-1.271 0.732-2.231 1.763-2.231 1.008 0 1.763 0.947 1.763 2.254 0 0.984-0.491 2.231-1.739 2.231-1.247 0-1.787-1.151-1.787-2.254m4.605 0.06c0-2.147-1.486-3.082-2.89-3.082-1.571 0-2.782 1.151-2.782 2.986 0 1.942 1.271 3.082 2.878 3.082 1.668 0 2.794-1.211 2.794-2.986" fill="#373535"/></g><g transform="translate(229 381.24)"><path d="m0 0c0-0.156 0.024-0.3 0.048-0.432 0.192-0.731 0.827-1.235 1.583-1.235 1.116 0 1.763 0.911 1.763 2.243 0 1.163-0.611 2.158-1.727 2.158-0.72 0-1.391-0.515-1.595-1.306-0.036-0.132-0.072-0.288-0.072-0.433v-0.995zm-1.043 1.547c0 0.744-0.024 1.344-0.048 1.895h0.947l0.048-0.995h0.024c0.432 0.707 1.115 1.127 2.063 1.127 1.403 0 2.459-1.187 2.459-2.95 0-2.087-1.272-3.118-2.639-3.118-0.768 0-1.439 0.336-1.787 0.911h-0.024v-3.154h-1.043v6.284z" fill="#373535"/></g><g transform="translate(238.46 382.34)"><path d="m0 0c0.012 0.672-0.276 1.715-1.463 1.715-1.068 0-1.536-0.984-1.62-1.715h3.083zm-3.094-0.756c0.024-1.427 0.935-2.015 1.99-2.015 0.756 0 1.212 0.132 1.607 0.3l0.181-0.756c-0.372-0.168-1.008-0.359-1.932-0.359-1.787 0-2.854 1.175-2.854 2.927 0 1.751 1.032 3.13 2.723 3.13 1.895 0 2.399-1.667 2.399-2.735 0-0.215-0.025-0.383-0.037-0.492h-4.077z" fill="#373535"/></g><g transform="translate(240.79 382.87)"><path d="m0 0c0 0.684-0.012 1.271-0.048 1.812h0.923l0.037-1.14h0.047c0.264 0.779 0.9 1.271 1.607 1.271 0.121 0 0.205-0.011 0.3-0.036v-0.995c-0.108 0.024-0.216 0.036-0.359 0.036-0.744 0-1.272-0.564-1.416-1.355-0.024-0.145-0.048-0.312-0.048-0.492v-3.094h-1.043v3.993z" fill="#373535"/></g><path d="m244.77 387.39h1.056v-8.515h-1.056v8.515z" fill="#373535"/><g transform="translate(247.98 384.68)"><path d="m0 0 1.271-3.431c0.132-0.383 0.276-0.839 0.372-1.186h0.024c0.108 0.347 0.228 0.791 0.372 1.211l1.151 3.406h1.116l-1.583-4.138c-0.756-1.991-1.272-3.01-1.992-3.633-0.515-0.457-1.031-0.636-1.294-0.684l-0.265 0.887c0.265 0.084 0.612 0.252 0.924 0.515 0.288 0.229 0.648 0.636 0.887 1.176 0.048 0.108 0.084 0.192 0.084 0.252s-0.024 0.144-0.071 0.275l-2.147 5.35h1.151z" fill="#373535"/></g><g transform="translate(189.48 364.48)"><path d="m0 0v5.002h-0.815v0.803h0.815v0.276c0 0.815 0.18 1.559 0.672 2.026 0.395 0.384 0.923 0.54 1.415 0.54 0.371 0 0.696-0.084 0.899-0.168l-0.144-0.815c-0.155 0.072-0.371 0.132-0.671 0.132-0.9 0-1.128-0.792-1.128-1.679v-0.312h1.404v-0.803h-1.404v-5.002h-1.043z" fill="#373535"/></g><g transform="translate(195.94 367.44)"><path d="m0 0c-1.151 0.023-2.458-0.181-2.458-1.308 0-0.683 0.456-1.007 0.995-1.007 0.755 0 1.235 0.48 1.403 0.971 0.036 0.109 0.06 0.229 0.06 0.336v1.008zm0.156-2.963-0.084 0.732h-0.036c-0.324-0.456-0.947-0.864-1.775-0.864-1.175 0-1.775 0.828-1.775 1.667 0 1.404 1.247 2.171 3.49 2.159v0.121c0 0.479-0.132 1.342-1.319 1.342-0.54 0-1.103-0.168-1.511-0.431l-0.24 0.695c0.48 0.313 1.175 0.516 1.907 0.516 1.775 0 2.207-1.211 2.207-2.374v-2.171c0-0.504 0.023-0.995 0.096-1.392h-0.96z" fill="#373535"/></g><g transform="translate(202.8 364.69)"><path d="m0 0c-0.276-0.144-0.887-0.336-1.667-0.336-1.751 0-2.891 1.188-2.891 2.963 0 1.787 1.224 3.082 3.119 3.082 0.624 0 1.175-0.155 1.463-0.3l-0.24-0.815c-0.252 0.143-0.647 0.275-1.223 0.275-1.332 0-2.051-0.983-2.051-2.194 0-1.343 0.864-2.171 2.015-2.171 0.6 0 0.996 0.156 1.295 0.288l0.18-0.792z" fill="#373535"/></g><g transform="translate(205.47 371.95)"><path d="m0 0v-1.667h1.511v-0.803h-1.511v-3.131c0-0.719 0.204-1.127 0.792-1.127 0.275 0 0.479 0.037 0.611 0.072l0.048-0.791c-0.204-0.084-0.528-0.145-0.935-0.145-0.492 0-0.888 0.156-1.14 0.445-0.3 0.311-0.408 0.827-0.408 1.51v3.167h-0.899v0.803h0.899v1.392l1.032 0.275z" fill="#373535"/></g><g transform="translate(208.74 367.37)"><path d="m0 0c0-1.271 0.732-2.23 1.763-2.23 1.008 0 1.763 0.947 1.763 2.254 0 0.984-0.491 2.231-1.739 2.231-1.247 0-1.787-1.151-1.787-2.255m4.605 0.06c0-2.147-1.486-3.082-2.89-3.082-1.571 0-2.782 1.151-2.782 2.986 0 1.943 1.271 3.082 2.878 3.082 1.668 0 2.794-1.211 2.794-2.986" fill="#373535"/></g><g transform="translate(214.68 368.47)"><path d="m0 0c0 0.684-0.012 1.271-0.048 1.811h0.923l0.037-1.139h0.047c0.264 0.779 0.9 1.27 1.607 1.27 0.121 0 0.205-0.011 0.301-0.035v-0.996c-0.109 0.025-0.217 0.036-0.36 0.036-0.744 0-1.272-0.563-1.416-1.355-0.024-0.144-0.048-0.312-0.048-0.491v-3.095h-1.043v3.994z" fill="#373535"/></g><g transform="translate(222.17 367.94)"><path d="m0 0c0.012 0.671-0.276 1.715-1.463 1.715-1.068 0-1.536-0.984-1.62-1.715h3.083zm-3.094-0.756c0.024-1.428 0.935-2.015 1.99-2.015 0.756 0 1.212 0.132 1.607 0.3l0.181-0.756c-0.372-0.168-1.008-0.36-1.932-0.36-1.787 0-2.854 1.176-2.854 2.927s1.032 3.13 2.723 3.13c1.895 0 2.399-1.667 2.399-2.735 0-0.215-0.025-0.383-0.037-0.491h-4.077z" fill="#373535"/></g><g transform="translate(228.46 367.92)"><path d="m0 0c0 0.132-0.012 0.312-0.048 0.443-0.156 0.672-0.732 1.224-1.523 1.224-1.092 0-1.74-0.959-1.74-2.243 0-1.175 0.576-2.147 1.716-2.147 0.707 0 1.355 0.468 1.547 1.26 0.036 0.144 0.048 0.287 0.048 0.455v1.008zm1.055 5.073v-7.016c0-0.516 0.012-1.103 0.048-1.499h-0.947l-0.048 1.007h-0.024c-0.324-0.647-1.032-1.139-1.979-1.139-1.403 0-2.483 1.187-2.483 2.95-0.012 1.932 1.188 3.118 2.603 3.118 0.887 0 1.487-0.419 1.751-0.887h0.024v3.466h1.055z" fill="#373535"/></g><g transform="translate(236.87 367.44)"><path d="m0 0c-1.151 0.023-2.458-0.181-2.458-1.308 0-0.683 0.456-1.007 0.995-1.007 0.755 0 1.235 0.48 1.403 0.971 0.036 0.109 0.06 0.229 0.06 0.336v1.008zm0.156-2.963-0.084 0.732h-0.036c-0.324-0.456-0.947-0.864-1.775-0.864-1.175 0-1.775 0.828-1.775 1.667 0 1.404 1.247 2.171 3.49 2.159v0.121c0 0.479-0.132 1.342-1.319 1.342-0.54 0-1.103-0.168-1.511-0.431l-0.24 0.695c0.48 0.313 1.175 0.516 1.907 0.516 1.775 0 2.207-1.211 2.207-2.374v-2.171c0-0.504 0.023-0.995 0.096-1.392h-0.96z" fill="#373535"/></g><g transform="translate(240.64 366.84)"><path d="m0 0c0-0.156 0.024-0.3 0.048-0.432 0.192-0.732 0.827-1.235 1.583-1.235 1.116 0 1.763 0.911 1.763 2.242 0 1.163-0.611 2.159-1.727 2.159-0.72 0-1.391-0.515-1.595-1.307-0.036-0.132-0.072-0.288-0.072-0.432v-0.995zm-1.043 1.547c0 0.743-0.024 1.343-0.048 1.894h0.947l0.048-0.995h0.024c0.432 0.708 1.115 1.127 2.063 1.127 1.403 0 2.459-1.186 2.459-2.95 0-2.087-1.272-3.118-2.639-3.118-0.768 0-1.439 0.336-1.787 0.912h-0.024v-3.154h-1.043v6.284z" fill="#373535"/></g><g transform="translate(247.47 366.84)"><path d="m0 0c0-0.156 0.024-0.3 0.048-0.432 0.192-0.732 0.827-1.235 1.583-1.235 1.116 0 1.763 0.911 1.763 2.242 0 1.163-0.612 2.159-1.727 2.159-0.72 0-1.391-0.515-1.595-1.307-0.036-0.132-0.072-0.288-0.072-0.432v-0.995zm-1.043 1.547c0 0.743-0.024 1.343-0.048 1.894h0.947l0.048-0.995h0.024c0.432 0.708 1.115 1.127 2.063 1.127 1.403 0 2.459-1.186 2.459-2.95 0-2.087-1.272-3.118-2.639-3.118-0.768 0-1.439 0.336-1.787 0.912h-0.024v-3.154h-1.043v6.284z" fill="#373535"/></g><g transform="translate(194.06 350.29)"><path d="m0 0c-0.276-0.144-0.887-0.336-1.667-0.336-1.751 0-2.891 1.188-2.891 2.963 0 1.787 1.224 3.082 3.119 3.082 0.624 0 1.175-0.155 1.463-0.3l-0.24-0.815c-0.252 0.143-0.647 0.275-1.223 0.275-1.332 0-2.051-0.983-2.051-2.194 0-1.343 0.864-2.171 2.015-2.171 0.6 0 0.996 0.156 1.295 0.288l0.18-0.792z" fill="#373535"/></g><g transform="translate(195.88 352.97)"><path d="m0 0c0-1.271 0.732-2.23 1.763-2.23 1.008 0 1.763 0.947 1.763 2.254 0 0.984-0.491 2.231-1.739 2.231-1.247 0-1.787-1.151-1.787-2.255m4.605 0.06c0-2.147-1.486-3.082-2.89-3.082-1.571 0-2.782 1.151-2.782 2.986 0 1.943 1.271 3.082 2.878 3.082 1.668 0 2.794-1.211 2.794-2.986" fill="#373535"/></g><g transform="translate(201.82 354.31)"><path d="m0 0c0 0.6-0.012 1.091-0.048 1.57h0.923l0.048-0.935h0.036c0.324 0.552 0.864 1.067 1.824 1.067 0.791 0 1.391-0.479 1.643-1.163h0.024c0.179 0.324 0.407 0.576 0.647 0.756 0.348 0.264 0.732 0.407 1.283 0.407 0.768 0 1.908-0.503 1.908-2.518v-3.418h-1.032v3.286c0 1.115-0.408 1.787-1.259 1.787-0.6 0-1.068-0.443-1.247-0.959-0.048-0.145-0.084-0.336-0.084-0.528v-3.586h-1.032v3.478c0 0.923-0.408 1.595-1.211 1.595-0.66 0-1.14-0.527-1.308-1.056-0.059-0.155-0.084-0.335-0.084-0.515v-3.502h-1.031v4.234z" fill="#373535"/></g><g transform="translate(212.87 352.44)"><path d="m0 0c0-0.156 0.024-0.3 0.048-0.432 0.192-0.732 0.827-1.235 1.583-1.235 1.116 0 1.763 0.911 1.763 2.242 0 1.163-0.611 2.159-1.727 2.159-0.72 0-1.391-0.515-1.595-1.307-0.036-0.132-0.072-0.288-0.072-0.432v-0.995zm-1.043 1.547c0 0.743-0.024 1.343-0.048 1.894h0.947l0.048-0.995h0.024c0.432 0.708 1.115 1.127 2.063 1.127 1.403 0 2.459-1.186 2.459-2.95 0-2.087-1.272-3.118-2.639-3.118-0.768 0-1.439 0.336-1.787 0.912h-0.024v-3.154h-1.043v6.284z" fill="#373535"/></g><g transform="translate(219.3 352.97)"><path d="m0 0c0-1.271 0.732-2.23 1.763-2.23 1.008 0 1.763 0.947 1.763 2.254 0 0.984-0.491 2.231-1.739 2.231-1.247 0-1.787-1.151-1.787-2.255m4.605 0.06c0-2.147-1.486-3.082-2.89-3.082-1.571 0-2.782 1.151-2.782 2.986 0 1.943 1.271 3.082 2.878 3.082 1.668 0 2.794-1.211 2.794-2.986" fill="#373535"/></g><g transform="translate(225.24 354.31)"><path d="m0 0c0 0.6-0.012 1.091-0.048 1.57h0.936l0.059-0.959h0.025c0.287 0.552 0.959 1.091 1.919 1.091 0.803 0 2.05-0.479 2.05-2.47v-3.466h-1.055v3.346c0 0.936-0.348 1.715-1.344 1.715-0.695 0-1.235-0.492-1.415-1.079-0.047-0.132-0.071-0.312-0.071-0.492v-3.49h-1.056v4.234z" fill="#373535"/></g><g transform="translate(235.58 353.54)"><path d="m0 0c0.012 0.671-0.276 1.715-1.463 1.715-1.068 0-1.536-0.984-1.62-1.715h3.083zm-3.094-0.756c0.024-1.428 0.935-2.015 1.99-2.015 0.756 0 1.212 0.132 1.607 0.3l0.181-0.756c-0.372-0.168-1.008-0.36-1.932-0.36-1.787 0-2.854 1.176-2.854 2.927s1.032 3.13 2.723 3.13c1.895 0 2.399-1.667 2.399-2.735 0-0.215-0.025-0.383-0.037-0.491h-4.077z" fill="#373535"/></g><g transform="translate(237.91 354.31)"><path d="m0 0c0 0.6-0.012 1.091-0.048 1.57h0.936l0.06-0.959h0.024c0.287 0.552 0.959 1.091 1.919 1.091 0.803 0 2.05-0.479 2.05-2.47v-3.466h-1.055v3.346c0 0.936-0.348 1.715-1.344 1.715-0.695 0-1.235-0.492-1.415-1.079-0.047-0.132-0.071-0.312-0.071-0.492v-3.49h-1.056v4.234z" fill="#373535"/></g><g transform="translate(245.8 357.55)"><path d="m0 0v-1.667h1.511v-0.803h-1.511v-3.131c0-0.719 0.204-1.127 0.792-1.127 0.275 0 0.479 0.037 0.611 0.072l0.048-0.791c-0.204-0.084-0.528-0.145-0.935-0.145-0.492 0-0.888 0.156-1.14 0.445-0.3 0.311-0.408 0.827-0.408 1.51v3.167h-0.899v0.803h0.899v1.392l1.032 0.275z" fill="#373535"/></g><g transform="translate(248.35 351.16)"><path d="m0 0c0.312-0.204 0.864-0.42 1.392-0.42 0.767 0 1.127 0.384 1.127 0.863 0 0.504-0.3 0.78-1.08 1.068-1.043 0.372-1.535 0.947-1.535 1.643 0 0.935 0.756 1.702 2.003 1.702 0.588 0 1.104-0.167 1.427-0.359l-0.264-0.768c-0.227 0.144-0.647 0.336-1.187 0.336-0.624 0-0.971-0.36-0.971-0.792 0-0.479 0.347-0.695 1.103-0.983 1.007-0.384 1.523-0.888 1.523-1.751 0-1.019-0.791-1.739-2.171-1.739-0.635 0-1.223 0.156-1.631 0.396l0.264 0.804z" fill="#373535"/></g><g transform="translate(279.9 376.72)"><path d="m0 0h-17.112c-0.553 0-1 0.448-1 1v8.807c0 0.552 0.447 1 1 1h17.112c0.552 0 1-0.448 1-1v-8.807c0-0.552-0.448-1-1-1" fill="#45b654"/></g><g transform="translate(330.17 376.72)"><path d="m0 0h-17.112c-0.552 0-1 0.448-1 1v8.807c0 0.552 0.448 1 1 1h17.112c0.553 0 1-0.448 1-1v-8.807c0-0.552-0.447-1-1-1" fill="#45b654"/></g><g transform="translate(305.04 376.72)"><path d="m0 0h-17.112c-0.553 0-1 0.448-1 1v8.807c0 0.552 0.447 1 1 1h17.112c0.552 0 1-0.448 1-1v-8.807c0-0.552-0.448-1-1-1" fill="#45b654"/></g><g transform="translate(279.9 360.97)"><path d="m0 0h-17.112c-0.553 0-1 0.448-1 1v8.807c0 0.552 0.447 1 1 1h17.112c0.552 0 1-0.448 1-1v-8.807c0-0.552-0.448-1-1-1" fill="#45b654"/></g><g transform="translate(330.17 360.97)"><path d="m0 0h-17.112c-0.552 0-1 0.448-1 1v8.807c0 0.552 0.448 1 1 1h17.112c0.553 0 1-0.448 1-1v-8.807c0-0.552-0.447-1-1-1" fill="#45b654"/></g><g transform="translate(305.04 360.97)"><path d="m0 0h-17.112c-0.553 0-1 0.448-1 1v8.807c0 0.552 0.447 1 1 1h17.112c0.552 0 1-0.448 1-1v-8.807c0-0.552-0.448-1-1-1" fill="#45b654"/></g><g transform="translate(279.9 345.22)"><path d="m0 0h-17.112c-0.553 0-1 0.448-1 1v8.807c0 0.552 0.447 1 1 1h17.112c0.552 0 1-0.448 1-1v-8.807c0-0.552-0.448-1-1-1" fill="#45b654"/></g><g transform="translate(330.17 345.22)"><path d="m0 0h-17.112c-0.552 0-1 0.448-1 1v8.807c0 0.552 0.448 1 1 1h17.112c0.553 0 1-0.448 1-1v-8.807c0-0.552-0.447-1-1-1" fill="#45b654"/></g><g transform="translate(305.04 345.22)"><path d="m0 0h-17.112c-0.553 0-1 0.448-1 1v8.807c0 0.552 0.447 1 1 1h17.112c0.552 0 1-0.448 1-1v-8.807c0-0.552-0.448-1-1-1" fill="#45b654"/></g><g transform="translate(338.26 412.78)"><path d="m0 0h4.807v-68.667h-4.807" stroke="#292929" stroke-miterlimit="10" stroke-width="2" fill="none"/></g><g transform="translate(295.04 442.11)"><path d="m0 0 21.924 14.471h-9.951v19.878c0 0.278-0.342 0.504-0.763 0.504h-23.889c-0.421 0-0.762-0.226-0.762-0.504v-19.878h-9.561l21.924-14.471c0.298-0.197 0.78-0.197 1.078 0" fill="#cb5d3a"/></g></g></g></svg>
