<svg xmlns="http://www.w3.org/2000/svg" viewBox="0 0 270.97025 92.96759"><defs><style>.a{fill:#fff;}.b{fill:none;stroke:#979696;stroke-miterlimit:10;stroke-width:2px;}.c{fill:#979696;}.d{fill:#39b54a;}.e{fill:#231f20;}.f{fill:#f9ed32;}</style></defs><line class="a" x1="78.79384" y1="28.7755" x2="30.7755" y2="65.5102"/><line class="b" x1="78.79385" y1="28.77551" x2="39.21925" y2="59.0506"/><polygon class="c" points="38.989 54.837 30.775 65.51 43.226 60.375 38.989 54.837"/><line class="a" x1="238.96041" y1="28.7755" x2="190.94208" y2="65.5102"/><line class="b" x1="238.96043" y1="28.77551" x2="199.38583" y2="59.0506"/><polygon class="c" points="199.156 54.837 190.942 65.51 203.393 60.375 199.156 54.837"/><line class="a" x1="235.2099" y1="16.38662" x2="194.55684" y2="16.38589"/><line class="b" x1="235.2099" y1="16.38663" x2="205.18808" y2="16.38608"/><polygon class="c" points="207.566 12.9 194.557 16.386 207.566 19.872 207.566 12.9"/><line class="a" x1="76.12029" y1="16.38809" x2="35.46723" y2="16.38735"/><line class="b" x1="76.1203" y1="16.38809" x2="46.09846" y2="16.38754"/><polygon class="c" points="48.476 12.901 35.467 16.387 48.476 19.874 48.476 12.901"/><line class="a" x1="76.12029" y1="76.5802" x2="35.46723" y2="76.57947"/><line class="b" x1="76.1203" y1="76.5802" x2="46.09846" y2="76.57965"/><polygon class="c" points="48.476 73.093 35.467 76.579 48.476 80.066 48.476 73.093"/><line class="a" x1="157.42641" y1="16.38662" x2="116.77335" y2="16.38589"/><line class="b" x1="157.42642" y1="16.38663" x2="127.4046" y2="16.38608"/><polygon class="c" points="129.782 12.9 116.773 16.386 129.782 19.872 129.782 12.9"/><circle class="d" cx="16.38785" cy="16.38776" r="15.3877"/><path class="e" d="M216.247,294.71429a14.38776,14.38776,0,1,1-14.38774,14.38776A14.38775,14.38775,0,0,1,216.247,294.71429m0-2a16.38776,16.38776,0,1,0,16.38776,16.38776A16.4063,16.4063,0,0,0,216.247,292.71429Z" transform="translate(-199.85922 -292.71429)"/><path class="d" d="M375.044,324.48975a15.3877,15.3877,0,1,1,15.38769-15.3877A15.40558,15.40558,0,0,1,375.044,324.48975Z" transform="translate(-199.85922 -292.71429)"/><path class="f" d="M375.04346,294.71429a14.38776,14.38776,0,1,1-14.38776,14.38776,14.38776,14.38776,0,0,1,14.38776-14.38776m0-2a16.38776,16.38776,0,1,0,16.38775,16.38776,16.4063,16.4063,0,0,0-16.38775-16.38776Z" transform="translate(-199.85922 -292.71429)"/><circle class="d" cx="254.58218" cy="16.38776" r="15.3877"/><path class="f" d="M454.44171,294.71429A14.38776,14.38776,0,1,1,440.054,309.10205a14.38776,14.38776,0,0,1,14.38775-14.38776m0-2a16.38776,16.38776,0,1,0,16.38776,16.38776,16.4063,16.4063,0,0,0-16.38776-16.38776Z" transform="translate(-199.85922 -292.71429)"/><path class="c" d="M295.645,324.48975a15.3877,15.3877,0,1,1,15.38818-15.3877A15.40506,15.40506,0,0,1,295.645,324.48975Z" transform="translate(-199.85922 -292.71429)"/><path class="e" d="M295.64523,294.71429a14.38776,14.38776,0,1,1-14.38775,14.38776,14.38773,14.38773,0,0,1,14.38775-14.38776m0-2A16.38776,16.38776,0,1,0,312.033,309.10205a16.4063,16.4063,0,0,0-16.38773-16.38776Z" transform="translate(-199.85922 -292.71429)"/><circle class="d" cx="16.38785" cy="76.57965" r="15.3877"/><path class="f" d="M216.247,354.90637a14.38776,14.38776,0,1,1-14.38774,14.38776A14.38775,14.38775,0,0,1,216.247,354.90637m0-2a16.38776,16.38776,0,1,0,16.38776,16.38776A16.40629,16.40629,0,0,0,216.247,352.90637Z" transform="translate(-199.85922 -292.71429)"/><path class="d" d="M295.645,384.68164A15.3877,15.3877,0,1,1,311.0332,369.294,15.40505,15.40505,0,0,1,295.645,384.68164Z" transform="translate(-199.85922 -292.71429)"/><path class="e" d="M295.64523,354.90637a14.38776,14.38776,0,1,1-14.38775,14.38776,14.38773,14.38773,0,0,1,14.38775-14.38776m0-2A16.38776,16.38776,0,1,0,312.033,369.29413a16.40629,16.40629,0,0,0-16.38773-16.38776Z" transform="translate(-199.85922 -292.71429)"/><circle class="c" cx="175.18424" cy="76.57984" r="14.38776"/><path class="a" d="M214.77832,311.19238l-.67236,2.42383h-2.21289l2.88525-9.44141h2.80176l2.92724,9.44141h-2.29687l-.72852-2.42383Zm2.39551-1.59668-.58838-2.00293c-.168-.56054-.33594-1.26074-.47607-1.82129h-.02833c-.14013.56055-.27978,1.2754-.43408,1.82129l-.56054,2.00293Z" transform="translate(-199.85922 -292.71429)"/><path class="a" d="M378.7373,313.34961a6.0869,6.0869,0,0,1-2.42382.40625c-3.26368,0-4.94434-2.03125-4.94434-4.7207a4.81264,4.81264,0,0,1,5.1543-5.01465,5.56025,5.56025,0,0,1,2.32519.4209l-.43359,1.69433a4.62367,4.62367,0,0,0-1.793-.34961,3.10371,3.10371,0,0,0,.01367,6.20508,5.341,5.341,0,0,0,1.7793-.30859Z" transform="translate(-199.85922 -292.71429)"/><path class="a" d="M450.49414,304.30078a19.06191,19.06191,0,0,1,2.88574-.19629,6.07417,6.07417,0,0,1,3.86621,1.00879,4.17788,4.17788,0,0,1,1.59668,3.55762,4.78618,4.78618,0,0,1-1.56933,3.82422,6.77212,6.77212,0,0,1-4.35645,1.21875,18.6252,18.6252,0,0,1-2.42285-.13965Zm2.14356,7.7041a3.9231,3.9231,0,0,0,.74218.042c1.93262.01464,3.19336-1.05079,3.19336-3.30567a2.70778,2.70778,0,0,0-2.96972-2.99707,4.43629,4.43629,0,0,0-.96582.084Z" transform="translate(-199.85922 -292.71429)"/><path class="a" d="M292.3418,304.30078a16.98588,16.98588,0,0,1,2.75976-.19629,5.21517,5.21517,0,0,1,2.7876.53223,2.05485,2.05485,0,0,1,1.13428,1.84863,2.13414,2.13414,0,0,1-1.55469,2.01758v.02734a2.36386,2.36386,0,0,1,1.877,2.32618,2.51513,2.51513,0,0,1-.98047,2.00293,5.96239,5.96239,0,0,1-3.71191.85449,16.46032,16.46032,0,0,1-2.31152-.14063Zm2.11523,3.61328h.70068c1.12061,0,1.72266-.46191,1.72266-1.16211,0-.71484-.54639-1.09277-1.51269-1.09277a5.93334,5.93334,0,0,0-.91065.05566Zm0,4.18848a6.66976,6.66976,0,0,0,.82666.02832c.96631,0,1.8208-.36426,1.8208-1.35938,0-.95214-.85449-1.33007-1.91894-1.33007H294.457Z" transform="translate(-199.85922 -292.71429)"/><path class="a" d="M219.05029,369.81592h-3.47363v2.24121h3.87988v1.751h-6.02343v-9.44092h5.82714v1.751h-3.68359v1.96094h3.47363Z" transform="translate(-199.85922 -292.71429)"/><path class="a" d="M292.88086,364.3667h5.77148v1.751h-3.62793v2.15673h3.38965v1.73731h-3.38965v3.7959h-2.14355Z" transform="translate(-199.85922 -292.71429)"/><path class="a" d="M379.08008,373.374a10.56577,10.56577,0,0,1-3.15137.53223,5.262,5.262,0,0,1-3.83887-1.2749,4.5662,4.5662,0,0,1-1.33007-3.43164c.01367-3.1377,2.29687-4.93067,5.39257-4.93067a6.50928,6.50928,0,0,1,2.61914.46192l-.44824,1.709a5.227,5.227,0,0,0-2.19922-.40625,3.076,3.076,0,1,0,.89649,6.00928v-1.9751h-1.45606v-1.6665h3.51563Z" transform="translate(-199.85922 -292.71429)"/></svg>
